<svg width="26" height="30" viewBox="0 0 26 30" fill="none" xmlns="http://www.w3.org/2000/svg">
<path d="M2.16539 9.71777C1.6485 9.71777 1.20993 9.89803 0.849415 10.2585C0.488904 10.6191 0.308594 11.0517 0.308594 11.5566V19.3089C0.308594 19.8265 0.488849 20.2647 0.849415 20.6252C1.20993 20.9857 1.6485 21.166 2.16539 21.166C2.68191 21.166 3.11783 20.9858 3.47275 20.6252C3.82697 20.2647 4.00457 19.8265 4.00457 19.3089V11.5566C4.00457 11.0516 3.82431 10.6191 3.46374 10.2585C3.10318 9.89803 2.67031 9.71777 2.16539 9.71777Z" fill="url(#paint0_linear)"/>
<path d="M17.0938 2.75818L18.3739 0.396789C18.4579 0.240455 18.428 0.120574 18.2839 0.0362778C18.1275 -0.0364103 18.0074 0.000421913 17.9234 0.144171L16.6254 2.52443C15.4833 2.01947 14.2753 1.76653 13.0015 1.76653C11.7274 1.76653 10.5193 2.01952 9.37761 2.52443L8.07959 0.144171C7.99524 0.000421913 7.87508 -0.0360849 7.71908 0.0362778C7.57468 0.120954 7.54479 0.240455 7.62914 0.396789L8.90926 2.75818C7.61124 3.42013 6.57744 4.34202 5.80825 5.52586C5.03906 6.71035 4.6543 8.00474 4.6543 9.4113H21.3306C21.3306 8.00506 20.9458 6.71062 20.1766 5.52586C19.4074 4.34202 18.3795 3.42013 17.0938 2.75818ZM9.69299 6.19285C9.55456 6.33161 9.38922 6.40066 9.19703 6.40066C9.00446 6.40066 8.84249 6.33161 8.71035 6.19285C8.57821 6.05474 8.51214 5.89006 8.51214 5.69722C8.51214 5.50503 8.57821 5.34001 8.71035 5.20158C8.84249 5.06347 9.00484 4.99442 9.19703 4.99442C9.38922 4.99442 9.55456 5.06347 9.69299 5.20158C9.8311 5.34034 9.90048 5.50503 9.90048 5.69722C9.9001 5.88973 9.83077 6.05474 9.69299 6.19285ZM17.2919 6.19285C17.1595 6.33161 16.9972 6.40066 16.8053 6.40066C16.6127 6.40066 16.4474 6.33161 16.3092 6.19285C16.1709 6.05474 16.1018 5.89006 16.1018 5.69722C16.1018 5.50503 16.1709 5.34001 16.3092 5.20158C16.4474 5.06347 16.6127 4.99442 16.8053 4.99442C16.9975 4.99442 17.1595 5.06347 17.2919 5.20158C17.4242 5.34034 17.4901 5.50503 17.4901 5.69722C17.4901 5.88973 17.4241 6.05474 17.2919 6.19285Z" fill="url(#paint1_linear)"/>
<path d="M4.72461 22.0669C4.72461 22.6203 4.9168 23.0887 5.30123 23.4732C5.68599 23.8576 6.15445 24.0498 6.70747 24.0498H8.04168L8.05996 28.1428C8.05996 28.6596 8.24022 29.0985 8.60073 29.4591C8.96124 29.8197 9.39417 29.9999 9.89875 29.9999C10.4153 29.9999 10.8542 29.8197 11.2147 29.4591C11.5753 29.0985 11.7556 28.6597 11.7556 28.1428V24.0502H14.2434V28.1428C14.2434 28.6596 14.4236 29.0985 14.7842 29.4591C15.1448 29.8197 15.5832 29.9999 16.1002 29.9999C16.6168 29.9999 17.0556 29.8197 17.4162 29.4591C17.7767 29.0985 17.9569 28.6597 17.9569 28.1428V24.0502H19.3091C19.8499 24.0502 20.3123 23.8579 20.6975 23.4735C21.0819 23.0891 21.2742 22.6206 21.2742 22.0673V10.0596H4.72461V22.0669Z" fill="url(#paint2_linear)"/>
<path d="M23.8369 9.71777C23.3319 9.71777 22.8994 9.89537 22.5388 10.2496C22.1783 10.6045 21.998 11.0404 21.998 11.5566V19.3089C21.998 19.8265 22.1782 20.2647 22.5388 20.6252C22.8994 20.9858 23.3323 21.166 23.8369 21.166C24.3535 21.166 24.7923 20.9858 25.1529 20.6252C25.5134 20.2647 25.6936 19.8265 25.6936 19.3089V11.5566C25.6936 11.0403 25.5134 10.6045 25.1529 10.2496C24.7923 9.89537 24.3535 9.71777 23.8369 9.71777Z" fill="url(#paint3_linear)"/>
<defs>
<linearGradient id="paint0_linear" x1="3.84497" y1="9.71777" x2="-2.73622" y2="11.775" gradientUnits="userSpaceOnUse">
<stop stop-color="#CDB185"/>
<stop offset="1" stop-color="#EBD3AE"/>
</linearGradient>
<linearGradient id="paint1_linear" x1="20.6105" y1="-3.24625e-08" x2="12.3451" y2="14.181" gradientUnits="userSpaceOnUse">
<stop stop-color="#CDB185"/>
<stop offset="1" stop-color="#EBD3AE"/>
</linearGradient>
<linearGradient id="paint2_linear" x1="20.5595" y1="10.0596" x2="0.904508" y2="25.8547" gradientUnits="userSpaceOnUse">
<stop stop-color="#CDB185"/>
<stop offset="1" stop-color="#EBD3AE"/>
</linearGradient>
<linearGradient id="paint3_linear" x1="25.5341" y1="9.71777" x2="18.9534" y2="11.7747" gradientUnits="userSpaceOnUse">
<stop stop-color="#CDB185"/>
<stop offset="1" stop-color="#EBD3AE"/>
</linearGradient>
</defs>
</svg>
