<svg width="30" height="30" viewBox="0 0 30 30" fill="none" xmlns="http://www.w3.org/2000/svg">
<path d="M10.8554 29.9995C6.39055 29.9738 2.69727 20.8594 2.69727 16.2177C2.69727 8.63543 8.38525 6.97547 10.5774 6.97547C11.5653 6.97547 12.6201 7.36342 13.5505 7.70672C14.2012 7.94619 14.874 8.1934 15.2483 8.1934C15.4723 8.1934 16.0002 7.98311 16.4662 7.79859C17.4601 7.40291 18.6969 6.91113 20.1372 6.91113C20.1397 6.91113 20.1432 6.91113 20.1457 6.91113C21.2212 6.91113 24.4819 7.14715 26.4423 10.0911L26.9015 10.7812L26.2406 11.2799C25.2965 11.9923 23.5738 13.2918 23.5738 15.8658C23.5738 18.9145 25.5247 20.087 26.462 20.6509C26.8757 20.8998 27.304 21.1565 27.304 21.7178C27.304 22.0843 24.3789 29.9541 20.1311 29.9541C19.0917 29.9541 18.357 29.6417 17.709 29.3661C17.0533 29.0872 16.4876 28.8469 15.5529 28.8469C15.0791 28.8469 14.48 29.0709 13.8457 29.3087C12.9789 29.6322 11.9979 29.9995 10.8846 29.9995H10.8554Z" fill="url(#paint0_linear)"/>
<path d="M20.5872 0C20.6979 3.98883 17.8452 6.75609 14.9959 6.58254C14.5264 3.39932 17.8449 0 20.5872 0Z" fill="url(#paint1_linear)"/>
<defs>
<linearGradient id="paint0_linear" x1="26.2414" y1="6.91113" x2="2.94884" y2="30.9478" gradientUnits="userSpaceOnUse">
<stop stop-color="#CDB185"/>
<stop offset="1" stop-color="#EBD3AE"/>
</linearGradient>
<linearGradient id="paint1_linear" x1="20.3468" y1="-2.27319e-08" x2="13.811" y2="5.41519" gradientUnits="userSpaceOnUse">
<stop stop-color="#CDB185"/>
<stop offset="1" stop-color="#EBD3AE"/>
</linearGradient>
</defs>
</svg>
