<svg width="170" height="154" viewBox="0 0 170 154" fill="none" xmlns="http://www.w3.org/2000/svg">
<path d="M80.7512 11.3064L78.8047 18.4849L84.6444 10.1875L80.7512 11.3064Z" fill="url(#paint0_linear)"/>
<path d="M84.8834 14.2673L84.6444 10.1875L78.8047 18.4849L84.8834 14.2673Z" fill="url(#paint1_linear)"/>
<path d="M82.3764 6.79102L75 7.15251L84.6474 10.1822L82.3764 6.79102Z" fill="url(#paint2_linear)"/>
<path d="M80.686 11.5966L84.6474 10.185L75 7.15527L80.686 11.5966Z" fill="url(#paint3_linear)"/>
<path d="M87.1413 6.97182L84.5117 0L84.6483 10.1909L87.1413 6.97182Z" fill="url(#paint4_linear)"/>
<path d="M82.0156 6.83411L84.6452 10.1909L84.5086 0L82.0156 6.83411Z" fill="url(#paint5_linear)"/>
<path d="M88.4542 11.5619L94.2085 6.91406L84.6465 10.1848L88.4542 11.5619Z" fill="url(#paint6_linear)"/>
<path d="M87.037 6.73242L84.6465 10.1753L94.2085 6.90456L87.037 6.73242Z" fill="url(#paint7_linear)"/>
<path d="M84.7831 14.319L90.7081 18.3471L84.6465 10.1875L84.7831 14.319Z" fill="url(#paint8_linear)"/>
<path d="M88.6591 11.3925L84.6465 10.1875L90.7081 18.3471L88.6591 11.3925Z" fill="url(#paint9_linear)"/>
<path d="M84.6444 10.1875L84.559 10.2047L78.8047 18.4849L84.6444 10.2736V10.1875Z" fill="url(#paint10_linear)"/>
<path d="M84.6474 10.185L84.5962 10.0989L75 7.15527L84.5791 10.2022L84.6474 10.185Z" fill="url(#paint11_linear)"/>
<path d="M84.6483 10.1909L84.7166 10.1048L84.5117 0L84.5971 10.1221L84.6483 10.1909Z" fill="url(#paint12_linear)"/>
<path d="M84.6465 10.1848L84.7319 10.2192L94.2085 6.91406L84.6806 10.1159L84.6465 10.1848Z" fill="url(#paint13_linear)"/>
<path d="M84.6465 10.1875V10.2736L90.7081 18.3471L84.7148 10.2047L84.6465 10.1875Z" fill="url(#paint14_linear)"/>
<path d="M96.9889 139.461C101.992 141.561 105.014 146.657 107.695 151.27C104.861 146.743 101.736 141.613 96.5621 139.754C96.3742 140.58 95.6571 144.315 99.9771 149.325C102.386 151.841 105.559 153.477 108.993 153.973C108.993 153.973 111.059 146.553 107.661 142.577C106.386 141.052 104.693 139.943 102.793 139.388C100.894 138.834 98.8741 138.859 96.9889 139.461Z" fill="url(#paint15_linear)"/>
<path d="M108.466 137.001C113.179 138.155 116.525 142.166 119.548 145.815C116.406 142.252 112.94 138.224 108.124 137.311C108.124 138.034 107.92 141.391 112.376 145.161C114.847 147.001 117.842 147.986 120.914 147.967C120.914 147.967 121.699 141.288 118.148 138.292C116.824 137.168 115.209 136.449 113.494 136.221C111.778 135.992 110.034 136.263 108.466 137.001Z" fill="url(#paint16_linear)"/>
<path d="M118.612 132.894C123.256 133.083 127.149 136.078 130.752 138.85C127.098 136.199 123.051 133.186 118.355 133.255C118.355 133.944 118.97 137.042 123.888 139.642C126.596 140.871 129.623 141.197 132.528 140.571C132.528 140.571 131.947 134.288 128.02 132.222C126.549 131.428 124.884 131.069 123.22 131.188C121.555 131.307 119.957 131.898 118.612 132.894Z" fill="url(#paint17_linear)"/>
<path d="M128.664 127.889C133.309 127.252 137.731 129.61 141.761 131.693C137.68 129.679 133.223 127.389 128.477 128.25C128.664 128.922 129.74 131.865 135.068 133.587C137.973 134.333 141.037 134.14 143.827 133.036C143.827 133.036 142.12 126.994 137.885 125.634C136.294 125.092 134.583 125.016 132.951 125.415C131.319 125.815 129.832 126.672 128.664 127.889Z" fill="url(#paint18_linear)"/>
<path d="M137.611 120.975C142.119 119.65 146.883 121.233 151.271 122.697C146.883 121.388 142.017 119.822 137.611 121.406C137.902 122.025 139.438 124.848 145.022 125.606C147.993 125.874 150.974 125.213 153.559 123.712C153.559 123.712 150.879 118.066 146.439 117.36C144.779 117.061 143.069 117.242 141.507 117.882C139.945 118.521 138.594 119.594 137.611 120.975Z" fill="url(#paint19_linear)"/>
<path d="M145.213 114.044C149.311 112.236 154.058 113.148 158.361 113.958C154.024 113.252 149.191 112.425 145.145 114.457C145.52 114.99 147.33 117.383 152.743 117.486C155.62 117.39 158.396 116.391 160.683 114.629C160.683 114.629 157.387 109.619 153.067 109.465C151.464 109.406 149.876 109.805 148.487 110.615C147.098 111.425 145.963 112.613 145.213 114.044Z" fill="url(#paint20_linear)"/>
<path d="M150.814 105.413C154.571 102.968 159.352 103.089 163.809 103.192C159.386 103.192 154.469 103.192 150.814 105.809C151.258 106.291 153.461 108.339 158.84 107.53C161.659 106.979 164.234 105.545 166.199 103.433C166.199 103.433 162.084 99.0264 157.815 99.6289C156.222 99.8166 154.715 100.461 153.474 101.487C152.233 102.512 151.31 103.875 150.814 105.413Z" fill="url(#paint21_linear)"/>
<path d="M155.131 96.3429C158.085 93.4337 162.524 92.6935 166.537 91.9877C162.524 92.7968 157.999 93.7091 155.199 96.7044C155.694 97.0659 158.085 98.4259 162.849 96.8766C165.303 95.8691 167.377 94.1032 168.774 91.8328C168.774 91.8328 164.215 88.5792 160.441 89.8703C159.035 90.3239 157.787 91.1748 156.845 92.3221C155.904 93.4694 155.309 94.8649 155.131 96.3429Z" fill="url(#paint22_linear)"/>
<path d="M157.234 86.0147C159.796 83.1743 163.842 82.2103 167.479 81.3668C163.825 82.348 159.71 83.3464 157.234 86.359C157.712 86.6688 160.035 87.891 164.355 86.1007C166.548 85.0243 168.343 83.2691 169.477 81.0914C169.477 81.0914 165.038 78.2854 161.623 79.7314C160.37 80.243 159.29 81.1076 158.511 82.2219C157.733 83.3362 157.29 84.653 157.234 86.0147Z" fill="url(#paint23_linear)"/>
<path d="M157.979 76.1846C159.96 72.9311 163.768 71.2957 167.217 69.7808C163.802 71.399 159.943 73.1032 158.133 76.5117C158.662 76.7182 161.155 77.5273 165.048 74.9968C167.017 73.5549 168.468 71.5067 169.181 69.1611C169.181 69.1611 164.314 67.1814 161.224 69.1611C160.061 69.8837 159.134 70.9341 158.557 72.1825C157.98 73.4309 157.78 74.8223 157.979 76.1846Z" fill="url(#paint24_linear)"/>
<path d="M158.652 65.8845C159.574 62.0113 162.853 59.2225 165.38 56.9502C162.665 59.5152 159.574 62.3211 158.908 66.1427C159.472 66.1427 162.101 66.2288 164.97 62.6998C166.399 60.6999 167.126 58.2771 167.036 55.8141C167.036 55.8141 161.913 55.3837 159.557 58.2413C158.7 59.2962 158.16 60.5759 157.999 61.9299C157.839 63.2839 158.065 64.6558 158.652 65.8845Z" fill="url(#paint25_linear)"/>
<path d="M157.468 57.0762C157.332 53.4268 159.398 50.1905 161.276 47.2124C159.483 50.2249 157.417 53.5817 157.741 57.2656C158.271 57.1623 160.644 56.577 162.335 52.5488C163.117 50.3288 163.165 47.9129 162.471 45.6631C162.471 45.6631 157.707 46.5066 156.358 49.7085C155.839 50.9179 155.668 52.2501 155.864 53.553C156.06 54.8559 156.616 56.0768 157.468 57.0762Z" fill="url(#paint26_linear)"/>
<path d="M154.566 47.0915C154.173 43.6486 155.796 40.5845 157.264 37.7441C155.881 40.6533 154.242 43.8552 154.839 47.2292C155.3 47.0915 157.435 46.4029 158.647 42.5986C159.168 40.4941 159.019 38.2777 158.22 36.2637C158.22 36.2637 153.934 37.3482 152.978 40.3951C152.611 41.5511 152.565 42.7863 152.845 43.9669C153.125 45.1474 153.72 46.228 154.566 47.0915Z" fill="url(#paint27_linear)"/>
<path d="M151.152 39.1543C150.418 35.8147 151.75 32.544 152.859 29.5659C151.767 32.5784 150.469 35.9352 151.374 39.2748C151.835 39.1027 153.884 38.242 154.789 34.3171C155.092 32.1589 154.729 29.9589 153.747 28.0166C153.747 28.0166 149.632 29.4454 148.949 32.5612C148.703 33.7584 148.777 35.0001 149.164 36.1588C149.551 37.3176 150.237 38.3515 151.152 39.1543Z" fill="url(#paint28_linear)"/>
<path d="M145.414 30.0693C144.356 27.0051 145.193 23.786 145.927 20.8768C145.278 23.8377 144.475 27.1084 145.688 30.1554C146.097 29.9488 147.89 28.9504 148.198 25.1804C148.229 23.1056 147.634 21.0702 146.49 19.3447C146.49 19.3447 142.87 21.0662 142.631 24.0959C142.542 25.2493 142.752 26.4062 143.24 27.4534C143.728 28.5005 144.477 29.4019 145.414 30.0693Z" fill="url(#paint29_linear)"/>
<path d="M135.157 18.6897C134.115 15.8321 134.849 12.8712 135.396 10.0825C134.935 12.8196 134.218 15.8321 135.396 18.6897C135.772 18.5175 137.445 17.6052 137.633 14.1106C137.615 12.1662 137.02 10.2718 135.925 8.6709C135.925 8.6709 132.63 10.2202 132.51 13.0089C132.444 14.1036 132.651 15.1975 133.114 16.1902C133.576 17.1829 134.279 18.0424 135.157 18.6897Z" fill="url(#paint30_linear)"/>
<path d="M140.412 23.8372C139.696 21.0602 139.809 18.132 140.736 15.4194C140.207 18.1221 139.489 21.1174 140.651 23.9233C141.026 23.7339 142.631 22.8216 142.887 19.3615C142.862 17.445 142.267 15.5802 141.18 14.0078C141.18 14.0078 137.901 15.5915 137.765 18.3458C137.702 19.4132 137.912 20.479 138.375 21.4407C138.839 22.4024 139.54 23.2277 140.412 23.8372Z" fill="url(#paint31_linear)"/>
<path d="M130.182 13.9119C128.823 11.4527 128.101 8.68783 128.082 5.87277C128.441 8.55822 128.646 11.5535 130.421 13.9291C130.695 13.6881 131.907 12.4315 131.104 9.12629C130.53 7.30779 129.473 5.6825 128.048 4.42676C127.406 5.05503 126.917 5.82535 126.62 6.67683C126.324 7.52831 126.228 8.43761 126.34 9.33286C126.574 10.3491 127.044 11.2947 127.712 12.091C128.38 12.8874 129.227 13.5116 130.182 13.9119Z" fill="url(#paint32_linear)"/>
<path d="M123.648 9.46792C122.145 7.03497 121.179 4.30523 120.813 1.46322C121.53 4.13146 121.957 7.16119 123.904 9.46792C124.143 9.19249 125.27 7.88419 124.177 4.59624C123.414 2.76651 122.175 1.17849 120.591 0C120.031 0.693199 119.639 1.50846 119.447 2.38103C119.254 3.2536 119.266 4.15944 119.481 5.0266C119.804 6.03268 120.346 6.95342 121.067 7.72174C121.788 8.49006 122.669 9.08661 123.648 9.46792Z" fill="url(#paint33_linear)"/>
<path d="M95.968 138.326C100.117 134.418 101.534 128.445 102.798 123.005C101.449 128.428 99.9124 134.487 95.5411 138.223C95.1313 137.517 93.4067 134.246 96.0192 127.894C97.5551 124.595 100.05 121.845 103.174 120.01C103.174 120.01 107.135 126.276 105.052 131.285C104.334 133.193 103.105 134.861 101.5 136.104C99.8963 137.348 97.9808 138.117 95.968 138.326Z" fill="url(#paint34_linear)"/>
<path d="M107.238 134.497C111.2 131.398 112.976 126.251 114.512 121.569C112.805 126.217 110.978 131.45 106.829 134.359C106.521 133.705 105.275 130.641 108.143 125.236C109.772 122.462 112.203 120.258 115.11 118.918C115.11 118.918 118.098 124.822 115.827 129.126C115.03 130.736 113.804 132.09 112.288 133.039C110.771 133.987 109.023 134.492 107.238 134.497Z" fill="url(#paint35_linear)"/>
<path d="M118.519 130.68C122.088 127.53 123.42 122.555 124.581 118.027C123.283 122.52 121.866 127.564 118.109 130.577C117.768 129.974 116.402 127.134 118.775 121.97C120.143 119.251 122.307 117.021 124.973 115.583C124.973 115.583 128.166 120.971 126.305 125.171C125.639 126.725 124.559 128.063 123.184 129.035C121.81 130.008 120.195 130.577 118.519 130.68Z" fill="url(#paint36_linear)"/>
<path d="M131.313 123.64C134.318 119.956 134.728 114.86 135.172 110.213C134.659 114.843 134.113 120.025 130.903 123.588C130.476 123.054 128.649 120.524 130.083 114.981C130.998 112.076 132.788 109.53 135.206 107.699C135.206 107.699 139.201 112.519 138.092 116.875C137.7 118.528 136.858 120.037 135.66 121.233C134.462 122.428 132.956 123.262 131.313 123.64Z" fill="url(#paint37_linear)"/>
<path d="M142.169 114.405C143.876 109.998 142.698 105.04 141.571 100.633C142.561 105.178 143.688 110.221 141.759 114.577C141.178 114.232 138.617 112.408 138.224 106.71C138.158 103.693 139.03 100.732 140.717 98.2402C140.717 98.2402 146.13 101.459 146.489 106.004C146.623 107.672 146.289 109.344 145.525 110.83C144.761 112.315 143.598 113.554 142.169 114.405Z" fill="url(#paint38_linear)"/>
<path d="M150.726 103.014C150.965 98.5383 148.438 94.4068 146.098 90.6024C148.335 94.4413 150.862 98.7104 150.384 103.221C149.735 103.048 146.867 102.153 144.818 97.0923C143.876 94.3715 143.804 91.4213 144.613 88.6572C144.613 88.6572 150.47 90.0516 152.143 94.0625C152.793 95.5324 153.006 97.1613 152.754 98.7507C152.502 100.34 151.798 101.821 150.726 103.014Z" fill="url(#paint39_linear)"/>
<path d="M155.578 90.1618C154.537 85.7894 150.917 82.4842 147.604 79.5061C150.831 82.5875 154.434 85.996 155.305 90.4545C154.639 90.4545 151.617 90.4545 148.236 86.0992C146.566 83.7745 145.659 80.9819 145.641 78.1118C145.641 78.1118 151.651 77.8019 154.383 81.2276C155.408 82.4463 156.065 83.9353 156.276 85.5185C156.488 87.1017 156.246 88.713 155.578 90.1618Z" fill="url(#paint40_linear)"/>
<path d="M157.486 78.5332C155.95 74.6255 152.193 72.0433 148.761 69.7022C152.176 72.1466 155.933 74.8665 157.299 78.8258C156.684 78.9291 153.884 79.2389 150.229 75.6928C148.396 73.7311 147.204 71.2496 146.814 68.5832C146.814 68.5832 152.261 67.5848 155.25 70.3047C156.37 71.3128 157.177 72.6259 157.574 74.0858C157.97 75.5457 157.94 77.0902 157.486 78.5332Z" fill="url(#paint41_linear)"/>
<path d="M156.273 60.0044C154.565 56.5615 150.723 54.3925 147.325 52.5161C150.74 54.513 154.463 56.682 156.102 60.297C155.573 60.4348 153.029 60.9512 149.272 57.9559C147.365 56.3 146.007 54.0954 145.379 51.6382C145.379 51.6382 150.314 50.2611 153.319 52.6366C154.455 53.4545 155.336 54.582 155.86 55.887C156.383 57.192 156.526 58.6203 156.273 60.0044Z" fill="url(#paint42_linear)"/>
<path d="M157.388 68.6696C155.578 65.2267 151.804 63.1782 148.406 61.319C151.821 63.2643 155.543 65.3816 157.234 68.9622C156.687 69.0999 154.143 69.6852 150.404 66.7416C148.506 65.1003 147.138 62.924 146.477 60.4927C146.477 60.4927 151.394 59.0295 154.434 61.3362C155.567 62.1486 156.447 63.2701 156.97 64.569C157.493 65.868 157.638 67.2905 157.388 68.6696Z" fill="url(#paint43_linear)"/>
<path d="M154.179 49.7661C151.874 46.8052 148.066 45.4797 144.6 44.2575C148.015 45.583 151.891 46.9774 154.077 50.0759C153.615 50.3169 151.362 51.2121 147.383 49.0431C145.305 47.8118 143.644 45.9755 142.619 43.7755C142.619 43.7755 146.888 41.6409 150.081 43.3623C151.284 43.944 152.304 44.8502 153.027 45.9806C153.751 47.1109 154.149 48.4212 154.179 49.7661Z" fill="url(#paint44_linear)"/>
<path d="M150.588 40.3152C148.18 37.7847 144.577 36.8724 141.316 36.0977C144.577 36.9929 148.231 37.9397 150.519 40.6079C150.109 40.8489 148.163 41.899 144.321 40.2464C142.317 39.2844 140.641 37.7447 139.506 35.8223C139.506 35.8223 143.16 33.4811 146.251 34.7722C147.402 35.2155 148.414 35.9648 149.177 36.9407C149.941 37.9166 150.428 39.0827 150.588 40.3152Z" fill="url(#paint45_linear)"/>
<path d="M146.028 32.4102C143.791 30.0002 140.411 29.0878 137.337 28.296C140.393 29.1911 143.826 30.1551 145.977 32.6856C145.601 32.9438 143.774 33.8562 140.154 32.2381C138.337 31.2606 136.824 29.7948 135.783 28.0033C135.783 28.0033 139.198 25.8859 142.118 27.1426C143.168 27.6014 144.082 28.3288 144.767 29.2527C145.453 30.1766 145.888 31.265 146.028 32.4102Z" fill="url(#paint46_linear)"/>
<path d="M134.075 18.6039C131.349 17.3197 128.314 16.8535 125.332 17.2612C128.235 17.2612 131.462 17.1407 134.126 18.8793C133.853 19.1892 132.589 20.6008 129.003 20.1015C127.084 19.7283 125.308 18.8152 123.881 17.4677C123.881 17.4677 126.118 14.5413 129.003 14.8856C130.089 15.032 131.12 15.4486 132.006 16.0978C132.891 16.7469 133.602 17.6083 134.075 18.6039Z" fill="url(#paint47_linear)"/>
<path d="M139.408 23.5694C136.761 22.5906 133.887 22.417 131.143 23.0701C133.841 22.7947 136.846 22.416 139.459 23.8104C139.237 24.1374 138.161 25.5318 134.763 25.5318C132.895 25.3646 131.115 24.6528 129.641 23.4833C129.641 23.4833 131.536 20.488 134.251 20.5568C135.294 20.572 136.316 20.857 137.219 21.3844C138.122 21.9119 138.876 22.6642 139.408 23.5694Z" fill="url(#paint48_linear)"/>
<path d="M128.271 13.6054C125.718 12.5154 122.908 12.1926 120.177 12.6759C122.946 12.2433 125.779 12.6445 128.322 13.8292C128.117 14.1391 127.025 15.4474 123.695 15.172C121.861 14.9121 120.135 14.1432 118.709 12.9513C119.21 12.194 119.881 11.5659 120.667 11.1174C121.453 10.6689 122.332 10.4126 123.234 10.3691C124.273 10.4479 125.277 10.7846 126.156 11.3493C127.035 11.9139 127.761 12.689 128.271 13.6054Z" fill="url(#paint49_linear)"/>
<path d="M121.596 8.51734C118.984 7.81386 116.223 7.92185 113.673 8.8272C116.287 8.00854 119.085 8.00854 121.698 8.8272C121.562 9.17148 120.759 10.6864 117.515 10.8929C115.699 10.8913 113.922 10.3657 112.393 9.37806C112.393 9.37806 113.656 6.24504 116.234 6.0729C117.257 6.01707 118.278 6.21001 119.211 6.63544C120.144 7.06088 120.962 7.70633 121.596 8.51734Z" fill="url(#paint50_linear)"/>
<path d="M90.7242 137.979C93.2738 137.775 95.8104 137.431 98.3226 136.947C105.038 135.707 111.603 133.751 117.908 131.111C126.882 127.47 135.018 122.009 141.813 115.067C145.555 111.148 148.702 106.693 151.153 101.846C153.652 96.8618 155.423 91.5391 156.412 86.0436C157.379 80.5228 157.746 74.9121 157.505 69.3112C157.323 63.8443 156.556 58.4132 155.217 53.1124C152.806 43.4348 148.318 34.4086 142.069 26.6711C137.45 21.021 132.123 15.9984 126.223 11.729C124.055 10.1281 122.296 8.94029 121.101 8.13121L119.222 6.89177C119.157 6.84436 119.108 6.77689 119.084 6.69938C119.059 6.62186 119.06 6.53842 119.086 6.46141C119.112 6.4321 119.143 6.40863 119.178 6.39255C119.214 6.37648 119.252 6.36816 119.291 6.36816C119.33 6.36816 119.368 6.37648 119.403 6.39255C119.439 6.40863 119.47 6.4321 119.496 6.46141L121.374 7.68363C122.586 8.49271 124.362 9.66329 126.496 11.247C132.51 15.5085 137.946 20.5432 142.667 26.2235C149.096 34.0194 153.758 43.1377 156.327 52.9403C159.118 63.8531 159.624 75.2326 157.812 86.3534C156.854 91.9996 155.082 97.4743 152.553 102.604C150.091 107.648 146.891 112.29 143.059 116.375C136.127 123.564 127.812 129.252 118.625 133.091C112.189 135.827 105.488 137.881 98.6299 139.219C96.0339 139.743 93.412 140.128 90.7754 140.372C90.6316 140.384 90.4869 140.366 90.3505 140.318C90.2141 140.271 90.089 140.196 89.9831 140.097C89.8771 139.998 89.7927 139.878 89.7351 139.745C89.6775 139.612 89.648 139.468 89.6484 139.322C89.6473 139.02 89.7591 138.728 89.9616 138.505C90.164 138.281 90.4423 138.143 90.7412 138.117L90.7242 137.979Z" fill="url(#paint51_linear)"/>
<path d="M72.9951 139.461C67.9921 141.561 64.9698 146.657 62.289 151.27C65.1235 146.743 68.2482 141.613 73.4219 139.754C73.6098 140.58 74.3269 144.315 70.0069 149.325C67.6 151.844 64.4266 153.48 60.9913 153.973C60.9913 153.973 58.9252 146.553 62.3232 142.577C63.5975 141.052 65.2913 139.943 67.1907 139.388C69.0901 138.834 71.1099 138.859 72.9951 139.461Z" fill="url(#paint52_linear)"/>
<path d="M61.4708 137.001C56.7752 138.155 53.4114 142.166 50.3891 145.815C53.5309 142.252 56.9971 138.224 61.8123 137.311C61.8123 138.034 62.0172 141.391 57.5606 145.161C55.09 147.001 52.0948 147.986 49.0231 147.967C49.0231 147.967 48.2376 141.288 51.7893 138.292C53.1126 137.168 54.7273 136.449 56.4429 136.221C58.1584 135.992 59.9031 136.263 61.4708 137.001Z" fill="url(#paint53_linear)"/>
<path d="M51.383 132.894C46.7556 133.083 42.8454 136.078 39.2426 138.85C42.8967 136.199 46.9435 133.186 51.6391 133.255C51.6391 133.944 51.0244 137.042 46.1068 139.642C43.3984 140.871 40.3715 141.197 37.4668 140.571C37.4668 140.571 38.0644 134.288 41.9746 132.222C43.4459 131.428 45.1101 131.069 46.775 131.188C48.4398 131.307 50.0374 131.898 51.383 132.894Z" fill="url(#paint54_linear)"/>
<path d="M41.3209 127.889C36.6765 127.252 32.254 129.61 28.2243 131.693C32.3223 129.679 36.8643 127.389 41.5087 128.25C41.3209 128.922 40.2451 131.865 34.9177 133.587C32.0127 134.333 28.9487 134.14 26.1582 133.036C26.1582 133.036 27.8657 126.994 32.1003 125.634C33.6915 125.092 35.4024 125.016 37.0344 125.415C38.6665 125.815 40.1528 126.672 41.3209 127.889Z" fill="url(#paint55_linear)"/>
<path d="M32.3759 120.965C27.8852 119.639 23.1041 121.223 18.7159 122.686C23.1041 121.378 27.9705 119.811 32.4613 121.395C32.1539 122.015 30.6172 124.838 25.0336 125.595C22.0624 125.864 19.0813 125.202 16.4961 123.702C16.4961 123.702 19.1769 118.055 23.6164 117.349C25.2658 117.064 26.9615 117.252 28.5103 117.891C30.059 118.53 31.3985 119.595 32.3759 120.965Z" fill="url(#paint56_linear)"/>
<path d="M24.7942 114.044C20.6962 112.236 15.9493 113.148 11.6464 113.958C15.9835 113.252 20.8157 112.425 24.8625 114.457C24.504 114.99 22.6769 117.383 17.2641 117.486C14.387 117.39 11.6114 116.391 9.32422 114.629C9.32422 114.629 12.6197 109.619 16.9397 109.465C18.5435 109.406 20.131 109.805 21.5203 110.615C22.9095 111.425 24.0442 112.613 24.7942 114.044Z" fill="url(#paint57_linear)"/>
<path d="M19.1757 105.413C15.4362 102.968 10.6381 103.089 6.1986 103.192C10.604 103.192 15.5216 103.192 19.1757 105.809C18.7317 106.291 16.529 108.339 11.1504 107.53C8.33104 106.979 5.75594 105.545 3.79102 103.433C3.79102 103.433 7.90611 99.0264 12.1749 99.6289C13.7684 99.8166 15.2751 100.461 16.516 101.487C17.7569 102.512 18.68 103.875 19.1757 105.413Z" fill="url(#paint58_linear)"/>
<path d="M14.871 96.3429C11.8999 93.4337 7.46041 92.6935 3.44777 91.9877C7.46041 92.7968 11.9853 93.7091 14.7856 96.7044C14.2904 97.0659 11.8999 98.4259 7.13599 96.8766C4.68173 95.8691 2.60739 94.1032 1.21094 91.8328C1.21094 91.8328 5.76998 88.5792 9.54357 89.8703C10.9545 90.3193 12.2072 91.1684 13.152 92.3163C14.0968 93.4642 14.6936 94.8621 14.871 96.3429Z" fill="url(#paint59_linear)"/>
<path d="M12.8429 86.0147C10.2646 83.1743 6.21781 82.2103 2.5979 81.3668C6.25196 82.348 10.3841 83.3464 12.8429 86.359C12.3648 86.6688 10.0426 87.891 5.73971 86.1007C3.54537 85.0253 1.75023 83.2698 0.617188 81.0914C0.617188 81.0914 5.05671 78.2854 8.47172 79.7314C9.71781 80.2509 10.791 81.118 11.5653 82.231C12.3396 83.344 12.7828 84.6566 12.8429 86.0147Z" fill="url(#paint60_linear)"/>
<path d="M12.0093 76.1846C10.0116 72.9311 6.20381 71.2957 2.75465 69.7808C6.16966 71.399 10.0286 73.1032 11.8557 76.5117C11.3093 76.7182 8.8163 77.5273 4.92318 74.9968C2.95445 73.5549 1.50415 71.5067 0.791016 69.1611C0.791016 69.1611 5.65741 67.1814 8.748 69.1611C9.90927 69.8862 10.836 70.9364 11.4152 72.1837C11.9943 73.4309 12.2008 74.8211 12.0093 76.1846Z" fill="url(#paint61_linear)"/>
<path d="M11.3385 65.8845C10.4165 62.0113 7.13807 59.2225 4.61095 56.9502C7.32589 59.5152 10.4165 62.3211 11.0995 66.1427C10.5189 66.1427 7.88937 66.2288 5.02076 62.6998C3.59199 60.6999 2.865 58.2771 2.95467 55.8141C2.95467 55.8141 8.07719 55.3837 10.4336 58.2413C11.2905 59.2962 11.831 60.5759 11.9913 61.9299C12.1516 63.2839 11.9251 64.6558 11.3385 65.8845Z" fill="url(#paint62_linear)"/>
<path d="M12.5219 57.0762C12.6585 53.4268 10.5924 50.1905 8.71416 47.2124C10.507 50.2249 12.5731 53.5817 12.2487 57.2656C11.7194 57.1623 9.34594 56.577 7.65551 52.5488C6.87278 50.3288 6.82485 47.9129 7.51891 45.6631C7.51891 45.6631 12.2829 46.5066 13.6318 49.7085C14.1675 50.9145 14.3477 52.2504 14.1509 53.5568C13.9541 54.8632 13.3886 56.085 12.5219 57.0762Z" fill="url(#paint63_linear)"/>
<path d="M15.3566 47.0915C15.7664 43.6486 14.1272 40.5845 12.6587 37.7441C14.0418 40.6533 15.681 43.8552 15.0834 47.2292C14.6224 47.0915 12.488 46.4029 11.2757 42.5986C10.7546 40.4941 10.904 38.2777 11.7025 36.2637C11.7025 36.2637 16.0055 37.3482 16.9446 40.3951C17.3157 41.5507 17.3638 42.7869 17.0836 43.9682C16.8035 45.1495 16.206 46.2302 15.3566 47.0915Z" fill="url(#paint64_linear)"/>
<path d="M18.8561 39.1543C19.5903 35.8147 18.2585 32.544 17.1486 29.5659C18.2414 32.5784 19.5391 35.9352 18.6341 39.2748C18.1731 39.1027 16.1241 38.242 15.2191 34.3171C14.9124 32.1589 15.2762 29.9578 16.2607 28.0166C16.2607 28.0166 20.3587 29.4454 21.0417 32.5612C21.2903 33.7568 21.2189 34.9976 20.8348 36.1562C20.4507 37.3148 19.7678 38.3496 18.8561 39.1543Z" fill="url(#paint65_linear)"/>
<path d="M24.5754 30.0693C25.6341 27.0051 24.7974 23.786 24.0632 20.8768C24.712 23.8377 25.5146 27.1084 24.3022 30.1554C23.8924 29.9488 22.0995 28.9504 21.7922 25.1804C21.7608 23.1056 22.3564 21.0702 23.4997 19.3447C23.4997 19.3447 27.1196 21.0662 27.3587 24.0959C27.4476 25.2493 27.2379 26.4062 26.75 27.4534C26.2621 28.5005 25.5128 29.4019 24.5754 30.0693Z" fill="url(#paint66_linear)"/>
<path d="M34.8372 18.6897C35.8788 15.8321 35.1446 12.8712 34.5982 10.0825C35.0592 12.8196 35.7763 15.8321 34.5982 18.6897C34.2225 18.5175 32.5662 17.6052 32.3613 14.1106C32.3793 12.1662 32.974 10.2718 34.0688 8.6709C34.0688 8.6709 37.3643 10.2202 37.4839 13.0089C37.5504 14.1036 37.3429 15.1975 36.8804 16.1902C36.418 17.1829 35.7154 18.0424 34.8372 18.6897Z" fill="url(#paint67_linear)"/>
<path d="M29.5925 23.8372C30.2937 21.0576 30.175 18.132 29.251 15.4194C29.7803 18.1221 30.4975 21.1174 29.251 23.9233C28.8754 23.7339 27.2703 22.8216 27.0312 19.3615C27.0505 17.4439 27.6459 15.5773 28.7388 14.0078C28.7388 14.0078 32.0172 15.5915 32.1538 18.3458C32.2231 19.4049 32.0245 20.4644 31.5765 21.425C31.1285 22.3855 30.4458 23.2155 29.5925 23.8372Z" fill="url(#paint68_linear)"/>
<path d="M39.8068 13.9119C41.1539 11.4495 41.8645 8.68484 41.8729 5.87277C41.5143 8.55822 41.3094 11.5535 39.5336 13.9291C39.2604 13.6881 38.0481 12.4315 38.8506 9.12629C39.415 7.3117 40.46 5.68681 41.8729 4.42676C42.5154 5.05503 43.0041 5.82535 43.3004 6.67683C43.5968 7.52831 43.6926 8.43761 43.5804 9.33286C43.3542 10.3421 42.8944 11.2831 42.2386 12.0789C41.5828 12.8747 40.7495 13.5028 39.8068 13.9119Z" fill="url(#paint69_linear)"/>
<path d="M46.3441 9.46792C47.8463 7.03497 48.8129 4.30523 49.1786 1.46322C48.4614 4.13146 48.0516 7.16119 46.088 9.46792C45.8489 9.19249 44.722 7.88419 45.8148 4.59624C46.5775 2.76651 47.8164 1.17849 49.4005 0C49.9604 0.693199 50.3522 1.50846 50.5449 2.38103C50.7375 3.2536 50.7257 4.15944 50.5104 5.0266C50.1873 6.03268 49.6456 6.95342 48.9249 7.72174C48.2042 8.49006 47.3225 9.08661 46.3441 9.46792Z" fill="url(#paint70_linear)"/>
<path d="M74.0227 138.326C69.8735 134.418 68.4563 128.445 67.1927 123.005C68.5587 128.428 70.0784 134.487 74.4496 138.223C74.8594 137.517 76.584 134.246 73.9715 127.894C72.4357 124.595 69.9403 121.845 66.8171 120.01C66.8171 120.01 62.8044 126.276 64.8705 131.354C65.6036 133.258 66.848 134.919 68.4645 136.15C70.081 137.382 72.0056 138.135 74.0227 138.326Z" fill="url(#paint71_linear)"/>
<path d="M62.7525 134.497C58.7911 131.433 57.0153 126.268 55.5298 121.569C57.2373 126.217 59.0643 131.45 63.2135 134.359C63.5209 133.705 64.7674 130.641 61.8988 125.236C60.2707 122.462 57.8396 120.258 54.9321 118.918C54.9321 118.918 51.9611 124.822 54.2321 129.126C55.0211 130.728 56.2351 132.078 57.7392 133.026C59.2433 133.974 60.9786 134.483 62.7525 134.497Z" fill="url(#paint72_linear)"/>
<path d="M51.4836 130.68C47.8978 127.53 46.566 122.555 45.4049 118.027C46.7026 122.52 48.1198 127.564 51.8763 130.577C52.2178 129.974 53.5838 127.134 51.2104 121.97C49.8424 119.251 47.6787 117.021 45.0121 115.583C45.0121 115.583 41.8191 120.971 43.6803 125.171C44.3476 126.728 45.4305 128.067 46.8083 129.04C48.186 130.012 49.8046 130.58 51.4836 130.68Z" fill="url(#paint73_linear)"/>
<path d="M38.6776 123.64C35.6724 119.956 35.2626 114.86 34.8187 110.213C35.3309 114.843 35.8773 120.025 39.0874 123.588C39.5314 123.054 41.3413 120.524 39.907 114.981C38.9925 112.076 37.2019 109.53 34.7845 107.699C34.7845 107.699 30.7719 112.519 31.8988 116.875C32.29 118.528 33.1323 120.037 34.3302 121.233C35.5282 122.428 37.0341 123.262 38.6776 123.64Z" fill="url(#paint74_linear)"/>
<path d="M27.8168 114.405C26.1093 109.998 27.2875 105.04 28.4144 100.633C27.4241 105.178 26.2971 110.221 28.2266 114.577C28.8071 114.232 31.3684 112.408 31.7611 106.71C31.8269 103.693 30.9552 100.732 29.2682 98.2402C29.2682 98.2402 23.8554 101.459 23.5139 106.004C23.3738 107.671 23.7034 109.343 24.4646 110.829C25.2258 112.315 26.3878 113.555 27.8168 114.405Z" fill="url(#paint75_linear)"/>
<path d="M19.265 103.021C19.026 98.5456 21.5702 94.4142 23.8924 90.6098C21.6726 94.4486 19.1284 98.7522 19.6748 103.228C20.2554 103.056 23.0898 102.195 25.1559 97.0308C26.1035 94.3118 26.1812 91.3615 25.3779 88.5957C25.3779 88.5957 19.5211 89.9901 17.8478 94.001C17.1829 95.4795 16.9627 97.1221 17.2146 98.7255C17.4665 100.329 18.1794 101.822 19.265 103.021Z" fill="url(#paint76_linear)"/>
<path d="M14.4132 90.1618C15.4548 85.7894 19.0747 82.4842 22.3873 79.5061C19.1601 82.5875 15.5573 85.996 14.6864 90.4545C15.3524 90.4545 18.3746 90.4545 21.7555 86.0992C23.4251 83.7745 24.3325 80.9819 24.3509 78.1118C24.3509 78.1118 18.3405 77.8019 15.6085 81.2276C14.5839 82.4463 13.9269 83.9353 13.7151 85.5185C13.5033 87.1017 13.7455 88.713 14.4132 90.1618Z" fill="url(#paint77_linear)"/>
<path d="M12.5024 78.5332C14.0392 74.6255 17.8128 72.0433 21.2278 69.7022C17.8128 72.1466 14.0563 74.8665 12.6902 78.8258C13.3049 78.9291 16.1053 79.2389 19.7593 75.6928C21.5925 73.7311 22.7844 71.2496 23.1743 68.5832C23.1743 68.5832 17.7274 67.5848 14.7563 70.3047C13.635 71.3121 12.8259 72.6243 12.4261 74.0839C12.0263 75.5435 12.0528 77.0884 12.5024 78.5332Z" fill="url(#paint78_linear)"/>
<path d="M13.6786 60.0044C15.3861 56.5615 19.228 54.3925 22.6259 52.5161C19.2109 54.513 15.4885 56.682 13.8493 60.297C14.3957 60.4348 16.9228 60.9512 20.6794 57.9559C22.5876 56.2981 23.9512 54.0949 24.5896 51.6382C24.5896 51.6382 19.6378 50.2611 16.6326 52.6366C15.4963 53.4545 14.6149 54.582 14.0917 55.887C13.5685 57.192 13.4252 58.6203 13.6786 60.0044Z" fill="url(#paint79_linear)"/>
<path d="M12.6061 68.6696C14.4161 65.2267 18.1896 63.1782 21.5876 61.319C18.1726 63.2643 14.4502 65.3816 12.7769 68.9622C13.3233 69.0999 15.8504 69.6852 19.6069 66.7416C21.505 65.1003 22.8727 62.924 23.5341 60.4927C23.5341 60.4927 18.6165 59.0295 15.5942 61.3362C14.4546 62.1443 13.5678 63.2639 13.0384 64.5632C12.509 65.8624 12.359 67.2872 12.6061 68.6696Z" fill="url(#paint80_linear)"/>
<path d="M15.8125 49.7661C18.1176 46.8052 21.9254 45.4797 25.3916 44.2575C21.9766 45.583 18.1006 46.9774 15.9149 50.0759C16.376 50.3169 18.6299 51.2121 22.6084 49.0431C24.6696 47.8006 26.3164 45.9666 27.3382 43.7755C27.3382 43.7755 23.0523 41.6409 19.8593 43.3623C18.6657 43.9512 17.6564 44.8605 16.9424 45.9903C16.2285 47.1202 15.8375 48.4267 15.8125 49.7661Z" fill="url(#paint81_linear)"/>
<path d="M19.3984 40.3152C21.806 37.7847 25.4089 36.8724 28.6702 36.0977C25.4259 36.9929 21.7548 37.9397 19.4667 40.6079C19.8765 40.8489 21.8231 41.899 25.665 40.2464C27.6717 39.282 29.3523 37.7433 30.4972 35.8223C30.4972 35.8223 26.8432 33.4811 23.6672 34.7722C22.5281 35.2255 21.5309 35.9792 20.7798 36.9544C20.0288 37.9295 19.5517 39.0904 19.3984 40.3152Z" fill="url(#paint82_linear)"/>
<path d="M23.873 32.4102C26.127 30.0002 29.5078 29.0878 32.5813 28.296C29.5249 29.1911 26.0928 30.1551 23.9413 32.6856C24.317 32.9438 26.144 33.8562 29.7639 32.2381C31.6376 31.284 33.206 29.8161 34.2888 28.0033C34.2888 28.0033 30.8738 25.8859 27.954 27.1426C26.8757 27.5833 25.9312 28.3019 25.215 29.2264C24.4988 30.1508 24.036 31.2487 23.873 32.4102Z" fill="url(#paint83_linear)"/>
<path d="M35.9086 18.6039C38.6346 17.3197 41.6695 16.8535 44.6511 17.2612C41.7654 17.2612 38.5211 17.1407 35.8574 18.8793C36.1306 19.1892 37.3942 20.6008 40.9799 20.1015C42.9018 19.7346 44.6794 18.8207 46.1025 17.4677C46.1025 17.4677 43.8656 14.5413 40.9799 14.8856C39.8948 15.032 38.863 15.4486 37.9776 16.0978C37.0922 16.7469 36.3811 17.6083 35.9086 18.6039Z" fill="url(#paint84_linear)"/>
<path d="M30.5864 23.5624C33.2281 22.5665 36.1019 22.3749 38.8507 23.0115C36.1529 22.7361 33.1476 22.3574 30.5352 23.7518C30.7571 24.0788 31.8329 25.4732 35.2308 25.4732C37.0993 25.306 38.8792 24.5942 40.3533 23.4247C40.3533 23.4247 38.458 20.4294 35.7431 20.4982C34.695 20.5204 33.6703 20.8139 32.7673 21.3505C31.8642 21.8871 31.1132 22.6488 30.5864 23.5624Z" fill="url(#paint85_linear)"/>
<path d="M41.7133 13.6227C44.2659 12.5326 47.0766 12.2098 49.8069 12.6931C47.0386 12.2605 44.2051 12.6617 41.6621 13.8464C41.867 14.1563 42.9598 15.4646 46.2895 15.1892C48.1012 14.9121 49.8025 14.1379 51.2071 12.9513C50.7058 12.194 50.0353 11.5659 49.2494 11.1174C48.4635 10.6689 47.5842 10.4126 46.6822 10.3691C45.6532 10.4606 44.6623 10.805 43.796 11.3723C42.9297 11.9395 42.2146 12.7122 41.7133 13.6227Z" fill="url(#paint86_linear)"/>
<path d="M48.3974 8.51645C51.009 7.81297 53.7705 7.92096 56.3202 8.8263C53.7067 8.00765 50.9084 8.00765 48.2949 8.8263C48.4315 9.17059 49.2341 10.6855 52.4783 10.892C54.2943 10.8905 56.0718 10.3648 57.6008 9.37717C57.6008 9.37717 56.3373 6.24415 53.7589 6.072C52.7367 6.01905 51.7167 6.21329 50.784 6.63851C49.8514 7.06373 49.0331 7.70761 48.3974 8.51645Z" fill="url(#paint87_linear)"/>
<path d="M79.2627 137.979C76.7131 137.775 74.1765 137.431 71.6643 136.947C64.9613 135.703 58.4077 133.747 52.1134 131.111C43.1392 127.47 35.0026 122.009 28.2083 115.067C24.466 111.148 21.3187 106.693 18.8682 101.846C16.3691 96.8618 14.5977 91.5391 13.6091 86.0436C12.6418 80.5228 12.2754 74.9121 12.5163 69.3112C12.6981 63.8443 13.4653 58.4132 14.8043 53.1124C17.2146 43.4348 21.7029 34.4086 27.9521 26.6711C32.5713 21.021 37.8976 15.9984 43.7978 11.729C45.9663 10.1281 47.7251 8.94029 48.9203 8.13121L50.7986 6.89177C50.8642 6.84436 50.9129 6.77689 50.9375 6.69938C50.9621 6.62186 50.9613 6.53842 50.9352 6.46141C50.9096 6.4321 50.878 6.40863 50.8427 6.39255C50.8074 6.37648 50.7691 6.36816 50.7303 6.36816C50.6915 6.36816 50.6532 6.37648 50.6179 6.39255C50.5826 6.40863 50.551 6.4321 50.5254 6.46141L48.6471 7.68363C47.4348 8.49271 45.659 9.66329 43.5246 11.247C37.5111 15.5085 32.0751 20.5432 27.3545 26.2235C20.9313 34.0237 16.2699 43.1405 13.6945 52.9403C10.9027 63.8531 10.3968 75.2326 12.2089 86.3534C13.1673 91.9996 14.939 97.4743 17.468 102.604C19.9361 107.645 23.1358 112.286 26.9618 116.375C33.8945 123.564 42.2088 129.252 51.3962 133.091C57.8321 135.827 64.5332 137.881 71.3911 139.219C73.9874 139.742 76.6092 140.127 79.2457 140.372C79.3895 140.384 79.5341 140.366 79.6705 140.318C79.8069 140.271 79.9321 140.196 80.038 140.097C80.144 139.998 80.2284 139.878 80.286 139.745C80.3436 139.612 80.3731 139.468 80.3726 139.322C80.3737 139.02 80.262 138.728 80.0595 138.505C79.8571 138.281 79.5788 138.143 79.2798 138.117L79.2627 137.979Z" fill="url(#paint88_linear)"/>
<defs>
<linearGradient id="paint0_linear" x1="84.3922" y1="10.1875" x2="76.5976" y2="15.4993" gradientUnits="userSpaceOnUse">
<stop stop-color="#CDB185"/>
<stop offset="1" stop-color="#EBD3AE"/>
</linearGradient>
<linearGradient id="paint1_linear" x1="84.6209" y1="10.1875" x2="76.7167" y2="15.7945" gradientUnits="userSpaceOnUse">
<stop stop-color="#CDB185"/>
<stop offset="1" stop-color="#EBD3AE"/>
</linearGradient>
<linearGradient id="paint2_linear" x1="84.2308" y1="6.79102" x2="82.0349" y2="12.8396" gradientUnits="userSpaceOnUse">
<stop stop-color="#CDB185"/>
<stop offset="1" stop-color="#EBD3AE"/>
</linearGradient>
<linearGradient id="paint3_linear" x1="84.2308" y1="7.15527" x2="80.754" y2="14.4679" gradientUnits="userSpaceOnUse">
<stop stop-color="#CDB185"/>
<stop offset="1" stop-color="#EBD3AE"/>
</linearGradient>
<linearGradient id="paint4_linear" x1="87.0278" y1="-3.51516e-08" x2="82.1899" y2="1.20873" gradientUnits="userSpaceOnUse">
<stop stop-color="#CDB185"/>
<stop offset="1" stop-color="#EBD3AE"/>
</linearGradient>
<linearGradient id="paint5_linear" x1="84.5316" y1="-3.51516e-08" x2="79.6938" y2="1.20871" gradientUnits="userSpaceOnUse">
<stop stop-color="#CDB185"/>
<stop offset="1" stop-color="#EBD3AE"/>
</linearGradient>
<linearGradient id="paint6_linear" x1="93.7956" y1="6.91406" x2="90.0336" y2="14.4081" gradientUnits="userSpaceOnUse">
<stop stop-color="#CDB185"/>
<stop offset="1" stop-color="#EBD3AE"/>
</linearGradient>
<linearGradient id="paint7_linear" x1="93.7956" y1="6.73242" x2="91.5252" y2="12.8382" gradientUnits="userSpaceOnUse">
<stop stop-color="#CDB185"/>
<stop offset="1" stop-color="#EBD3AE"/>
</linearGradient>
<linearGradient id="paint8_linear" x1="90.4464" y1="10.1875" x2="82.6381" y2="15.8041" gradientUnits="userSpaceOnUse">
<stop stop-color="#CDB185"/>
<stop offset="1" stop-color="#EBD3AE"/>
</linearGradient>
<linearGradient id="paint9_linear" x1="90.4464" y1="10.1875" x2="82.6381" y2="15.8041" gradientUnits="userSpaceOnUse">
<stop stop-color="#CDB185"/>
<stop offset="1" stop-color="#EBD3AE"/>
</linearGradient>
<linearGradient id="paint10_linear" x1="84.3922" y1="10.1875" x2="76.5976" y2="15.4993" gradientUnits="userSpaceOnUse">
<stop stop-color="#CDB185"/>
<stop offset="1" stop-color="#EBD3AE"/>
</linearGradient>
<linearGradient id="paint11_linear" x1="84.2308" y1="7.15527" x2="82.4174" y2="12.7146" gradientUnits="userSpaceOnUse">
<stop stop-color="#CDB185"/>
<stop offset="1" stop-color="#EBD3AE"/>
</linearGradient>
<linearGradient id="paint12_linear" x1="84.7078" y1="-3.51516e-08" x2="84.3074" y2="0.00779375" gradientUnits="userSpaceOnUse">
<stop stop-color="#CDB185"/>
<stop offset="1" stop-color="#EBD3AE"/>
</linearGradient>
<linearGradient id="paint13_linear" x1="93.7956" y1="6.91406" x2="91.6831" y2="12.832" gradientUnits="userSpaceOnUse">
<stop stop-color="#CDB185"/>
<stop offset="1" stop-color="#EBD3AE"/>
</linearGradient>
<linearGradient id="paint14_linear" x1="90.4464" y1="10.1875" x2="82.6381" y2="15.8041" gradientUnits="userSpaceOnUse">
<stop stop-color="#CDB185"/>
<stop offset="1" stop-color="#EBD3AE"/>
</linearGradient>
<linearGradient id="paint15_linear" x1="109.044" y1="138.99" x2="94.1082" y2="151.746" gradientUnits="userSpaceOnUse">
<stop stop-color="#CDB185"/>
<stop offset="1" stop-color="#EBD3AE"/>
</linearGradient>
<linearGradient id="paint16_linear" x1="120.432" y1="136.142" x2="108.512" y2="148.697" gradientUnits="userSpaceOnUse">
<stop stop-color="#CDB185"/>
<stop offset="1" stop-color="#EBD3AE"/>
</linearGradient>
<linearGradient id="paint17_linear" x1="131.916" y1="131.166" x2="122.667" y2="144.23" gradientUnits="userSpaceOnUse">
<stop stop-color="#CDB185"/>
<stop offset="1" stop-color="#EBD3AE"/>
</linearGradient>
<linearGradient id="paint18_linear" x1="143.164" y1="125.163" x2="135.285" y2="138.367" gradientUnits="userSpaceOnUse">
<stop stop-color="#CDB185"/>
<stop offset="1" stop-color="#EBD3AE"/>
</linearGradient>
<linearGradient id="paint19_linear" x1="152.871" y1="117.22" x2="145.695" y2="130.342" gradientUnits="userSpaceOnUse">
<stop stop-color="#CDB185"/>
<stop offset="1" stop-color="#EBD3AE"/>
</linearGradient>
<linearGradient id="paint20_linear" x1="160.012" y1="109.459" x2="153.282" y2="122.073" gradientUnits="userSpaceOnUse">
<stop stop-color="#CDB185"/>
<stop offset="1" stop-color="#EBD3AE"/>
</linearGradient>
<linearGradient id="paint21_linear" x1="165.535" y1="99.5723" x2="158.614" y2="112.23" gradientUnits="userSpaceOnUse">
<stop stop-color="#CDB185"/>
<stop offset="1" stop-color="#EBD3AE"/>
</linearGradient>
<linearGradient id="paint22_linear" x1="168.185" y1="89.5674" x2="160.984" y2="101.407" gradientUnits="userSpaceOnUse">
<stop stop-color="#CDB185"/>
<stop offset="1" stop-color="#EBD3AE"/>
</linearGradient>
<linearGradient id="paint23_linear" x1="168.949" y1="79.3174" x2="161.8" y2="90.2702" gradientUnits="userSpaceOnUse">
<stop stop-color="#CDB185"/>
<stop offset="1" stop-color="#EBD3AE"/>
</linearGradient>
<linearGradient id="paint24_linear" x1="168.694" y1="68.2812" x2="160.355" y2="78.9706" gradientUnits="userSpaceOnUse">
<stop stop-color="#CDB185"/>
<stop offset="1" stop-color="#EBD3AE"/>
</linearGradient>
<linearGradient id="paint25_linear" x1="166.651" y1="55.791" x2="156.337" y2="64.5638" gradientUnits="userSpaceOnUse">
<stop stop-color="#CDB185"/>
<stop offset="1" stop-color="#EBD3AE"/>
</linearGradient>
<linearGradient id="paint26_linear" x1="162.649" y1="45.6631" x2="152.327" y2="51.8429" gradientUnits="userSpaceOnUse">
<stop stop-color="#CDB185"/>
<stop offset="1" stop-color="#EBD3AE"/>
</linearGradient>
<linearGradient id="paint27_linear" x1="158.68" y1="36.2637" x2="149.286" y2="41.4798" gradientUnits="userSpaceOnUse">
<stop stop-color="#CDB185"/>
<stop offset="1" stop-color="#EBD3AE"/>
</linearGradient>
<linearGradient id="paint28_linear" x1="154.63" y1="28.0166" x2="145.292" y2="32.9046" gradientUnits="userSpaceOnUse">
<stop stop-color="#CDB185"/>
<stop offset="1" stop-color="#EBD3AE"/>
</linearGradient>
<linearGradient id="paint29_linear" x1="147.958" y1="19.3447" x2="139.223" y2="23.7158" gradientUnits="userSpaceOnUse">
<stop stop-color="#CDB185"/>
<stop offset="1" stop-color="#EBD3AE"/>
</linearGradient>
<linearGradient id="paint30_linear" x1="137.411" y1="8.6709" x2="129.358" y2="12.6673" gradientUnits="userSpaceOnUse">
<stop stop-color="#CDB185"/>
<stop offset="1" stop-color="#EBD3AE"/>
</linearGradient>
<linearGradient id="paint31_linear" x1="142.666" y1="14.0078" x2="134.647" y2="18.0277" gradientUnits="userSpaceOnUse">
<stop stop-color="#CDB185"/>
<stop offset="1" stop-color="#EBD3AE"/>
</linearGradient>
<linearGradient id="paint32_linear" x1="131.156" y1="4.42676" x2="123.324" y2="8.48051" gradientUnits="userSpaceOnUse">
<stop stop-color="#CDB185"/>
<stop offset="1" stop-color="#EBD3AE"/>
</linearGradient>
<linearGradient id="paint33_linear" x1="124.416" y1="-3.26578e-08" x2="116.379" y2="4.38496" gradientUnits="userSpaceOnUse">
<stop stop-color="#CDB185"/>
<stop offset="1" stop-color="#EBD3AE"/>
</linearGradient>
<linearGradient id="paint34_linear" x1="105.18" y1="120.01" x2="89.0737" y2="129.422" gradientUnits="userSpaceOnUse">
<stop stop-color="#CDB185"/>
<stop offset="1" stop-color="#EBD3AE"/>
</linearGradient>
<linearGradient id="paint35_linear" x1="116.231" y1="118.918" x2="101.902" y2="128.166" gradientUnits="userSpaceOnUse">
<stop stop-color="#CDB185"/>
<stop offset="1" stop-color="#EBD3AE"/>
</linearGradient>
<linearGradient id="paint36_linear" x1="126.478" y1="115.583" x2="112.95" y2="123.808" gradientUnits="userSpaceOnUse">
<stop stop-color="#CDB185"/>
<stop offset="1" stop-color="#EBD3AE"/>
</linearGradient>
<linearGradient id="paint37_linear" x1="137.909" y1="107.699" x2="124.579" y2="114.779" gradientUnits="userSpaceOnUse">
<stop stop-color="#CDB185"/>
<stop offset="1" stop-color="#EBD3AE"/>
</linearGradient>
<linearGradient id="paint38_linear" x1="146.159" y1="98.2402" x2="133.1" y2="104.662" gradientUnits="userSpaceOnUse">
<stop stop-color="#CDB185"/>
<stop offset="1" stop-color="#EBD3AE"/>
</linearGradient>
<linearGradient id="paint39_linear" x1="152.477" y1="88.6572" x2="139.661" y2="96.1575" gradientUnits="userSpaceOnUse">
<stop stop-color="#CDB185"/>
<stop offset="1" stop-color="#EBD3AE"/>
</linearGradient>
<linearGradient id="paint40_linear" x1="155.888" y1="78.1045" x2="143.611" y2="88.4142" gradientUnits="userSpaceOnUse">
<stop stop-color="#CDB185"/>
<stop offset="1" stop-color="#EBD3AE"/>
</linearGradient>
<linearGradient id="paint41_linear" x1="157.374" y1="68.4043" x2="146.802" y2="79.1879" gradientUnits="userSpaceOnUse">
<stop stop-color="#CDB185"/>
<stop offset="1" stop-color="#EBD3AE"/>
</linearGradient>
<linearGradient id="paint42_linear" x1="155.919" y1="51.2412" x2="146.76" y2="61.8866" gradientUnits="userSpaceOnUse">
<stop stop-color="#CDB185"/>
<stop offset="1" stop-color="#EBD3AE"/>
</linearGradient>
<linearGradient id="paint43_linear" x1="157.031" y1="60.0352" x2="148.001" y2="70.6726" gradientUnits="userSpaceOnUse">
<stop stop-color="#CDB185"/>
<stop offset="1" stop-color="#EBD3AE"/>
</linearGradient>
<linearGradient id="paint44_linear" x1="153.68" y1="42.6914" x2="146.329" y2="53.2773" gradientUnits="userSpaceOnUse">
<stop stop-color="#CDB185"/>
<stop offset="1" stop-color="#EBD3AE"/>
</linearGradient>
<linearGradient id="paint45_linear" x1="150.109" y1="34.3838" x2="143.935" y2="44.162" gradientUnits="userSpaceOnUse">
<stop stop-color="#CDB185"/>
<stop offset="1" stop-color="#EBD3AE"/>
</linearGradient>
<linearGradient id="paint46_linear" x1="145.586" y1="26.7441" x2="139.66" y2="35.885" gradientUnits="userSpaceOnUse">
<stop stop-color="#CDB185"/>
<stop offset="1" stop-color="#EBD3AE"/>
</linearGradient>
<linearGradient id="paint47_linear" x1="133.684" y1="14.8574" x2="129.171" y2="23.2239" gradientUnits="userSpaceOnUse">
<stop stop-color="#CDB185"/>
<stop offset="1" stop-color="#EBD3AE"/>
</linearGradient>
<linearGradient id="paint48_linear" x1="139.035" y1="20.5557" x2="134.908" y2="28.4406" gradientUnits="userSpaceOnUse">
<stop stop-color="#CDB185"/>
<stop offset="1" stop-color="#EBD3AE"/>
</linearGradient>
<linearGradient id="paint49_linear" x1="127.907" y1="10.3691" x2="123.907" y2="18.0608" gradientUnits="userSpaceOnUse">
<stop stop-color="#CDB185"/>
<stop offset="1" stop-color="#EBD3AE"/>
</linearGradient>
<linearGradient id="paint50_linear" x1="121.297" y1="6.06348" x2="117.237" y2="13.637" gradientUnits="userSpaceOnUse">
<stop stop-color="#CDB185"/>
<stop offset="1" stop-color="#EBD3AE"/>
</linearGradient>
<linearGradient id="paint51_linear" x1="155.887" y1="6.36816" x2="47.6526" y2="60.508" gradientUnits="userSpaceOnUse">
<stop stop-color="#CDB185"/>
<stop offset="1" stop-color="#EBD3AE"/>
</linearGradient>
<linearGradient id="paint52_linear" x1="73.013" y1="138.99" x2="58.0769" y2="151.746" gradientUnits="userSpaceOnUse">
<stop stop-color="#CDB185"/>
<stop offset="1" stop-color="#EBD3AE"/>
</linearGradient>
<linearGradient id="paint53_linear" x1="61.2583" y1="136.142" x2="49.3383" y2="148.697" gradientUnits="userSpaceOnUse">
<stop stop-color="#CDB185"/>
<stop offset="1" stop-color="#EBD3AE"/>
</linearGradient>
<linearGradient id="paint54_linear" x1="51.0271" y1="131.166" x2="41.7779" y2="144.23" gradientUnits="userSpaceOnUse">
<stop stop-color="#CDB185"/>
<stop offset="1" stop-color="#EBD3AE"/>
</linearGradient>
<linearGradient id="paint55_linear" x1="40.8458" y1="125.163" x2="32.9665" y2="138.367" gradientUnits="userSpaceOnUse">
<stop stop-color="#CDB185"/>
<stop offset="1" stop-color="#EBD3AE"/>
</linearGradient>
<linearGradient id="paint56_linear" x1="31.7719" y1="117.22" x2="24.6139" y2="130.34" gradientUnits="userSpaceOnUse">
<stop stop-color="#CDB185"/>
<stop offset="1" stop-color="#EBD3AE"/>
</linearGradient>
<linearGradient id="paint57_linear" x1="24.1916" y1="109.459" x2="17.4613" y2="122.073" gradientUnits="userSpaceOnUse">
<stop stop-color="#CDB185"/>
<stop offset="1" stop-color="#EBD3AE"/>
</linearGradient>
<linearGradient id="paint58_linear" x1="18.5113" y1="99.5723" x2="11.5902" y2="112.23" gradientUnits="userSpaceOnUse">
<stop stop-color="#CDB185"/>
<stop offset="1" stop-color="#EBD3AE"/>
</linearGradient>
<linearGradient id="paint59_linear" x1="14.2811" y1="89.5674" x2="7.08455" y2="101.415" gradientUnits="userSpaceOnUse">
<stop stop-color="#CDB185"/>
<stop offset="1" stop-color="#EBD3AE"/>
</linearGradient>
<linearGradient id="paint60_linear" x1="12.315" y1="79.3174" x2="5.16248" y2="90.2611" gradientUnits="userSpaceOnUse">
<stop stop-color="#CDB185"/>
<stop offset="1" stop-color="#EBD3AE"/>
</linearGradient>
<linearGradient id="paint61_linear" x1="11.5913" y1="68.2812" x2="3.25457" y2="78.9787" gradientUnits="userSpaceOnUse">
<stop stop-color="#CDB185"/>
<stop offset="1" stop-color="#EBD3AE"/>
</linearGradient>
<linearGradient id="paint62_linear" x1="11.6487" y1="55.791" x2="1.33532" y2="64.5638" gradientUnits="userSpaceOnUse">
<stop stop-color="#CDB185"/>
<stop offset="1" stop-color="#EBD3AE"/>
</linearGradient>
<linearGradient id="paint63_linear" x1="13.9176" y1="45.6631" x2="3.57937" y2="51.8725" gradientUnits="userSpaceOnUse">
<stop stop-color="#CDB185"/>
<stop offset="1" stop-color="#EBD3AE"/>
</linearGradient>
<linearGradient id="paint64_linear" x1="16.9916" y1="36.2637" x2="7.59343" y2="41.4858" gradientUnits="userSpaceOnUse">
<stop stop-color="#CDB185"/>
<stop offset="1" stop-color="#EBD3AE"/>
</linearGradient>
<linearGradient id="paint65_linear" x1="20.9247" y1="28.0166" x2="11.5979" y2="32.8887" gradientUnits="userSpaceOnUse">
<stop stop-color="#CDB185"/>
<stop offset="1" stop-color="#EBD3AE"/>
</linearGradient>
<linearGradient id="paint66_linear" x1="27.1373" y1="19.3447" x2="18.4032" y2="23.7158" gradientUnits="userSpaceOnUse">
<stop stop-color="#CDB185"/>
<stop offset="1" stop-color="#EBD3AE"/>
</linearGradient>
<linearGradient id="paint67_linear" x1="37.2743" y1="8.6709" x2="29.221" y2="12.6673" gradientUnits="userSpaceOnUse">
<stop stop-color="#CDB185"/>
<stop offset="1" stop-color="#EBD3AE"/>
</linearGradient>
<linearGradient id="paint68_linear" x1="31.9455" y1="14.0078" x2="23.9242" y2="18.0309" gradientUnits="userSpaceOnUse">
<stop stop-color="#CDB185"/>
<stop offset="1" stop-color="#EBD3AE"/>
</linearGradient>
<linearGradient id="paint69_linear" x1="43.408" y1="4.42676" x2="35.6074" y2="8.43755" gradientUnits="userSpaceOnUse">
<stop stop-color="#CDB185"/>
<stop offset="1" stop-color="#EBD3AE"/>
</linearGradient>
<linearGradient id="paint70_linear" x1="50.4507" y1="-3.26578e-08" x2="42.4145" y2="4.38494" gradientUnits="userSpaceOnUse">
<stop stop-color="#CDB185"/>
<stop offset="1" stop-color="#EBD3AE"/>
</linearGradient>
<linearGradient id="paint71_linear" x1="74.9076" y1="120.01" x2="58.7627" y2="129.49" gradientUnits="userSpaceOnUse">
<stop stop-color="#CDB185"/>
<stop offset="1" stop-color="#EBD3AE"/>
</linearGradient>
<linearGradient id="paint72_linear" x1="63.2995" y1="118.918" x2="48.9786" y2="128.148" gradientUnits="userSpaceOnUse">
<stop stop-color="#CDB185"/>
<stop offset="1" stop-color="#EBD3AE"/>
</linearGradient>
<linearGradient id="paint73_linear" x1="52.1679" y1="115.583" x2="38.6396" y2="123.808" gradientUnits="userSpaceOnUse">
<stop stop-color="#CDB185"/>
<stop offset="1" stop-color="#EBD3AE"/>
</linearGradient>
<linearGradient id="paint74_linear" x1="40.0723" y1="107.699" x2="26.7357" y2="114.788" gradientUnits="userSpaceOnUse">
<stop stop-color="#CDB185"/>
<stop offset="1" stop-color="#EBD3AE"/>
</linearGradient>
<linearGradient id="paint75_linear" x1="31.407" y1="98.2402" x2="18.3618" y2="104.644" gradientUnits="userSpaceOnUse">
<stop stop-color="#CDB185"/>
<stop offset="1" stop-color="#EBD3AE"/>
</linearGradient>
<linearGradient id="paint76_linear" x1="25.5477" y1="88.5957" x2="12.6919" y2="96.0948" gradientUnits="userSpaceOnUse">
<stop stop-color="#CDB185"/>
<stop offset="1" stop-color="#EBD3AE"/>
</linearGradient>
<linearGradient id="paint77_linear" x1="23.8884" y1="78.1045" x2="11.6109" y2="88.4141" gradientUnits="userSpaceOnUse">
<stop stop-color="#CDB185"/>
<stop offset="1" stop-color="#EBD3AE"/>
</linearGradient>
<linearGradient id="paint78_linear" x1="22.6981" y1="68.4043" x2="12.1257" y2="79.1819" gradientUnits="userSpaceOnUse">
<stop stop-color="#CDB185"/>
<stop offset="1" stop-color="#EBD3AE"/>
</linearGradient>
<linearGradient id="paint79_linear" x1="24.1131" y1="51.2412" x2="14.9561" y2="61.9006" gradientUnits="userSpaceOnUse">
<stop stop-color="#CDB185"/>
<stop offset="1" stop-color="#EBD3AE"/>
</linearGradient>
<linearGradient id="paint80_linear" x1="23.0573" y1="60.0352" x2="14.0291" y2="70.6832" gradientUnits="userSpaceOnUse">
<stop stop-color="#CDB185"/>
<stop offset="1" stop-color="#EBD3AE"/>
</linearGradient>
<linearGradient id="paint81_linear" x1="26.8405" y1="42.6914" x2="19.4819" y2="53.2569" gradientUnits="userSpaceOnUse">
<stop stop-color="#CDB185"/>
<stop offset="1" stop-color="#EBD3AE"/>
</linearGradient>
<linearGradient id="paint82_linear" x1="30.018" y1="34.3838" x2="23.8483" y2="44.1705" gradientUnits="userSpaceOnUse">
<stop stop-color="#CDB185"/>
<stop offset="1" stop-color="#EBD3AE"/>
</linearGradient>
<linearGradient id="paint83_linear" x1="33.8391" y1="26.7441" x2="27.9532" y2="35.9738" gradientUnits="userSpaceOnUse">
<stop stop-color="#CDB185"/>
<stop offset="1" stop-color="#EBD3AE"/>
</linearGradient>
<linearGradient id="paint84_linear" x1="45.6601" y1="14.8574" x2="41.1479" y2="23.2239" gradientUnits="userSpaceOnUse">
<stop stop-color="#CDB185"/>
<stop offset="1" stop-color="#EBD3AE"/>
</linearGradient>
<linearGradient id="paint85_linear" x1="39.9294" y1="20.4971" x2="35.8021" y2="28.382" gradientUnits="userSpaceOnUse">
<stop stop-color="#CDB185"/>
<stop offset="1" stop-color="#EBD3AE"/>
</linearGradient>
<linearGradient id="paint86_linear" x1="50.7949" y1="10.3691" x2="46.7562" y2="18.0528" gradientUnits="userSpaceOnUse">
<stop stop-color="#CDB185"/>
<stop offset="1" stop-color="#EBD3AE"/>
</linearGradient>
<linearGradient id="paint87_linear" x1="57.199" y1="6.06348" x2="53.141" y2="13.6362" gradientUnits="userSpaceOnUse">
<stop stop-color="#CDB185"/>
<stop offset="1" stop-color="#EBD3AE"/>
</linearGradient>
<linearGradient id="paint88_linear" x1="77.3832" y1="6.36816" x2="-30.8513" y2="60.508" gradientUnits="userSpaceOnUse">
<stop stop-color="#CDB185"/>
<stop offset="1" stop-color="#EBD3AE"/>
</linearGradient>
</defs>
</svg>
