<svg width="12" height="12" viewBox="0 0 12 12" fill="none" xmlns="http://www.w3.org/2000/svg">
<path d="M9.32696 5.65137C8.69693 5.65137 8.1875 6.16326 8.1875 6.79082C8.1875 6.94095 8.31055 7.064 8.46067 7.064C8.6108 7.064 8.73385 6.94095 8.73385 6.79082C8.73385 6.46351 9.0021 6.19525 9.32942 6.19525C9.47954 6.19525 9.60259 6.0722 9.60259 5.92208C9.60013 5.77196 9.47708 5.65137 9.32696 5.65137Z" fill="white"/>
<path d="M11.1854 4.8663C11.1189 4.80231 11.0476 4.74078 10.9737 4.68172L9.9647 3.82528C9.57586 3.54965 9.11319 3.37491 8.61114 3.34046L8.66528 3.3946L8.05249 2.77935H8.04756C7.87775 2.6243 7.64888 2.52832 7.40031 2.52832C6.97209 2.52832 6.61032 2.80642 6.48727 3.1928C6.36422 3.11405 6.22148 3.06729 6.06644 3.05744C6.04183 3.05498 6.01475 3.05498 5.99014 3.05498C5.81541 3.05498 5.65298 3.10666 5.51517 3.1928C5.38965 2.80888 5.02788 2.53078 4.60212 2.53078C4.35356 2.53078 4.12714 2.6243 3.95487 2.78181H3.94995L3.33716 3.39706L3.3913 3.34292C2.88925 3.37738 2.42411 3.55457 2.03773 3.82774L1.02871 4.68418C0.954879 4.74079 0.883509 4.80231 0.817062 4.86876C0.312551 5.35604 0 6.03775 0 6.79328C0 8.2699 1.20098 9.47088 2.6776 9.47088C4.04101 9.47088 5.17062 8.44463 5.33305 7.12306C5.52993 7.23627 5.75881 7.30025 5.99999 7.30025C6.24363 7.30025 6.47004 7.23627 6.66693 7.12306C6.83182 8.44217 7.95897 9.46842 9.32238 9.46842C10.799 9.46842 12 8.26744 12 6.79082C12.0024 6.03529 11.6899 5.35358 11.1854 4.8663ZM2.6776 8.61937C1.66858 8.61937 0.851516 7.8023 0.851516 6.79328C0.851516 5.78426 1.66858 4.9672 2.6776 4.9672C3.68662 4.9672 4.50368 5.78426 4.50368 6.79328C4.50614 7.79984 3.68662 8.61937 2.6776 8.61937ZM6.00245 6.54226C5.67513 6.54226 5.40934 6.27647 5.40934 5.94915C5.40934 5.62183 5.67513 5.35604 6.00245 5.35604C6.32977 5.35604 6.59556 5.62183 6.59556 5.94915C6.59556 6.27647 6.32977 6.54226 6.00245 6.54226ZM9.3273 8.61937C8.31828 8.61937 7.50121 7.8023 7.50121 6.79328C7.50121 5.78426 8.31828 4.9672 9.3273 4.9672C10.3363 4.9672 11.1534 5.78426 11.1534 6.79328C11.1534 7.79984 10.3363 8.61937 9.3273 8.61937Z" fill="white"/>
<path d="M2.67657 5.65137C2.04654 5.65137 1.53711 6.16326 1.53711 6.79082C1.53711 6.94095 1.66016 7.064 1.81028 7.064C1.96041 7.064 2.08346 6.94095 2.08346 6.79082C2.08346 6.46351 2.35171 6.19525 2.67903 6.19525C2.82915 6.19525 2.9522 6.0722 2.9522 5.92208C2.94974 5.77196 2.82669 5.65137 2.67657 5.65137Z" fill="white"/>
</svg>
