<svg width="60" height="60" viewBox="0 0 60 60" fill="none" xmlns="http://www.w3.org/2000/svg">
<g clip-path="url(#clip0)">
<path d="M39.9317 13.1123C39.9277 13.1123 39.9236 13.1123 39.9195 13.1123C35.9487 13.1123 33.9048 12.1011 32.6836 11.4969C32.5069 11.4095 32.2987 11.3065 32.1576 11.2469C31.998 11.3442 31.74 11.5477 31.5399 11.7059C30.0164 12.9084 27.4668 14.9211 20.0254 14.9211H18.4082C19.2822 21.3248 24.0373 27.9141 29.9999 27.9141C36.5312 27.9141 41.6138 20.008 41.7334 13.0998L39.9317 13.1123Z" fill="url(#paint0_linear)"/>
<path d="M20.0247 11.4054C26.2456 11.4054 28.1204 9.92555 29.3609 8.94633C29.9702 8.46539 30.6003 7.96805 31.4817 7.76613C32.5674 7.51723 33.457 7.9575 34.242 8.34586C35.3084 8.87344 36.7682 9.59578 39.913 9.59672L41.4666 9.58594C41.0034 6.95062 39.9431 4.79391 38.2973 3.15047C36.2334 1.08938 33.3641 0 29.9993 0C26.6346 0 23.7651 1.08938 21.7012 3.15047C19.6912 5.15766 18.5546 7.93031 18.3125 11.4054H20.0247Z" fill="url(#paint1_linear)"/>
<path d="M40.3636 28.2198C40.3602 28.2164 40.3568 28.2131 40.3534 28.2097C39.8105 27.6727 38.9425 27.6515 38.3621 28.1477C37.7558 28.6661 37.1225 29.129 36.4646 29.5339C34.421 30.7918 32.2459 31.4297 29.9996 31.4297C27.7534 31.4297 25.5783 30.7919 23.5345 29.5339C22.8766 29.1289 22.2434 28.666 21.637 28.1476C21.0567 27.6514 20.1887 27.6726 19.6459 28.2096C19.6425 28.213 19.6391 28.2163 19.6357 28.2197C17.6807 30.1577 16.3097 32.7376 15.6211 35.742H44.3783C43.6896 32.7376 42.3186 30.1578 40.3636 28.2198Z" fill="url(#paint2_linear)"/>
<path d="M58.1925 56.4844H46.9922V41.0156C46.9922 40.0448 46.2052 39.2578 45.2344 39.2578H14.7656C13.7949 39.2578 13.0078 40.0448 13.0078 41.0156V56.4844H1.80752C0.860992 56.4844 0.0465386 57.2118 0.00200733 58.1572C-0.0455708 59.1667 0.758804 60 1.75783 60H58.2422C59.2412 60 60.0456 59.1667 59.998 58.1572C59.9535 57.2118 59.139 56.4844 58.1925 56.4844ZM30 45.1168C30.9708 45.1168 31.7578 45.9039 31.7578 46.8746C31.7578 47.8454 30.9708 48.6325 30 48.6325C29.0292 48.6325 28.2422 47.8454 28.2422 46.8746C28.2422 45.9039 29.0292 45.1168 30 45.1168Z" fill="url(#paint3_linear)"/>
</g>
<defs>
<linearGradient id="paint0_linear" x1="40.7262" y1="11.2469" x2="24.6512" y2="33.0298" gradientUnits="userSpaceOnUse">
<stop stop-color="#CDB185"/>
<stop offset="1" stop-color="#EBD3AE"/>
</linearGradient>
<linearGradient id="paint1_linear" x1="40.4668" y1="-3.93407e-08" x2="31.1621" y2="18.2903" gradientUnits="userSpaceOnUse">
<stop stop-color="#CDB185"/>
<stop offset="1" stop-color="#EBD3AE"/>
</linearGradient>
<linearGradient id="paint2_linear" x1="43.1365" y1="27.7905" x2="38.8984" y2="42.6319" gradientUnits="userSpaceOnUse">
<stop stop-color="#CDB185"/>
<stop offset="1" stop-color="#EBD3AE"/>
</linearGradient>
<linearGradient id="paint3_linear" x1="57.4091" y1="39.2578" x2="44.1497" y2="76.3957" gradientUnits="userSpaceOnUse">
<stop stop-color="#CDB185"/>
<stop offset="1" stop-color="#EBD3AE"/>
</linearGradient>
<clipPath id="clip0">
<rect width="60" height="60" fill="white"/>
</clipPath>
</defs>
</svg>
