<svg width="100" height="100" viewBox="0 0 100 100" fill="none" xmlns="http://www.w3.org/2000/svg">
<path d="M97.0703 0H2.92969C1.31172 0 0 1.31172 0 2.92969V97.0703C0 98.6883 1.31172 100 2.92969 100H97.0703C98.6883 100 100 98.6883 100 97.0703V2.92969C100 1.31172 98.6883 0 97.0703 0ZM60.4813 19.6854C61.026 19.1402 61.7818 18.8277 62.5516 18.8277C63.323 18.8277 64.0789 19.1402 64.6238 19.6854C65.1687 20.2322 65.483 20.9861 65.483 21.7574C65.483 22.5289 65.1687 23.283 64.6238 23.8297C64.0789 24.3746 63.323 24.6871 62.5516 24.6871C61.782 24.6871 61.026 24.3746 60.4813 23.8297C59.9342 23.2848 59.6219 22.5289 59.6219 21.7574C59.6219 20.9861 59.9342 20.2322 60.4813 19.6854ZM44.7896 19.6854C45.3346 19.1402 46.0904 18.8277 46.8619 18.8277C47.6334 18.8277 48.3873 19.1402 48.9342 19.6854C49.4791 20.2322 49.7916 20.9861 49.7916 21.7574C49.7916 22.5289 49.4791 23.2848 48.9342 23.8297C48.3871 24.3746 47.6334 24.6871 46.8619 24.6871C46.0904 24.6871 45.3346 24.3746 44.7896 23.8297C44.2447 23.2848 43.9322 22.5289 43.9322 21.7574C43.9324 20.9861 44.2447 20.2322 44.7896 19.6854ZM31.1719 37.6562H68.8281C70.4461 37.6562 71.7578 38.968 71.7578 40.5859C71.7578 42.2039 70.4461 43.5156 68.8281 43.5156H31.1719C29.5539 43.5156 28.2422 42.2039 28.2422 40.5859C28.2422 38.968 29.5537 37.6562 31.1719 37.6562ZM78.2422 81.1719H21.7578C20.1398 81.1719 18.8281 79.8602 18.8281 78.2422C18.8281 76.6242 20.1398 75.3125 21.7578 75.3125H78.2422C79.8602 75.3125 81.1719 76.6242 81.1719 78.2422C81.1719 79.8602 79.8602 81.1719 78.2422 81.1719ZM78.2422 62.3436H21.7578C20.1398 62.3436 18.8281 61.0318 18.8281 59.4139C18.8281 57.7959 20.1398 56.4842 21.7578 56.4842H78.2422C79.8602 56.4842 81.1719 57.7959 81.1719 59.4139C81.1719 61.0318 79.8602 62.3436 78.2422 62.3436ZM80.3131 23.8299C79.7684 24.3748 79.0125 24.6873 78.2428 24.6873C77.4713 24.6873 76.7154 24.3748 76.1705 23.8299C75.6256 23.285 75.3131 22.5291 75.3131 21.7576C75.3131 20.9863 75.6256 20.2322 76.1705 19.6855C76.7154 19.1404 77.4713 18.8279 78.2428 18.8279C79.0123 18.8279 79.7684 19.1404 80.3131 19.6855C80.8602 20.2324 81.1725 20.9863 81.1725 21.7576C81.1725 22.5291 80.8602 23.285 80.3131 23.8299Z" fill="url(#paint0_linear)"/>
<defs>
<linearGradient id="paint0_linear" x1="95.6818" y1="-3.44931e-07" x2="-5.19996" y2="97.681" gradientUnits="userSpaceOnUse">
<stop stop-color="#CDB185"/>
<stop offset="1" stop-color="#EBD3AE"/>
</linearGradient>
</defs>
</svg>
