<svg width="100" height="100" viewBox="0 0 100 100" fill="none" xmlns="http://www.w3.org/2000/svg">
<g clip-path="url(#clip0)">
<path d="M1.36313 50.1296C0.288168 50.5255 -0.265914 51.717 0.125674 52.7961L1.43403 56.396L11.396 46.4338L1.36313 50.1296Z" fill="url(#paint0_linear)"/>
<path d="M10.793 82.1287L16.7928 98.6281C16.9803 99.149 17.3718 99.5739 17.8718 99.803C18.1509 99.9321 18.4509 99.9989 18.7509 99.9989C18.9968 99.9989 19.2384 99.9573 19.4718 99.8698L26.0924 97.4283L10.793 82.1287Z" fill="url(#paint1_linear)"/>
<path d="M99.8717 68.0415L93.0053 49.1631L76.5268 65.6416L84.6931 62.6333C85.764 62.2249 86.9721 62.7833 87.368 63.8667C87.768 64.9457 87.2139 66.1457 86.1347 66.5416L75.76 70.3664C75.5225 70.4539 75.281 70.4955 75.0392 70.4955C74.1933 70.4955 73.3933 69.9747 73.0851 69.1331C73.081 69.1206 73.0851 69.1081 73.081 69.0956L55.6191 86.5575L98.6342 70.708C99.7133 70.3123 100.267 69.1206 99.8717 68.0415Z" fill="url(#paint2_linear)"/>
<path d="M99.3891 33.9428L66.0568 0.610574C65.2444 -0.201897 63.9235 -0.201897 63.1111 0.610574L0.61326 63.1084C-0.199212 63.9208 -0.199212 65.2417 0.61326 66.0542L33.9455 99.3864C34.3496 99.7948 34.883 99.9989 35.4163 99.9989C35.9497 99.9989 36.4829 99.7948 36.8913 99.3905L99.3891 36.8927C100.202 36.0761 100.202 34.7594 99.3891 33.9428ZM24.3917 57.7254L16.0586 66.0583C15.6502 66.4624 15.117 66.6666 14.5837 66.6666C14.0503 66.6666 13.5171 66.4626 13.1087 66.0583C12.2962 65.2458 12.2962 63.9249 13.1087 63.1125L21.4418 54.7794C22.2543 53.9669 23.5751 53.9669 24.3876 54.7794C25.2001 55.592 25.2042 56.9086 24.3917 57.7254ZM60.3695 60.371C58.8946 61.8459 56.8906 62.5543 54.6614 62.5543C50.9781 62.5543 46.6741 60.6253 43.0743 57.0211C40.441 54.3878 38.591 51.2379 37.8703 48.1548C37.0704 44.7174 37.7287 41.7259 39.7244 39.726C41.7202 37.7261 44.7117 37.0677 48.1532 37.872C51.2365 38.5928 54.3864 40.4385 57.0195 43.0759C62.807 48.8589 64.2819 56.4586 60.3695 60.371ZM86.8895 36.8927L78.5564 45.2258C78.148 45.6299 77.6148 45.8342 77.0815 45.8342C76.5481 45.8342 76.0149 45.6301 75.6065 45.2258C74.794 44.4133 74.794 43.0925 75.6065 42.28L83.9396 33.9469C84.7521 33.1344 86.0729 33.1344 86.8854 33.9469C87.6979 34.7594 87.702 36.0761 86.8895 36.8927Z" fill="url(#paint3_linear)"/>
</g>
<defs>
<linearGradient id="paint0_linear" x1="10.9039" y1="46.4338" x2="0.900973" y2="57.5134" gradientUnits="userSpaceOnUse">
<stop stop-color="#CDB185"/>
<stop offset="1" stop-color="#EBD3AE"/>
</linearGradient>
<linearGradient id="paint1_linear" x1="25.4318" y1="82.1287" x2="7.70724" y2="96.8219" gradientUnits="userSpaceOnUse">
<stop stop-color="#CDB185"/>
<stop offset="1" stop-color="#EBD3AE"/>
</linearGradient>
<linearGradient id="paint2_linear" x1="98.0831" y1="49.1631" x2="60.7012" y2="92.1209" gradientUnits="userSpaceOnUse">
<stop stop-color="#CDB185"/>
<stop offset="1" stop-color="#EBD3AE"/>
</linearGradient>
<linearGradient id="paint3_linear" x1="95.6805" y1="0.00122036" x2="-5.19883" y2="97.6768" gradientUnits="userSpaceOnUse">
<stop stop-color="#CDB185"/>
<stop offset="1" stop-color="#EBD3AE"/>
</linearGradient>
<clipPath id="clip0">
<rect width="100" height="100" fill="white"/>
</clipPath>
</defs>
</svg>
