<svg width="30" height="30" viewBox="0 0 30 30" fill="none" xmlns="http://www.w3.org/2000/svg">
<path d="M27.3214 12.3214H18.2143C17.9184 12.3214 17.6786 12.0816 17.6786 11.7857V2.67857C17.6786 1.19934 16.4792 0 15 0C13.5208 0 12.3214 1.19934 12.3214 2.67857V11.7857C12.3214 12.0816 12.0816 12.3214 11.7857 12.3214H2.67857C1.19934 12.3214 0 13.5208 0 15C0 16.4792 1.19934 17.6786 2.67857 17.6786H11.7857C12.0816 17.6786 12.3214 17.9184 12.3214 18.2143V27.3214C12.3214 28.8007 13.5208 30 15 30C16.4792 30 17.6786 28.8007 17.6786 27.3214V18.2143C17.6786 17.9184 17.9184 17.6786 18.2143 17.6786H27.3214C28.8007 17.6786 30 16.4792 30 15C30 13.5208 28.8007 12.3214 27.3214 12.3214Z" fill="url(#paint0_linear)"/>
<defs>
<linearGradient id="paint0_linear" x1="28.7045" y1="-1.03479e-07" x2="-1.55999" y2="29.3043" gradientUnits="userSpaceOnUse">
<stop stop-color="#CDB185"/>
<stop offset="1" stop-color="#EBD3AE"/>
</linearGradient>
</defs>
</svg>
