<svg width="30" height="30" viewBox="0 0 30 30" fill="none" xmlns="http://www.w3.org/2000/svg">
<path d="M26.9916 4.85985C25.4846 4.34189 24.2768 3.1279 23.7611 1.61133C23.4336 0.647507 22.5307 0 21.5154 0H8.4272C7.41165 0 6.50871 0.647507 6.18118 1.61133C5.66551 3.1279 4.45862 4.34189 2.95143 4.85985C1.99219 5.18921 1.34766 6.09467 1.34766 7.11227V10.423C1.34766 14.7434 2.64267 18.9036 5.09193 22.4533C7.33269 25.7014 10.4212 28.2433 14.0227 29.8043C14.3243 29.935 14.6478 30 14.9712 30C15.2948 30 15.6182 29.935 15.9194 29.8043C19.5213 28.2433 22.6099 25.7014 24.8506 22.4533C27.2999 18.9036 28.5949 14.7434 28.5949 10.423V7.11227C28.5949 6.09467 27.9504 5.18921 26.9916 4.85985ZM20.8225 18.5708C20.8225 20.7442 19.0542 22.5126 16.881 22.5126H13.0616C10.8884 22.5126 9.1198 20.7442 9.1198 18.5708V13.5123C9.1198 12.345 10.0692 11.3958 11.2363 11.3958H11.296V8.89252C11.296 6.86623 12.9449 5.21736 14.9712 5.21736C16.9975 5.21736 18.6463 6.86623 18.6463 8.89252V11.3958H18.7061C19.8734 11.3958 20.8225 12.345 20.8225 13.5123V18.5708Z" fill="url(#paint0_linear)"/>
<path d="M16.8891 8.89195C16.8891 7.83498 16.029 6.97461 14.9718 6.97461C13.9148 6.97461 13.0547 7.83498 13.0547 8.89195V11.3952H16.8891V8.89195Z" fill="url(#paint1_linear)"/>
<path d="M18.7054 13.1533H11.2356C11.0381 13.1533 10.877 13.3145 10.877 13.512V18.5705C10.877 19.7746 11.8568 20.7545 13.0609 20.7545H16.8803C18.0844 20.7545 19.0641 19.7746 19.0641 18.5705V13.512C19.0641 13.3145 18.9036 13.1533 18.7054 13.1533ZM15.8494 17.7843C15.8494 18.27 15.4557 18.6632 14.9705 18.6632C14.4855 18.6632 14.0916 18.27 14.0916 17.7843V16.1235C14.0916 15.6385 14.4855 15.2446 14.9705 15.2446C15.4557 15.2446 15.8494 15.6385 15.8494 16.1235V17.7843Z" fill="url(#paint2_linear)"/>
<defs>
<linearGradient id="paint0_linear" x1="27.4183" y1="-1.03479e-07" x2="-2.61372" y2="26.4109" gradientUnits="userSpaceOnUse">
<stop stop-color="#CDB185"/>
<stop offset="1" stop-color="#EBD3AE"/>
</linearGradient>
<linearGradient id="paint1_linear" x1="16.7236" y1="6.97461" x2="12.3287" y2="10.6658" gradientUnits="userSpaceOnUse">
<stop stop-color="#CDB185"/>
<stop offset="1" stop-color="#EBD3AE"/>
</linearGradient>
<linearGradient id="paint2_linear" x1="18.7105" y1="13.1533" x2="11.0451" y2="21.1477" gradientUnits="userSpaceOnUse">
<stop stop-color="#CDB185"/>
<stop offset="1" stop-color="#EBD3AE"/>
</linearGradient>
</defs>
</svg>
