<svg width="20" height="10" viewBox="0 0 20 10" fill="none" xmlns="http://www.w3.org/2000/svg">
<path d="M5.41688 9.61359C5.72125 9.30777 5.72008 8.81312 5.41426 8.50875L2.67355 5.78125L19.2188 5.78125C19.6502 5.78125 20 5.43148 20 5C20 4.56851 19.6502 4.21875 19.2188 4.21875L2.67352 4.21875L5.4143 1.49125C5.72012 1.18687 5.72129 0.692224 5.41691 0.386404C5.1125 0.0805447 4.61785 0.0794122 4.31203 0.383748L0.229843 4.44625C0.229571 4.44648 0.229376 4.44676 0.229141 4.44699C-0.0758989 4.75136 -0.0768755 5.24761 0.229101 5.55301C0.229374 5.55324 0.229571 5.55351 0.229805 5.55375L4.31199 9.61625C4.61777 9.92054 5.11246 9.91949 5.41688 9.61359Z" fill="#2B2928"/>
</svg>
