<svg width="59" height="29" viewBox="0 0 59 29" fill="none" xmlns="http://www.w3.org/2000/svg">
<path d="M58.324 12.8686C58.3233 12.8679 58.3228 12.8671 58.322 12.8664L46.2795 0.882055C45.3773 -0.0157359 43.9181 -0.0123949 43.0201 0.88989C42.1222 1.79206 42.1257 3.25127 43.0278 4.14918L51.1131 12.1953H2.30469C1.03181 12.1953 0 13.2271 0 14.5C0 15.7729 1.03181 16.8047 2.30469 16.8047H51.113L43.0279 24.8508C42.1258 25.7487 42.1223 27.2079 43.0202 28.1101C43.9182 29.0125 45.3776 29.0156 46.2796 28.1179L58.3221 16.1335C58.3228 16.1329 58.3233 16.1321 58.3242 16.1314C59.2268 15.2305 59.2239 13.7665 58.324 12.8686Z" fill="white"/>
</svg>
