<svg width="50" height="50" viewBox="0 0 50 50" fill="none" xmlns="http://www.w3.org/2000/svg">
<path d="M46.5426 21.8085H46.2766V19.1489C46.2766 16.0638 43.9894 13.5106 40.9574 13.0851V9.84041C40.9574 6.48935 38.1915 3.72339 34.8404 3.72339H6.48936C2.97872 3.72339 0.0531915 6.54254 0 10.1064V40.1596C0 43.5106 2.76596 46.2766 6.11702 46.2766H40.1596C43.5106 46.2766 46.2766 43.5106 46.2766 40.1596V37.234H46.5426C48.4574 37.234 50 35.6915 50 33.7766V25.2659C50 23.351 48.4574 21.8085 46.5426 21.8085ZM3.7234 10.2128C3.7234 8.6702 5 7.44679 6.48936 7.44679H34.7872C36.117 7.44679 37.1809 8.51062 37.1809 9.84041V13.0319H6.48936C5 13.0319 3.7234 11.7553 3.7234 10.2128ZM46.2766 33.5106H37.5C35.3191 33.5106 33.5106 31.7021 33.5106 29.5213C33.5106 27.3404 35.3191 25.5319 37.5 25.5319H46.2766V33.5106Z" fill="white"/>
<path d="M38.5639 32.1807C40.0327 32.1807 41.2235 30.99 41.2235 29.5211C41.2235 28.0523 40.0327 26.8616 38.5639 26.8616C37.095 26.8616 35.9043 28.0523 35.9043 29.5211C35.9043 30.99 37.095 32.1807 38.5639 32.1807Z" fill="white"/>
</svg>
