<svg width="100" height="100" viewBox="0 0 100 100" fill="none" xmlns="http://www.w3.org/2000/svg">
<path d="M89.2088 61.3777L78.1273 75.8689C75.91 78.7683 72.4684 80.4691 68.8184 80.4691H48.2422C46.6242 80.4691 45.3125 79.1574 45.3125 77.5394C45.3125 75.9214 46.6242 74.6097 48.2422 74.6097H66.076C69.909 74.6097 73.1189 71.4728 73.0457 67.6404C72.9746 63.9265 69.9418 60.9378 66.2109 60.9378H45.7031C39.815 55.2763 30.7287 54.6138 24.0816 59.3617L21.875 60.9378V94.141H41.4062H45.3125H72.825C78.8062 94.141 84.3769 91.0996 87.6113 86.0683L99.0447 68.283C99.6684 67.3128 99.9998 66.1841 99.9998 65.0308C100 59.2796 92.7021 56.8091 89.2088 61.3777Z" fill="url(#paint0_linear)"/>
<path d="M13.0859 55.0781H2.92969C1.31172 55.0781 0 56.3898 0 58.0078V97.0703C0 98.6883 1.31172 100 2.92969 100H13.0859C14.7039 100 16.0156 98.6883 16.0156 97.0703V58.0078C16.0156 56.3898 14.7039 55.0781 13.0859 55.0781Z" fill="url(#paint1_linear)"/>
<path d="M55.9202 16.1924C55.3242 16.6494 54.9956 17.3414 54.8827 17.9416C54.7267 18.7695 54.9242 19.5387 55.3861 19.9008C55.5488 20.0283 55.7281 20.1537 55.9202 20.277V16.1924Z" fill="url(#paint2_linear)"/>
<path d="M58.0078 48.8281C71.4697 48.8281 82.4219 37.876 82.4219 24.4141C82.4219 10.9521 71.4697 0 58.0078 0C44.5459 0 33.5938 10.9521 33.5938 24.4141C33.5938 37.876 44.5459 48.8281 58.0078 48.8281ZM50.6174 32.3963C51.2076 31.4939 52.4184 31.24 53.3211 31.8311C54.376 32.5211 55.0371 32.8203 55.9199 32.9443V24.6961C54.6725 24.1244 53.74 23.5742 52.975 22.974C51.3541 21.7027 50.6141 19.4973 51.0436 17.2178C51.5115 14.7338 53.2406 12.7574 55.5557 12.0602C55.6783 12.0232 55.7996 11.9895 55.9199 11.9576V10.7422C55.9199 9.66367 56.7945 8.78906 57.873 8.78906C58.9516 8.78906 59.8262 9.66367 59.8262 10.7422V11.7436C61.7225 12.0719 63.0627 13.0055 63.7119 13.7506C64.4205 14.5639 64.3354 15.7977 63.5221 16.5061C62.7131 17.2107 61.4883 17.1307 60.7777 16.3293C60.7332 16.2842 60.4229 15.9854 59.8262 15.7652V22.0762C60.1729 22.2049 60.5193 22.3297 60.8594 22.45C64.2926 23.6637 66.2021 26.8418 65.6111 30.3584C65.1516 33.0918 63.0715 35.8639 59.8262 36.6871V38.0859C59.8262 39.1645 58.9516 40.0391 57.873 40.0391C56.7945 40.0391 55.9199 39.1645 55.9199 38.0859V36.8746C54.343 36.7383 53.0357 36.3123 51.1826 35.1C50.2799 34.5094 50.027 33.299 50.6174 32.3963Z" fill="url(#paint3_linear)"/>
<path d="M61.759 29.7111C61.8873 28.9477 61.9399 27.1283 59.8262 26.2383V32.5119C60.9248 31.8826 61.5811 30.7697 61.759 29.7111Z" fill="url(#paint4_linear)"/>
<defs>
<linearGradient id="paint0_linear" x1="96.6262" y1="56.2012" x2="65.9342" y2="117.396" gradientUnits="userSpaceOnUse">
<stop stop-color="#CDB185"/>
<stop offset="1" stop-color="#EBD3AE"/>
</linearGradient>
<linearGradient id="paint1_linear" x1="15.324" y1="55.0781" x2="-12.6473" y2="64.7341" gradientUnits="userSpaceOnUse">
<stop stop-color="#CDB185"/>
<stop offset="1" stop-color="#EBD3AE"/>
</linearGradient>
<linearGradient id="paint2_linear" x1="55.8732" y1="16.1924" x2="53.8757" y2="16.7086" gradientUnits="userSpaceOnUse">
<stop stop-color="#CDB185"/>
<stop offset="1" stop-color="#EBD3AE"/>
</linearGradient>
<linearGradient id="paint3_linear" x1="80.3134" y1="-1.68423e-07" x2="31.0547" y2="47.6958" gradientUnits="userSpaceOnUse">
<stop stop-color="#CDB185"/>
<stop offset="1" stop-color="#EBD3AE"/>
</linearGradient>
<linearGradient id="paint4_linear" x1="61.7248" y1="26.2383" x2="58.1788" y2="27.3243" gradientUnits="userSpaceOnUse">
<stop stop-color="#CDB185"/>
<stop offset="1" stop-color="#EBD3AE"/>
</linearGradient>
</defs>
</svg>
