<svg width="100" height="100" viewBox="0 0 100 100" fill="none" xmlns="http://www.w3.org/2000/svg">
<path d="M52.1303 33.2091C51.6091 32.3062 50.6457 31.75 49.6031 31.75C48.5605 31.75 47.5971 32.3062 47.0759 33.2091L11.0414 95.6223C10.52 96.5252 10.52 97.6377 11.0414 98.5406C11.5626 99.4435 12.5261 99.9997 13.5686 99.9997H85.6372C86.6798 99.9997 87.6432 99.4435 88.1644 98.5406C88.6858 97.6377 88.6858 96.5252 88.1644 95.6223L52.1303 33.2091ZM49.6029 87.7956C47.837 87.7956 46.4004 86.3588 46.4004 84.5931C46.4004 82.8273 47.8372 81.3906 49.6029 81.3906C51.3687 81.3906 52.8054 82.8273 52.8054 84.5931C52.8054 86.3588 51.3689 87.7956 49.6029 87.7956ZM49.6029 56.243C51.2146 56.243 52.5212 57.5496 52.5212 59.1612V71.0755C52.5212 72.6872 51.2146 73.9938 49.6029 73.9938C47.9913 73.9938 46.6847 72.6872 46.6847 71.0755V59.1612C46.6847 57.5496 47.9913 56.243 49.6029 56.243Z" fill="url(#paint0_linear)"/>
<path d="M12.781 16.7124C4.64546 25.8386 0.195312 37.4791 0.195312 49.8049C0.195312 51.4165 1.50191 52.7231 3.11357 52.7231H23.399C25.0106 52.7231 26.3172 51.4165 26.3172 49.8049C26.3172 44.4621 28.0746 39.3896 31.3154 35.247L12.781 16.7124Z" fill="url(#paint1_linear)"/>
<path d="M83.093 12.5855C73.9668 4.45015 62.3264 0 50.0005 0C37.6745 0 26.0344 4.45015 16.9082 12.5855L35.4426 31.1201C39.5854 27.8791 44.6579 26.1217 50.0007 26.1217C55.3432 26.1217 60.4157 27.8791 64.5585 31.1201L83.093 12.5855Z" fill="url(#paint2_linear)"/>
<path d="M87.22 16.7124L68.6855 35.2469C71.9266 39.3894 73.6839 44.4619 73.6839 49.8049C73.6839 51.4165 74.9905 52.7231 76.6022 52.7231H96.8874C98.4991 52.7231 99.8057 51.4165 99.8057 49.8049C99.8055 37.4791 95.3555 25.8386 87.22 16.7124Z" fill="url(#paint3_linear)"/>
<defs>
<linearGradient id="paint0_linear" x1="85.1914" y1="31.75" x2="16.6476" y2="107.508" gradientUnits="userSpaceOnUse">
<stop stop-color="#CDB185"/>
<stop offset="1" stop-color="#EBD3AE"/>
</linearGradient>
<linearGradient id="paint1_linear" x1="29.9716" y1="16.7124" x2="-5.80594" y2="46.65" gradientUnits="userSpaceOnUse">
<stop stop-color="#CDB185"/>
<stop offset="1" stop-color="#EBD3AE"/>
</linearGradient>
<linearGradient id="paint2_linear" x1="80.235" y1="-1.07343e-07" x2="55.5495" y2="50.8342" gradientUnits="userSpaceOnUse">
<stop stop-color="#CDB185"/>
<stop offset="1" stop-color="#EBD3AE"/>
</linearGradient>
<linearGradient id="paint3_linear" x1="98.4618" y1="16.7124" x2="62.6843" y2="46.65" gradientUnits="userSpaceOnUse">
<stop stop-color="#CDB185"/>
<stop offset="1" stop-color="#EBD3AE"/>
</linearGradient>
</defs>
</svg>
