<svg width="100" height="100" viewBox="0 0 100 100" fill="none" xmlns="http://www.w3.org/2000/svg">
<g clip-path="url(#clip0)">
<path d="M35.9587 30.69C35.5714 30.0166 35.5714 29.1963 35.9587 28.5252L48.1237 7.45083C48.8964 6.11079 51.1002 6.11079 51.8728 7.45083L64.0398 28.5252C64.427 29.1962 64.427 30.0166 64.0398 30.69C63.6525 31.3609 62.9382 31.7723 62.1651 31.7723H37.8333C37.0603 31.7723 36.3462 31.3609 35.9587 30.69ZM20.774 61.319H79.2268C80.0018 61.319 80.716 60.9075 81.1014 60.2366C81.4889 59.5657 81.4889 58.7428 81.1014 58.0719L70.4864 39.6861C70.0991 39.0152 69.3848 38.6037 68.6117 38.6037H31.3936C30.6209 38.6037 29.9042 39.0152 29.5189 39.6861L18.9016 58.0719C18.5142 58.7428 18.5142 59.5657 18.9016 60.2366C19.2849 60.9053 19.9993 61.319 20.774 61.319ZM99.7107 90.307L87.5436 69.2345C87.1562 68.5636 86.442 68.1522 85.6688 68.1522H14.3323C13.5596 68.1522 12.8429 68.5636 12.4576 69.2345L0.290565 90.307C-0.0968549 90.9779 -0.0968549 91.8008 0.290565 92.4717C0.677984 93.1426 1.3922 93.5541 2.16524 93.5541H97.8358C98.6085 93.5541 99.3252 93.1426 99.7107 92.4717C100.095 91.8008 100.098 90.9761 99.7107 90.307Z" fill="url(#paint0_linear)"/>
</g>
<defs>
<linearGradient id="paint0_linear" x1="95.682" y1="6.4458" x2="8.24956" y2="103.634" gradientUnits="userSpaceOnUse">
<stop stop-color="#CDB185"/>
<stop offset="1" stop-color="#EBD3AE"/>
</linearGradient>
<clipPath id="clip0">
<rect width="100" height="100" fill="white"/>
</clipPath>
</defs>
</svg>
