<svg width="100" height="100" viewBox="0 0 100 100" fill="none" xmlns="http://www.w3.org/2000/svg">
<g clip-path="url(#clip0)">
<path d="M49.2872 48.1703C55.9049 48.1703 61.6353 45.7968 66.3175 41.1139C70.9997 36.4317 73.3732 30.7029 73.3732 24.0844C73.3732 17.4682 70.9997 11.7385 66.3167 7.05487C61.6338 2.3735 55.9041 0 49.2872 0C42.6687 0 36.9398 2.3735 32.2576 7.05564C27.5754 11.7378 25.2012 17.4674 25.2012 24.0844C25.2012 30.7029 27.5754 36.4325 32.2584 41.1146C36.9413 45.796 42.671 48.1703 49.2872 48.1703Z" fill="url(#paint0_linear)"/>
<path d="M91.4314 76.8948C91.2964 74.9462 91.0233 72.8207 90.6212 70.5761C90.2153 68.3148 89.6927 66.177 89.0671 64.2231C88.4209 62.2036 87.542 60.2093 86.4555 58.2982C85.3279 56.3145 84.0034 54.5873 82.5172 53.1659C80.9631 51.6789 79.0604 50.4834 76.86 49.6114C74.6674 48.7439 72.2374 48.3045 69.6381 48.3045C68.6172 48.3045 67.63 48.7233 65.7234 49.9646C64.55 50.7298 63.1775 51.6149 61.6455 52.5937C60.3355 53.4284 58.5609 54.2104 56.369 54.9184C54.2305 55.6104 52.0592 55.9613 49.9161 55.9613C47.773 55.9613 45.6024 55.6104 43.4616 54.9184C41.272 54.2111 39.4974 53.4291 38.1889 52.5945C36.6714 51.6248 35.2982 50.7398 34.1072 49.9639C32.2029 48.7226 31.2149 48.3037 30.1941 48.3037C27.594 48.3037 25.1648 48.7439 22.9729 49.6121C20.7741 50.4827 18.8705 51.6782 17.3149 53.1667C15.8295 54.5888 14.5042 56.3153 13.3781 58.2982C12.2925 60.2093 11.4136 62.2029 10.7666 64.2239C10.1418 66.1778 9.61914 68.3148 9.21326 70.5761C8.81119 72.8176 8.53806 74.9439 8.40302 76.897C8.27026 78.8105 8.20312 80.7964 8.20312 82.8022C8.20312 88.0222 9.86252 92.2481 13.1348 95.3647C16.3666 98.4401 20.6429 100 25.843 100H73.9937C79.1939 100 83.4686 98.4408 86.7012 95.3647C89.9742 92.2504 91.6336 88.0237 91.6336 82.8014C91.6328 80.7865 91.5649 78.799 91.4314 76.8948Z" fill="url(#paint1_linear)"/>
</g>
<defs>
<linearGradient id="paint0_linear" x1="71.293" y1="-1.66154e-07" x2="22.6979" y2="47.055" gradientUnits="userSpaceOnUse">
<stop stop-color="#CDB185"/>
<stop offset="1" stop-color="#EBD3AE"/>
</linearGradient>
<linearGradient id="paint1_linear" x1="88.0309" y1="48.3037" x2="40.6507" y2="122.342" gradientUnits="userSpaceOnUse">
<stop stop-color="#CDB185"/>
<stop offset="1" stop-color="#EBD3AE"/>
</linearGradient>
<clipPath id="clip0">
<rect width="100" height="100" fill="white"/>
</clipPath>
</defs>
</svg>
