<svg width="100" height="96" viewBox="0 0 100 96" fill="none" xmlns="http://www.w3.org/2000/svg">
<path d="M23.3687 18.2728L63.234 7.39131L61.1228 3.12404C59.7416 0.350318 56.3727 -0.795106 53.5989 0.586141L17.9111 18.2728H23.3687Z" fill="url(#paint0_linear)"/>
<path d="M75.6089 7.70557C75.1149 7.70557 74.6207 7.77294 74.1266 7.9077L64.7612 10.4681L36.1592 18.2727H68.6241H82.7734L81.0216 11.8493C80.3478 9.34509 78.0794 7.70557 75.6089 7.70557Z" fill="url(#paint1_linear)"/>
<path d="M88.6244 22.2031H87.3442H85.6036H83.863H70.5783H21.7631H15.3622H9.97193H8.97249H5.62605C3.85177 22.2031 2.26839 23.0229 1.23526 24.3143C0.763616 24.9095 0.404267 25.5945 0.202134 26.3469C0.0786075 26.8185 0 27.3126 0 27.8179V28.4917V34.8926V90.3783C0 93.4778 2.51544 95.9931 5.61482 95.9931H88.6131C91.7126 95.9931 94.228 93.4778 94.228 90.3783V74.7129H60.9096C55.6429 74.7129 51.3644 70.4344 51.3644 65.1677V60.0246V58.284V56.5434V52.6804C51.3644 50.0976 52.3974 47.7507 54.0708 46.0325C55.5531 44.5052 57.5407 43.4721 59.7642 43.2138C60.1348 43.169 60.5166 43.1464 60.8984 43.1464H89.5564H91.297H93.0376H94.228V27.8179C94.2392 24.7186 91.7238 22.2031 88.6244 22.2031Z" fill="url(#paint2_linear)"/>
<path d="M98.1697 48.5144C97.6082 47.9979 96.9457 47.6048 96.2045 47.3465C95.6317 47.1558 95.0254 47.0435 94.3853 47.0435H94.2394H94.1271H92.3865H86.1091H60.9098C57.8103 47.0435 55.2949 49.5588 55.2949 52.6583V55.4544V57.1949V58.9355V65.1568C55.2949 68.2561 57.8103 70.7716 60.9098 70.7716H94.2394H94.3853C95.0254 70.7716 95.6318 70.6593 96.2045 70.4684C96.9457 70.2213 97.6082 69.8171 98.1697 69.3005C99.2927 68.2786 100 66.7963 100 65.1569V52.6583C100 51.0186 99.2927 49.5362 98.1697 48.5144ZM72.6335 60.0248C72.6335 61.5745 71.3758 62.8322 69.8261 62.8322H67.962C66.4123 62.8322 65.1546 61.5745 65.1546 60.0248V58.1607C65.1546 57.2623 65.5701 56.4649 66.2326 55.9596C66.7155 55.589 67.3108 55.3533 67.962 55.3533H68.4336H69.8261C71.3758 55.3533 72.6335 56.6109 72.6335 58.1607V60.0248Z" fill="url(#paint3_linear)"/>
<defs>
<linearGradient id="paint0_linear" x1="61.2769" y1="-6.30287e-08" x2="48.1872" y2="31.4368" gradientUnits="userSpaceOnUse">
<stop stop-color="#CDB185"/>
<stop offset="1" stop-color="#EBD3AE"/>
</linearGradient>
<linearGradient id="paint1_linear" x1="80.7605" y1="7.70557" x2="76.0259" y2="27.9287" gradientUnits="userSpaceOnUse">
<stop stop-color="#CDB185"/>
<stop offset="1" stop-color="#EBD3AE"/>
</linearGradient>
<linearGradient id="paint2_linear" x1="90.1591" y1="22.2031" x2="17.3265" y2="112.258" gradientUnits="userSpaceOnUse">
<stop stop-color="#CDB185"/>
<stop offset="1" stop-color="#EBD3AE"/>
</linearGradient>
<linearGradient id="paint3_linear" x1="98.0697" y1="47.0435" x2="77.8797" y2="83.8757" gradientUnits="userSpaceOnUse">
<stop stop-color="#CDB185"/>
<stop offset="1" stop-color="#EBD3AE"/>
</linearGradient>
</defs>
</svg>
