<svg width="100" height="100" viewBox="0 0 100 100" fill="none" xmlns="http://www.w3.org/2000/svg">
<path d="M71.875 2.34375H56.25C54.9556 2.34375 53.9062 3.39308 53.9062 4.6875V9.375C53.9062 10.6694 54.9556 11.7188 56.25 11.7188H71.875C73.1694 11.7188 74.2188 10.6694 74.2188 9.375V4.6875C74.2188 3.39308 73.1694 2.34375 71.875 2.34375Z" fill="url(#paint0_linear)"/>
<path d="M26.5625 36.7188H10.9375C10.3159 36.7188 9.71976 36.9657 9.28022 37.4052C8.84068 37.8448 8.59375 38.4409 8.59375 39.0625C8.59375 39.6841 8.84068 40.2802 9.28022 40.7198C9.71976 41.1593 10.3159 41.4062 10.9375 41.4062H26.5625C27.1841 41.4062 27.7802 41.1593 28.2198 40.7198C28.6593 40.2802 28.9062 39.6841 28.9062 39.0625C28.9062 38.4409 28.6593 37.8448 28.2198 37.4052C27.7802 36.9657 27.1841 36.7188 26.5625 36.7188Z" fill="url(#paint1_linear)"/>
<path d="M25.7812 57.8125C25.7812 57.1909 25.5343 56.5948 25.0948 56.1552C24.6552 55.7157 24.0591 55.4688 23.4375 55.4688H7.8125C7.1909 55.4688 6.59476 55.7157 6.15522 56.1552C5.71568 56.5948 5.46875 57.1909 5.46875 57.8125C5.46875 58.4341 5.71568 59.0302 6.15522 59.4698C6.59476 59.9093 7.1909 60.1562 7.8125 60.1562H23.4375C24.0591 60.1562 24.6552 59.9093 25.0948 59.4698C25.5343 59.0302 25.7812 58.4341 25.7812 57.8125Z" fill="url(#paint2_linear)"/>
<path d="M25 64.8438H14.0625C13.4409 64.8438 12.8448 65.0907 12.4052 65.5302C11.9657 65.9698 11.7188 66.5659 11.7188 67.1875C11.7188 67.8091 11.9657 68.4052 12.4052 68.8448C12.8448 69.2843 13.4409 69.5312 14.0625 69.5312H25C25.6216 69.5312 26.2177 69.2843 26.6573 68.8448C27.0968 68.4052 27.3438 67.8091 27.3438 67.1875C27.3438 66.5659 27.0968 65.9698 26.6573 65.5302C26.2177 65.0907 25.6216 64.8438 25 64.8438Z" fill="url(#paint3_linear)"/>
<path d="M25.7812 48.4375C25.7812 47.8159 25.5343 47.2198 25.0948 46.7802C24.6552 46.3407 24.0591 46.0938 23.4375 46.0938H3.125C2.5034 46.0937 1.90726 46.3407 1.46772 46.7802C1.02818 47.2198 0.78125 47.8159 0.78125 48.4375C0.78125 49.0591 1.02818 49.6552 1.46772 50.0948C1.90726 50.5343 2.5034 50.7812 3.125 50.7812H23.4375C24.0591 50.7812 24.6552 50.5343 25.0948 50.0948C25.5343 49.6552 25.7812 49.0591 25.7812 48.4375Z" fill="url(#paint4_linear)"/>
<path d="M64.0625 53.125V26.5625C49.4158 26.5625 37.5 38.4783 37.5 53.125C37.5 67.7717 49.4158 79.6875 64.0625 79.6875C78.7092 79.6875 90.625 67.7717 90.625 53.125H64.0625Z" fill="url(#paint5_linear)"/>
<path d="M89.7692 29.1705L92.2822 26.6572C92.5028 26.4402 92.6782 26.1817 92.7983 25.8966C92.9185 25.6115 92.981 25.3054 92.9822 24.996C92.9835 24.6867 92.9235 24.3801 92.8057 24.094C92.6879 23.8079 92.5146 23.548 92.2958 23.3292C92.077 23.1104 91.8171 22.9372 91.531 22.8193C91.2449 22.7015 90.9384 22.6415 90.629 22.6428C90.3196 22.644 90.0135 22.7065 89.7284 22.8267C89.4433 22.9468 89.1848 23.1222 88.9678 23.3428L86.3522 25.9582C81.315 21.8087 75.2182 19.1496 68.75 18.2812V14.0625H59.375V18.2812C52.9069 19.1493 46.8102 21.8079 41.7729 25.957L39.1572 23.3416C38.9403 23.1211 38.6817 22.9457 38.3966 22.8255C38.1115 22.7054 37.8054 22.6429 37.4961 22.6416C37.1867 22.6403 36.8801 22.7004 36.594 22.8182C36.3079 22.936 36.048 23.1093 35.8292 23.3281C35.6105 23.5468 35.4372 23.8067 35.3193 24.0928C35.2015 24.3789 35.1415 24.6855 35.1428 24.9949C35.144 25.3043 35.2065 25.6103 35.3267 25.8955C35.4468 26.1806 35.6222 26.4391 35.8428 26.6561L38.3559 29.1693C32.2782 35.6648 28.8998 44.2295 28.9063 53.125C28.9063 72.5102 44.6774 88.2812 64.0625 88.2812C83.4477 88.2812 99.2188 72.5102 99.2188 53.125C99.225 44.2299 95.8465 35.6657 89.7692 29.1705ZM64.0625 82.0312C58.3454 82.0312 52.7567 80.3359 48.0031 77.1597C43.2494 73.9834 39.5445 69.4689 37.3566 64.1869C35.1688 58.905 34.5963 53.0929 35.7117 47.4857C36.827 41.8784 39.5801 36.7278 43.6227 32.6852C47.6653 28.6426 52.8159 25.8895 58.4232 24.7742C64.0304 23.6588 69.8425 24.2313 75.1245 26.4191C80.4064 28.607 84.9209 32.3119 88.0972 37.0655C91.2734 41.8192 92.9688 47.4079 92.9688 53.125C92.9688 56.921 92.2211 60.6799 90.7684 64.1869C89.3157 67.694 87.1865 70.8806 84.5023 73.5648C81.8181 76.249 78.6315 78.3782 75.1245 79.8309C71.6174 81.2836 67.8585 82.0312 64.0625 82.0312Z" fill="url(#paint6_linear)"/>
<defs>
<linearGradient id="paint0_linear" x1="73.3416" y1="2.34375" x2="65.9909" y2="17.7651" gradientUnits="userSpaceOnUse">
<stop stop-color="#CDB185"/>
<stop offset="1" stop-color="#EBD3AE"/>
</linearGradient>
<linearGradient id="paint1_linear" x1="28.0291" y1="36.7187" x2="25.8951" y2="45.6727" gradientUnits="userSpaceOnUse">
<stop stop-color="#CDB185"/>
<stop offset="1" stop-color="#EBD3AE"/>
</linearGradient>
<linearGradient id="paint2_linear" x1="24.9041" y1="55.4687" x2="22.7701" y2="64.4227" gradientUnits="userSpaceOnUse">
<stop stop-color="#CDB185"/>
<stop offset="1" stop-color="#EBD3AE"/>
</linearGradient>
<linearGradient id="paint3_linear" x1="26.669" y1="64.8437" x2="23.994" y2="73.4775" gradientUnits="userSpaceOnUse">
<stop stop-color="#CDB185"/>
<stop offset="1" stop-color="#EBD3AE"/>
</linearGradient>
<linearGradient id="paint4_linear" x1="24.7017" y1="46.0937" x2="22.9356" y2="55.2143" gradientUnits="userSpaceOnUse">
<stop stop-color="#CDB185"/>
<stop offset="1" stop-color="#EBD3AE"/>
</linearGradient>
<linearGradient id="paint5_linear" x1="88.331" y1="26.5625" x2="34.7375" y2="78.4555" gradientUnits="userSpaceOnUse">
<stop stop-color="#CDB185"/>
<stop offset="1" stop-color="#EBD3AE"/>
</linearGradient>
<linearGradient id="paint6_linear" x1="96.1825" y1="14.0625" x2="21.5486" y2="82.525" gradientUnits="userSpaceOnUse">
<stop stop-color="#CDB185"/>
<stop offset="1" stop-color="#EBD3AE"/>
</linearGradient>
</defs>
</svg>
