<svg width="75" height="100" viewBox="0 0 75 100" fill="none" xmlns="http://www.w3.org/2000/svg">
<path d="M4.16667 78.6667H2.9328L3.81859 79.5256L21.0061 96.1923L21.8925 97.0518L21.8539 95.8177L21.3331 79.151L21.318 78.6667H20.8333H4.16667ZM18.8017 98.4655L18.4846 98.7926L18.8017 98.4655L1.61422 81.7989C1.26171 81.4571 0.981452 81.0479 0.790055 80.5958C0.598658 80.1436 0.500022 79.6576 0.5 79.1667V16.6667C0.5 15.6942 0.886308 14.7616 1.57394 14.0739C2.26157 13.3863 3.19421 13 4.16667 13H20.3333V16.6667C20.3333 17.9043 20.825 19.0913 21.7002 19.9665C22.5753 20.8417 23.7623 21.3333 25 21.3333H50C51.2377 21.3333 52.4247 20.8417 53.2998 19.9665C54.175 19.0913 54.6667 17.9043 54.6667 16.6667V13H70.8333C71.8058 13 72.7384 13.3863 73.4261 14.0739C74.1137 14.7616 74.5 15.6942 74.5 16.6667V95.8333C74.5 96.8058 74.1137 97.7384 73.4261 98.4261C72.7384 99.1137 71.8058 99.5 70.8333 99.5H21.3542C20.4013 99.5 19.4858 99.1289 18.8017 98.4655ZM62.5 88H63V87.5V79.1667V78.6667H62.5H41.6667H41.1667V79.1667V87.5V88H41.6667H62.5ZM62.5 71.3333H63V70.8333V62.5V62H62.5H29.1667H28.6667V62.5V70.8333V71.3333H29.1667H62.5ZM62.5 54.6667H63V54.1667V45.8333V45.3333H62.5H29.1667H28.6667V45.8333V54.1667V54.6667H29.1667H62.5ZM62.5 38H63V37.5V29.1667V28.6667H62.5H29.1667H28.6667V29.1667V37.5V38H29.1667H62.5ZM14.074 70.5469C14.8414 71.0596 15.7437 71.3333 16.6667 71.3333C17.9043 71.3333 19.0913 70.8417 19.9665 69.9665C20.8417 69.0913 21.3333 67.9043 21.3333 66.6667C21.3333 65.7437 21.0596 64.8414 20.5469 64.074C20.0341 63.3066 19.3052 62.7084 18.4525 62.3552C17.5998 62.002 16.6615 61.9096 15.7562 62.0897C14.851 62.2697 14.0195 62.7142 13.3668 63.3668C12.7142 64.0195 12.2697 64.851 12.0897 65.7562C11.9096 66.6615 12.002 67.5998 12.3552 68.4525C12.7084 69.3052 13.3066 70.0341 14.074 70.5469ZM14.074 53.8802C14.8414 54.393 15.7437 54.6667 16.6667 54.6667C17.9043 54.6667 19.0913 54.175 19.9665 53.2998C20.8417 52.4247 21.3333 51.2377 21.3333 50C21.3333 49.077 21.0596 48.1748 20.5469 47.4073C20.0341 46.6399 19.3052 46.0418 18.4525 45.6886C17.5998 45.3354 16.6615 45.2429 15.7562 45.423C14.851 45.6031 14.0195 46.0475 13.3668 46.7002C12.7142 47.3528 12.2697 48.1843 12.0897 49.0896C11.9096 49.9948 12.002 50.9331 12.3552 51.7859C12.7084 52.6386 13.3066 53.3674 14.074 53.8802ZM14.074 37.2135C14.8414 37.7263 15.7437 38 16.6667 38C17.9043 38 19.0913 37.5083 19.9665 36.6332C20.8417 35.758 21.3333 34.571 21.3333 33.3333C21.3333 32.4104 21.0596 31.5081 20.5469 30.7407C20.0341 29.9732 19.3052 29.3751 18.4525 29.0219C17.5998 28.6687 16.6615 28.5763 15.7562 28.7563C14.851 28.9364 14.0195 29.3809 13.3668 30.0335C12.7142 30.6861 12.2697 31.5177 12.0897 32.4229C11.9096 33.3282 12.002 34.2665 12.3552 35.1192C12.7084 35.9719 13.3066 36.7007 14.074 37.2135Z" fill="url(#paint0_linear)" stroke="black"/>
<path d="M33.3333 0.5H41.6667C43.7442 0.5 45.7366 1.3253 47.2057 2.79433C48.6747 4.26337 49.5 6.25581 49.5 8.33333V16.1667H25.5V8.33333C25.5 6.25581 26.3253 4.26337 27.7943 2.79433C29.2634 1.3253 31.2558 0.5 33.3333 0.5ZM34.9073 12.2135C35.6748 12.7263 36.577 13 37.5 13C38.7377 13 39.9247 12.5083 40.7998 11.6332C41.675 10.758 42.1667 9.57101 42.1667 8.33333C42.1667 7.41035 41.893 6.5081 41.3802 5.74067C40.8674 4.97324 40.1386 4.3751 39.2859 4.0219C38.4331 3.66869 37.4948 3.57627 36.5896 3.75634C35.6843 3.9364 34.8528 4.38086 34.2002 5.0335C33.5475 5.68615 33.1031 6.51767 32.923 7.42291C32.7429 8.32816 32.8354 9.26647 33.1886 10.1192C33.5418 10.9719 34.1399 11.7007 34.9073 12.2135Z" fill="url(#paint1_linear)" stroke="black"/>
<defs>
<linearGradient id="paint0_linear" x1="71.7614" y1="12.5" x2="-15.0438" y2="84.5437" gradientUnits="userSpaceOnUse">
<stop stop-color="#CDB185"/>
<stop offset="1" stop-color="#EBD3AE"/>
</linearGradient>
<linearGradient id="paint1_linear" x1="48.9205" y1="-5.74885e-08" x2="33.2054" y2="22.8247" gradientUnits="userSpaceOnUse">
<stop stop-color="#CDB185"/>
<stop offset="1" stop-color="#EBD3AE"/>
</linearGradient>
</defs>
</svg>
