<svg width="100" height="100" viewBox="0 0 100 100" fill="none" xmlns="http://www.w3.org/2000/svg">
<g clip-path="url(#clip0)">
<path d="M49.9994 0.00204079C38.6279 -0.0193214 27.5936 3.86401 18.7413 11.002C18.2072 11.4323 17.6899 11.8634 17.1727 12.312C15.4248 13.8005 13.799 15.4263 12.3105 17.1742C12 17.5358 11.6895 17.8982 11.3797 18.2774C-4.96233 38.1449 -3.55243 67.173 14.6374 85.3636C32.8281 103.554 61.8562 104.963 81.7237 88.6221C82.1029 88.3116 82.4653 88.0011 82.8269 87.6906C84.5748 86.2021 86.2006 84.5763 87.6891 82.8284C88.1377 82.3111 88.5855 81.7939 88.9998 81.2598C101.035 66.2628 103.399 45.6903 95.0789 28.3542C86.7583 11.018 69.2291 -0.00711442 49.9994 0.00204079ZM49.9994 89.6559C34.8453 89.6674 21.0125 81.0348 14.3628 67.4172C7.71381 53.7996 9.41363 37.5826 18.7413 25.6397L74.3614 81.2598C67.4057 86.6995 58.8296 89.6552 49.9994 89.6559ZM81.6199 73.8807L26.1036 18.3811C41.8765 6.429 64.0496 7.948 78.0456 21.9394C92.0409 35.9309 93.5675 58.104 81.6199 73.8807Z" fill="url(#paint0_linear)"/>
</g>
<defs>
<linearGradient id="paint0_linear" x1="95.6818" y1="0.00195278" x2="-5.19925" y2="97.683" gradientUnits="userSpaceOnUse">
<stop stop-color="#CDB185"/>
<stop offset="1" stop-color="#EBD3AE"/>
</linearGradient>
<clipPath id="clip0">
<rect width="100" height="100" fill="white"/>
</clipPath>
</defs>
</svg>
