<svg width="100" height="100" viewBox="0 0 100 100" fill="none" xmlns="http://www.w3.org/2000/svg">
<g clip-path="url(#clip0)">
<path d="M82.5703 99.1417L65.477 82.0513L57.1914 90.3368C56.4762 91.0521 55.4377 91.3468 54.4477 91.1179C53.4578 90.8833 52.6623 90.1566 52.342 89.1925L35.7682 39.4736C35.4162 38.4206 35.6908 37.2591 36.4748 36.4751C37.2559 35.6941 38.4203 35.4079 39.4732 35.7685L89.1922 52.3423C90.1564 52.6628 90.883 53.4581 91.1176 54.448C91.3494 55.4351 91.0547 56.4736 90.3365 57.1917L82.051 65.4773L99.1414 82.5704C100.286 83.7148 100.286 85.5689 99.1414 86.7132L86.7131 99.1415C85.5686 100.286 83.7146 100.286 82.5703 99.1417Z" fill="url(#paint0_linear)"/>
<path d="M38.0859 23.4375C36.4666 23.4375 35.1562 22.1271 35.1562 20.5078V2.92969C35.1562 1.31035 36.4666 0 38.0859 0C39.7053 0 41.0156 1.31035 41.0156 2.92969V20.5078C41.0156 22.1271 39.7053 23.4375 38.0859 23.4375Z" fill="url(#paint1_linear)"/>
<path d="M23.5864 27.7292L11.1551 15.2979C10.0108 14.1536 10.0108 12.2995 11.1551 11.1551C12.2995 10.0108 14.1536 10.0108 15.2979 11.1551L27.729 23.5862C28.8733 24.7305 28.8733 26.5846 27.729 27.729C26.5846 28.8735 24.7307 28.8735 23.5864 27.7292Z" fill="url(#paint2_linear)"/>
<path d="M11.1551 65.0165C10.0108 63.8722 10.0108 62.0181 11.1551 60.8738L23.5862 48.4427C24.7305 47.2984 26.5846 47.2984 27.729 48.4427C28.8733 49.5871 28.8733 51.4412 27.729 52.5855L15.2979 65.0165C14.1536 66.1609 12.2997 66.1609 11.1551 65.0165Z" fill="url(#paint3_linear)"/>
<path d="M48.4432 27.729C47.2989 26.5846 47.2989 24.7305 48.4432 23.5862L60.8743 11.1551C62.0186 10.0108 63.8727 10.0108 65.017 11.1551C66.1614 12.2995 66.1614 14.1536 65.017 15.2979L52.586 27.729C51.4417 28.8733 49.5877 28.8733 48.4432 27.729Z" fill="url(#paint4_linear)"/>
<path d="M20.5078 41.0156H2.92969C1.31035 41.0156 0 39.7053 0 38.0859C0 36.4666 1.31035 35.1562 2.92969 35.1562H20.5078C22.1271 35.1562 23.4375 36.4666 23.4375 38.0859C23.4375 39.7053 22.1271 41.0156 20.5078 41.0156Z" fill="url(#paint5_linear)"/>
</g>
<defs>
<linearGradient id="paint0_linear" x1="97.2195" y1="35.6143" x2="32.266" y2="98.5036" gradientUnits="userSpaceOnUse">
<stop stop-color="#CDB185"/>
<stop offset="1" stop-color="#EBD3AE"/>
</linearGradient>
<linearGradient id="paint1_linear" x1="40.7626" y1="-8.08432e-08" x2="29.9436" y2="2.61893" gradientUnits="userSpaceOnUse">
<stop stop-color="#CDB185"/>
<stop offset="1" stop-color="#EBD3AE"/>
</linearGradient>
<linearGradient id="paint2_linear" x1="27.7974" y1="10.2969" x2="9.34561" y2="28.1631" gradientUnits="userSpaceOnUse">
<stop stop-color="#CDB185"/>
<stop offset="1" stop-color="#EBD3AE"/>
</linearGradient>
<linearGradient id="paint3_linear" x1="27.7974" y1="47.5845" x2="9.34579" y2="65.4507" gradientUnits="userSpaceOnUse">
<stop stop-color="#CDB185"/>
<stop offset="1" stop-color="#EBD3AE"/>
</linearGradient>
<linearGradient id="paint4_linear" x1="65.0855" y1="10.2969" x2="46.6339" y2="28.1631" gradientUnits="userSpaceOnUse">
<stop stop-color="#CDB185"/>
<stop offset="1" stop-color="#EBD3AE"/>
</linearGradient>
<linearGradient id="paint5_linear" x1="22.4254" y1="35.1562" x2="19.5623" y2="46.2453" gradientUnits="userSpaceOnUse">
<stop stop-color="#CDB185"/>
<stop offset="1" stop-color="#EBD3AE"/>
</linearGradient>
<clipPath id="clip0">
<rect width="100" height="100" fill="white"/>
</clipPath>
</defs>
</svg>
