<svg width="100" height="88" viewBox="0 0 100 88" fill="none" xmlns="http://www.w3.org/2000/svg">
<path d="M2.92533 70.3155H79.4911C80.1779 70.3155 80.8416 70.0753 81.368 69.6373C82.1034 69.0215 98.8789 54.5902 99.9018 23.4385H17.6717C16.6527 51.7159 1.20319 65.0071 1.04263 65.1397C0.10138 65.935 -0.244924 67.2341 0.178531 68.39C0.599057 69.543 1.695 70.3155 2.92533 70.3155Z" fill="url(#paint0_linear)"/>
<path d="M97.0698 5.85963H82.4208V2.92981C82.4208 1.28912 81.1316 0 79.4909 0C77.8503 0 76.5611 1.28912 76.5611 2.92981V5.85963H61.7167V2.92981C61.7167 1.28912 60.4276 0 58.7869 0C57.1462 0 55.8571 1.28912 55.8571 2.92981V5.85963H41.208V2.92981C41.208 1.28912 39.9189 0 38.2782 0C36.6375 0 35.3484 1.28912 35.3484 2.92981V5.85963H20.6993C19.0586 5.85963 17.7695 7.14875 17.7695 8.78944V17.5789H99.9996V8.78944C99.9996 7.14875 98.7105 5.85963 97.0698 5.85963Z" fill="url(#paint1_linear)"/>
<path d="M85.1303 74.1298C83.5394 75.4544 81.5424 76.1756 79.4909 76.1756H17.7695V84.965C17.7695 86.5844 19.0799 87.8948 20.6993 87.8948H97.0698C98.6892 87.8948 99.9996 86.5844 99.9996 84.965V52.1226C94.351 65.9808 86.4686 73.0096 85.1303 74.1298Z" fill="url(#paint2_linear)"/>
<defs>
<linearGradient id="paint0_linear" x1="95.5878" y1="23.4385" x2="58.4509" y2="100.072" gradientUnits="userSpaceOnUse">
<stop stop-color="#CDB185"/>
<stop offset="1" stop-color="#EBD3AE"/>
</linearGradient>
<linearGradient id="paint1_linear" x1="96.4488" y1="-6.0635e-08" x2="88.9782" y2="33.8369" gradientUnits="userSpaceOnUse">
<stop stop-color="#CDB185"/>
<stop offset="1" stop-color="#EBD3AE"/>
</linearGradient>
<linearGradient id="paint2_linear" x1="96.4488" y1="52.1226" x2="69.4539" y2="112.207" gradientUnits="userSpaceOnUse">
<stop stop-color="#CDB185"/>
<stop offset="1" stop-color="#EBD3AE"/>
</linearGradient>
</defs>
</svg>
