<svg width="100" height="100" viewBox="0 0 100 100" fill="none" xmlns="http://www.w3.org/2000/svg">
<path d="M97.0701 94.1395H94.116V26.4639C94.116 24.8459 92.8043 23.5342 91.1863 23.5342H79.4188C77.8008 23.5342 76.4891 24.8459 76.4891 26.4639V94.1395H70.5809V38.2314C70.5809 36.6135 69.2692 35.3017 67.6512 35.3017H55.8837C54.2657 35.3017 52.954 36.6135 52.954 38.2314V94.1395H47.0458V49.999C47.0458 48.381 45.7341 47.0693 44.1161 47.0693H32.3486C30.7306 47.0693 29.4189 48.381 29.4189 49.999V94.1395H23.5107V61.7665C23.5107 60.1486 22.199 58.8368 20.581 58.8368H8.81346C7.19549 58.8368 5.88378 60.1486 5.88378 61.7665V94.1395H2.92968C1.31172 94.1395 0 95.4512 0 97.0692C0 98.6872 1.31172 99.9989 2.92968 99.9989H97.0701C98.6881 99.9989 99.9998 98.6872 99.9998 97.0692C99.9998 95.4512 98.6881 94.1395 97.0701 94.1395Z" fill="url(#paint0_linear)"/>
<path d="M2.92634 41.1623C3.02263 41.1623 3.12009 41.1576 3.21794 41.1479C18.1849 39.6686 32.214 36.8631 44.9152 32.8088C55.1172 29.5523 64.4949 25.4861 72.7879 20.7229C79.8398 16.6725 84.9047 12.8111 88.2568 9.90176V14.6973C88.2568 16.3152 89.5685 17.627 91.1865 17.627C92.8045 17.627 94.1162 16.3152 94.1162 14.6973V2.92969C94.1162 1.31172 92.8045 0 91.1865 0H79.4189C77.8009 0 76.4892 1.31172 76.4892 2.92969C76.4892 4.54766 77.8009 5.85938 79.4189 5.85938H83.9572C80.7996 8.55215 76.0615 12.1143 69.5336 15.8342C57.0672 22.9383 35.3426 32.0852 2.64177 35.3168C1.03161 35.476 -0.144754 36.9102 0.014426 38.5203C0.16384 40.0328 1.43786 41.1623 2.92634 41.1623Z" fill="url(#paint1_linear)"/>
<defs>
<linearGradient id="paint0_linear" x1="95.6816" y1="23.5342" x2="20.6048" y2="118.604" gradientUnits="userSpaceOnUse">
<stop stop-color="#CDB185"/>
<stop offset="1" stop-color="#EBD3AE"/>
</linearGradient>
<linearGradient id="paint1_linear" x1="90.0521" y1="-1.41982e-07" x2="58.8796" y2="69.0135" gradientUnits="userSpaceOnUse">
<stop stop-color="#CDB185"/>
<stop offset="1" stop-color="#EBD3AE"/>
</linearGradient>
</defs>
</svg>
