<svg width="100" height="100" viewBox="0 0 100 100" fill="none" xmlns="http://www.w3.org/2000/svg">
<g clip-path="url(#clip0)">
<path d="M15.9827 66.004C18.7494 68.479 21.8869 70.4415 25.2494 71.9165L42.9327 60.8123C46.591 58.504 51.491 59.0498 54.5535 62.129L60.4994 68.0748C69.4119 61.504 74.9994 50.9915 74.9994 39.5832C74.9994 20.054 59.1119 4.1665 39.5827 4.1665C20.0535 4.1665 4.16602 20.054 4.16602 39.5832C4.16602 49.6623 8.47018 59.2915 15.9827 66.004ZM41.166 42.7082H37.9994C33.1285 42.7082 29.166 38.7457 29.166 33.8748C29.166 29.4957 32.3244 25.8915 36.4577 25.1582V21.8748C36.4577 20.1498 37.8577 18.7498 39.5827 18.7498C41.3077 18.7498 42.7077 20.1498 42.7077 21.8748V24.9998H46.8744C48.5994 24.9998 49.9994 26.3998 49.9994 28.1248C49.9994 29.8498 48.5994 31.2498 46.8744 31.2498H37.9994C36.5744 31.2498 35.416 32.4082 35.416 33.8332C35.416 35.2998 36.5744 36.4582 37.9994 36.4582H41.166C46.0369 36.4582 49.9994 40.4207 49.9994 45.2915C49.9994 49.6707 46.841 53.2748 42.7077 54.0082V57.2873C42.7077 59.0123 41.3077 60.4123 39.5827 60.4123C37.8577 60.4123 36.4577 59.0123 36.4577 57.2873V54.1665H32.291C30.566 54.1665 29.166 52.7665 29.166 51.0415C29.166 49.3165 30.566 47.9165 32.291 47.9165H41.166C42.591 47.9165 43.7494 46.7582 43.7494 45.3332C43.7494 43.8665 42.591 42.7082 41.166 42.7082Z" fill="url(#paint0_linear)"/>
<path d="M95.8338 50H79.1671C77.4838 50 75.9588 51.0167 75.3171 52.5708C74.6713 54.1292 75.0296 55.9208 76.2213 57.1125L81.6088 62.5L64.5838 79.525L50.8629 65.8042C49.5004 64.4333 47.3588 64.1958 45.7254 65.2083L1.97544 92.2917C0.0171036 93.5042 -0.582896 96.0708 0.625437 98.025C1.41294 99.3 2.77544 100 4.17127 100C4.92127 100 5.67544 99.8 6.35877 99.375L47.3004 74.0292L61.6338 88.3625C63.2629 89.9917 65.8963 89.9917 67.5254 88.3625L87.5004 68.3917L92.8879 73.7792C93.6838 74.575 94.7504 75 95.8338 75C96.3713 75 96.9129 74.8958 97.4296 74.6833C98.9879 74.0375 100 72.5167 100 70.8333V54.1667C100 51.8667 98.1379 50 95.8338 50Z" fill="url(#paint1_linear)"/>
</g>
<defs>
<linearGradient id="paint0_linear" x1="71.9406" y1="4.1665" x2="3.56285" y2="73.388" gradientUnits="userSpaceOnUse">
<stop stop-color="#CDB185"/>
<stop offset="1" stop-color="#EBD3AE"/>
</linearGradient>
<linearGradient id="paint1_linear" x1="95.6823" y1="50" x2="54.5335" y2="129.685" gradientUnits="userSpaceOnUse">
<stop stop-color="#CDB185"/>
<stop offset="1" stop-color="#EBD3AE"/>
</linearGradient>
<clipPath id="clip0">
<rect width="100" height="100" fill="white"/>
</clipPath>
</defs>
</svg>
