<svg width="81" height="100" viewBox="0 0 81 100" fill="none" xmlns="http://www.w3.org/2000/svg">
<path d="M46.8809 17.5781H33.1973C28.9375 22.4336 23.5898 26.1738 17.5781 28.5117V46.4355C17.5781 61.5938 26.3535 75.1875 40.0391 81.4102C53.7246 75.1875 62.5 61.5938 62.5 46.4355V28.5137C56.4863 26.1758 51.1406 22.4355 46.8809 17.5781ZM55.7832 42.7793L37.5527 61.008C36.9805 61.5803 36.2305 61.8672 35.4824 61.8672C34.7324 61.8672 33.9824 61.5801 33.4102 61.008L24.2949 51.8947C23.1523 50.7502 23.1523 48.8947 24.2949 47.7502C25.4395 46.6076 27.2949 46.6076 28.4395 47.7502L35.4824 54.7932L51.6406 38.6369C52.7832 37.4924 54.6387 37.4924 55.7832 38.6369C56.9258 39.7812 56.9258 41.6348 55.7832 42.7793ZM77.1309 13.6719C68.6855 13.6719 60.9941 9.03125 57.0527 1.5625C56.5467 0.601562 55.5488 0 54.4627 0H25.615C24.5291 0 23.5311 0.601562 23.0232 1.5625C19.084 9.03125 11.3926 13.6719 2.92969 13.6719C1.3125 13.6719 0 14.9844 0 16.6016V46.4355C0 58.4297 3.74805 69.8828 10.8379 79.5566C17.9277 89.2305 27.7187 96.2518 39.1562 99.8633C39.4434 99.9551 39.7422 100 40.0391 100C40.3359 100 40.6348 99.9551 40.9219 99.8633C52.3596 96.252 62.1504 89.2307 69.2402 79.5566C76.3301 69.8826 80.0781 58.4297 80.0781 46.4355V16.6016C80.0781 14.9844 78.748 13.6719 77.1309 13.6719ZM68.3594 46.3027C68.3594 64.2441 57.6855 80.2891 41.166 87.1777C40.8047 87.3283 40.4219 87.4023 40.0391 87.4023C39.6562 87.4023 39.2715 87.3281 38.9121 87.1777C22.3926 80.2891 11.7188 64.2439 11.7188 46.3027V26.3184C11.7188 25.0527 12.5312 23.9297 13.7344 23.5352C19.9512 21.4902 25.4277 17.7305 29.5703 12.6621C30.127 11.9805 30.9609 11.5859 31.8398 11.5859H48.2383C49.1367 11.5859 50.1953 12.2812 50.5076 12.6621C54.6502 17.7305 60.1268 21.4902 66.3436 23.5352C67.2012 23.8164 67.8572 24.4668 68.1658 25.2773C68.1699 25.2852 68.1717 25.2949 68.1756 25.3027C68.25 25.5039 68.3025 25.7148 68.332 25.9316C68.334 25.9531 68.3377 25.9766 68.3398 25.998C68.3516 26.1035 68.3594 26.209 68.3594 26.3184V46.3027Z" fill="url(#paint0_linear)"/>
<defs>
<linearGradient id="paint0_linear" x1="76.6202" y1="-3.44931e-07" x2="-21.1334" y2="75.7956" gradientUnits="userSpaceOnUse">
<stop stop-color="#CDB185"/>
<stop offset="1" stop-color="#EBD3AE"/>
</linearGradient>
</defs>
</svg>
