<svg width="100" height="100" viewBox="0 0 100 100" fill="none" xmlns="http://www.w3.org/2000/svg">
<path d="M80.5111 3.29199H3.83379C1.7166 3.29199 0 5.00859 0 7.12598V76.1356C0 78.2529 1.7166 79.9693 3.83379 79.9693H47.8385C47.4195 78.727 47.0846 77.4465 46.8361 76.1356C46.5984 74.8836 46.4408 73.6041 46.3701 72.3018C46.3414 71.7742 46.326 71.2434 46.326 70.709C46.326 68.6262 46.548 66.5939 46.9664 64.6342H21.7252C19.6078 64.6342 17.8914 62.9176 17.8914 60.8004C17.8914 58.6832 19.608 56.9666 21.7252 56.9666H49.7848C54.6969 47.8477 64.3361 41.6357 75.3994 41.6357C75.8277 41.6357 76.2535 41.6471 76.6773 41.6654C77.9791 41.7223 79.259 41.8627 80.5111 42.0859C81.8215 42.3193 83.101 42.6426 84.3449 43.0457V7.12598C84.3451 5.00859 82.6285 3.29199 80.5111 3.29199ZM34.5049 18.6252C36.6223 18.6252 38.3387 20.3395 38.3387 22.4568V22.4615C38.3387 24.5789 36.6221 26.2953 34.5049 26.2953C32.3875 26.2953 30.6711 24.5787 30.6711 22.4615C30.6709 20.3441 32.3875 18.6252 34.5049 18.6252ZM49.8402 49.2984H26.8371C24.7197 49.2984 23.0033 47.5818 23.0033 45.4646C23.0033 43.3473 24.7199 41.6309 26.8371 41.6309H49.8402C51.9576 41.6309 53.674 43.3475 53.674 45.4646C53.6742 47.5818 51.9576 49.2984 49.8402 49.2984ZM53.6742 22.4613C53.6742 24.5787 51.9576 26.2951 49.8404 26.2951C47.723 26.2951 46.0066 24.5785 46.0066 22.4613C46.0066 20.3439 47.7232 18.6252 49.8404 18.6252C51.9578 18.6252 53.6742 20.3395 53.6742 22.4568V22.4613ZM69.0096 22.4613C69.0096 24.5787 67.293 26.2951 65.1758 26.2951C63.0584 26.2951 61.342 24.5785 61.342 22.4613C61.342 20.3439 63.0586 18.6252 65.1758 18.6252C67.2932 18.6252 69.0096 20.3395 69.0096 22.4568V22.4613Z" fill="url(#paint0_linear)"/>
<path d="M98.8766 90.1622L97.8608 89.1464L95.1356 86.4212L92.4035 83.689C95.1611 80.0851 96.8045 75.586 96.8045 70.7083C96.8045 62.0978 91.6914 54.6636 84.3443 51.2688C83.1234 50.7048 81.8418 50.2517 80.5106 49.9239C79.2709 49.619 77.9899 49.4218 76.6768 49.3437C76.2535 49.3187 75.8281 49.3022 75.3988 49.3022C68.8232 49.3022 62.9332 52.2851 59.0035 56.9653C57.1404 59.1847 55.7207 61.7854 54.8766 64.6331C54.3051 66.5603 53.9932 68.5978 53.9932 70.7079C53.9932 71.2444 54.0197 71.7743 54.0586 72.3007C54.1561 73.6147 54.3674 74.8968 54.6922 76.1345C55.0416 77.4669 55.5152 78.7497 56.1023 79.9683C59.5613 87.1478 66.9111 92.114 75.399 92.114C79.5574 92.114 83.4402 90.9179 86.7289 88.8577L89.5022 91.631L92.2551 94.3843L93.4549 95.5841C94.2035 96.3327 95.1848 96.7071 96.1656 96.7071C97.1467 96.7071 98.1281 96.3327 98.8764 95.5841C100.374 94.0868 100.374 91.6593 98.8766 90.1622ZM75.399 84.4468C71.3889 84.4468 67.775 82.719 65.2613 79.9694C64.2344 78.8462 63.3922 77.5521 62.7809 76.1356C62.2627 74.9362 61.9129 73.6481 61.7565 72.3019C61.6957 71.7786 61.6611 71.2481 61.6611 70.7091C61.6611 63.1339 67.824 56.971 75.3992 56.971C75.8301 56.971 76.2559 56.9935 76.6772 57.0323C78.0205 57.1571 79.3068 57.4765 80.5109 57.9614C81.9193 58.528 83.2115 59.321 84.3447 60.2958C87.2756 62.8173 89.1371 66.5489 89.1371 70.7091C89.1369 78.2837 82.9742 84.4468 75.399 84.4468Z" fill="url(#paint1_linear)"/>
<defs>
<linearGradient id="paint0_linear" x1="80.7028" y1="3.29199" x2="3.46273" y2="85.5601" gradientUnits="userSpaceOnUse">
<stop stop-color="#CDB185"/>
<stop offset="1" stop-color="#EBD3AE"/>
</linearGradient>
<linearGradient id="paint1_linear" x1="98.013" y1="49.3022" x2="50.2576" y2="94.1784" gradientUnits="userSpaceOnUse">
<stop stop-color="#CDB185"/>
<stop offset="1" stop-color="#EBD3AE"/>
</linearGradient>
</defs>
</svg>
