<svg width="100" height="100" viewBox="0 0 100 100" fill="none" xmlns="http://www.w3.org/2000/svg">
<g clip-path="url(#clip0)">
<path d="M50.2064 16.5471C54.7473 16.5471 58.4285 12.866 58.4285 8.32508C58.4285 3.78417 54.7473 0.103027 50.2064 0.103027C45.6655 0.103027 41.9844 3.78417 41.9844 8.32508C41.9844 12.866 45.6655 16.5471 50.2064 16.5471Z" fill="url(#paint0_linear)"/>
<path d="M10.3556 7.95947H1.8873C0.987889 7.95947 0.258789 8.68838 0.258789 9.58799C0.258789 10.4876 0.987889 11.2165 1.8873 11.2165H10.3556C11.2551 11.2165 11.9842 10.4876 11.9842 9.58799C11.9842 8.68838 11.2551 7.95947 10.3556 7.95947Z" fill="url(#paint1_linear)"/>
<path d="M10.7606 2.22291L2.29226 0.0514295C1.42117 -0.172008 0.533667 0.353382 0.31023 1.22428C0.0867928 2.09596 0.611987 2.98326 1.48327 3.2065L9.95162 5.37779C10.0874 5.41255 10.2233 5.42915 10.3573 5.42915C11.0833 5.42915 11.745 4.94009 11.9336 4.20474C12.1571 3.33345 11.6319 2.44615 10.7606 2.22291Z" fill="url(#paint2_linear)"/>
<path d="M11.9336 14.9718C11.7102 14.1007 10.8223 13.5759 9.95161 13.7988L1.48326 15.9703C0.61217 16.1935 0.0867808 17.081 0.310218 17.9523C0.498889 18.6878 1.1608 19.1767 1.88658 19.1767C2.02057 19.1767 2.1567 19.1599 2.29225 19.1253L10.7606 16.9541C11.6319 16.7306 12.1571 15.8431 11.9336 14.9718Z" fill="url(#paint3_linear)"/>
<path d="M97.7184 5.65272L75.4975 3.11815C74.2464 2.97557 73.1167 3.87401 72.9739 5.12498L71.4522 18.465C71.3097 19.716 72.2081 20.8458 73.4591 20.9886L81.8727 21.9484L80.6964 32.263L69.33 35.8245L67.6562 27.466C66.6929 22.6572 62.4345 19.1669 57.5302 19.1669L43.1115 19.1667C40.238 19.1667 37.5246 20.6914 36.0302 23.1449L32.3716 29.1505L29.9277 20.5214C29.6316 19.4753 28.9418 18.6476 28.0648 18.1509V13.3535H29.5195C30.1551 13.3535 30.6705 12.8382 30.6705 12.2025V6.97342C30.6705 6.33787 30.1552 5.82244 29.5195 5.82244H22.4547L17.4221 2.5287C17.0684 2.29725 16.6162 2.27831 16.2443 2.47928C15.8727 2.68026 15.6406 3.06893 15.6406 3.49178V15.6839C15.6406 16.1068 15.8723 16.4955 16.2443 16.6964C16.6164 16.8974 17.0684 16.8787 17.4221 16.647L22.4547 13.3533H23.7219V18.4386C22.4545 19.3962 21.8344 21.0634 22.2933 22.6837L27.214 40.0577C28.1549 43.3802 32.6201 43.994 34.4193 41.0405L39.6023 32.5322L39.6043 95.2387C39.6043 97.8678 41.7357 99.9994 44.365 99.9994C46.9943 99.9994 49.1257 97.868 49.1257 95.2387V57.1862H51.1812V95.2391C51.1812 97.8682 53.3126 99.9998 55.9419 99.9998C58.5712 99.9998 60.7026 97.8684 60.7026 95.2391C60.7026 82.5319 60.6161 38.6126 60.6161 32.7204L62.4161 41.7089C62.8775 44.0132 65.239 45.4216 67.4923 44.7155L86.7751 38.6732C88.8659 38.0179 90.0297 35.7919 89.3747 33.7013C88.9196 32.2484 87.7057 31.2452 86.3059 30.9868L87.2667 22.5638L95.6803 23.5236C96.9315 23.6662 98.0612 22.7677 98.2039 21.5167L99.7256 8.17654C99.8682 6.92537 98.9696 5.79549 97.7184 5.65272Z" fill="url(#paint4_linear)"/>
</g>
<defs>
<linearGradient id="paint0_linear" x1="57.7184" y1="0.103027" x2="41.1293" y2="16.1658" gradientUnits="userSpaceOnUse">
<stop stop-color="#CDB185"/>
<stop offset="1" stop-color="#EBD3AE"/>
</linearGradient>
<linearGradient id="paint1_linear" x1="11.4778" y1="7.95947" x2="9.73507" y2="14.0344" gradientUnits="userSpaceOnUse">
<stop stop-color="#CDB185"/>
<stop offset="1" stop-color="#EBD3AE"/>
</linearGradient>
<linearGradient id="paint2_linear" x1="11.4787" y1="-1.87268e-08" x2="7.21341" y2="8.92024" gradientUnits="userSpaceOnUse">
<stop stop-color="#CDB185"/>
<stop offset="1" stop-color="#EBD3AE"/>
</linearGradient>
<linearGradient id="paint3_linear" x1="11.4787" y1="13.7476" x2="7.2134" y2="22.6678" gradientUnits="userSpaceOnUse">
<stop stop-color="#CDB185"/>
<stop offset="1" stop-color="#EBD3AE"/>
</linearGradient>
<linearGradient id="paint4_linear" x1="96.1089" y1="2.34082" x2="-0.857017" y2="83.1945" gradientUnits="userSpaceOnUse">
<stop stop-color="#CDB185"/>
<stop offset="1" stop-color="#EBD3AE"/>
</linearGradient>
<clipPath id="clip0">
<rect width="100" height="100" fill="white"/>
</clipPath>
</defs>
</svg>
