<svg width="50" height="50" viewBox="0 0 50 50" fill="none" xmlns="http://www.w3.org/2000/svg">
<circle cx="25" cy="25" r="25" fill="url(#paint0_linear)"/>
<g clip-path="url(#clip0)">
<path fill-rule="evenodd" clip-rule="evenodd" d="M25.0007 14.9988C30.5229 14.9988 34.9996 19.4753 34.9996 24.9975C34.9996 30.5197 30.5229 34.9962 25.0007 34.9962C19.4786 34.9962 15.002 30.5197 15.002 24.9975C15.002 19.4753 19.4786 14.9988 25.0007 14.9988Z" fill="#2B2928"/>
<path fill-rule="evenodd" clip-rule="evenodd" d="M24.5745 21.7559H23.7275C23.5888 21.7401 23.4194 21.7401 23.2502 21.725C23.2042 21.7401 23.1883 21.7869 23.1728 21.8484C23.1575 21.9102 23.1728 21.9563 23.2042 22.0023L23.3889 22.0179C23.6194 22.0636 23.7887 22.1099 23.8972 22.1566C24.0046 22.2179 24.0813 22.3258 24.1126 22.4645C24.1433 22.6031 24.1586 22.7876 24.1433 23.019C24.1275 23.3423 24.1126 23.7271 24.0971 24.1738C24.0813 24.621 24.0508 25.0828 24.0197 25.5605C23.9893 26.299 23.923 28.0984 23.7223 28.6311C23.6758 28.7543 23.599 28.8315 23.5065 28.8783C23.3984 28.9239 23.2747 28.9702 23.1208 28.9861L22.8737 29.0168C22.8277 29.0472 22.8121 29.0941 22.8277 29.1711C22.8277 29.2174 22.843 29.2633 22.8893 29.3098C23.0896 29.2945 23.2747 29.2789 23.4753 29.2633H24.6942C24.9252 29.2789 25.1259 29.2945 25.3109 29.3098C25.3574 29.2789 25.3881 29.2327 25.3881 29.1711C25.3881 29.109 25.3729 29.063 25.3262 29.0168L24.8946 28.9861C24.7555 28.9702 24.6475 28.9396 24.5706 28.8783C24.532 28.847 24.5009 28.8041 24.4778 28.7517C24.3868 28.5327 24.3848 28.1623 24.3896 27.9323C24.3995 27.4548 24.4053 26.9776 24.4204 26.5C24.4359 26.0225 24.4513 25.6062 24.4664 25.2522C24.4814 24.9288 24.5131 24.5896 24.5281 24.2508C24.5435 23.9124 24.5586 23.5731 24.5745 23.2344H24.6051C24.7285 23.4961 24.8519 23.7579 24.9596 24.0506C25.083 24.328 25.2061 24.6054 25.329 24.8674L26.361 27.0692C26.454 27.2547 26.5615 27.4857 26.6844 27.7629C26.8234 28.0555 26.9615 28.3325 27.0851 28.6096C27.1503 28.7564 27.2067 28.8939 27.2545 29.0233C27.2668 29.0233 27.3531 29.3072 27.3627 29.3402C27.4221 29.4003 27.5193 29.3988 27.5788 29.3402C27.6745 29.1106 27.7745 28.8783 27.8858 28.6563C28.1776 28.0015 28.4819 27.3761 28.8256 26.7464L29.8268 24.7595C29.904 24.5896 29.9807 24.4048 30.0885 24.2048C30.1964 23.9893 30.304 23.789 30.3967 23.6196C30.4736 23.4346 30.535 23.3116 30.5656 23.2652H30.5812L30.6124 28.0251C30.6274 28.2712 30.6124 28.4552 30.597 28.594C30.5846 28.7042 30.5536 28.8089 30.4477 28.8627C30.3856 28.9396 30.2624 28.9702 30.062 28.9861L29.7226 29.0168C29.6917 29.0472 29.6764 29.0941 29.6917 29.1711C29.6917 29.2174 29.7073 29.2633 29.7538 29.3098C29.9848 29.2945 30.2312 29.2789 30.4627 29.2633H31.7896C32.0206 29.2789 32.252 29.2945 32.4839 29.3098C32.5303 29.2789 32.5454 29.2327 32.5454 29.1711C32.5607 29.109 32.5454 29.063 32.5147 29.0168L32.1443 28.9861C31.9746 28.9702 31.8513 28.9239 31.7737 28.8468C31.6975 28.7699 31.6355 28.6773 31.6201 28.5539C31.6043 28.4154 31.5889 28.2452 31.5889 28.0604C31.5574 27.4873 31.5359 26.9051 31.5209 26.3307C31.5053 25.7138 31.4744 25.1291 31.4593 24.5751V23.1113C31.4593 22.8494 31.4744 22.6493 31.5053 22.495C31.5367 22.3567 31.6136 22.2337 31.721 22.1566C31.8291 22.095 32.0137 22.0483 32.2601 22.0179L32.4914 22.0023C32.5225 21.9714 32.5376 21.9253 32.5225 21.8484C32.5225 21.8019 32.5068 21.7559 32.4761 21.725C32.2911 21.7401 32.1061 21.7401 31.9369 21.7559H31.1053C30.9663 21.7401 30.812 21.7401 30.6124 21.725C30.597 21.9864 30.5045 22.2797 30.3658 22.6186C30.1964 22.9721 29.9965 23.4042 29.75 23.9124L28.6715 26.0838C28.3919 26.675 28.1371 27.2376 27.7945 27.7981H27.7638C27.4911 27.2838 27.2398 26.7501 26.9926 26.2228L25.6837 23.604C25.5145 23.2344 25.3602 22.8805 25.237 22.557C25.129 22.2337 25.083 21.9563 25.0983 21.725C24.9136 21.7401 24.7439 21.7401 24.5745 21.7559ZM18.2545 27.6109C18.2545 28.0031 18.239 28.3017 18.2077 28.5062C18.1766 28.9022 17.9152 29.032 17.5467 29.0573L17.3107 29.0887C17.2348 29.1649 17.2406 29.3301 17.3271 29.3871C17.8138 29.3569 18.2538 29.3398 18.7422 29.3398C19.2628 29.3398 19.7482 29.3628 20.2673 29.3871C20.2986 29.3558 20.3149 29.3086 20.3305 29.2459C20.3305 29.1674 20.3149 29.1197 20.2832 29.0887L19.9686 29.0573C19.717 29.0411 19.5442 28.9939 19.4499 28.9152C19.4442 28.9112 19.4385 28.9069 19.433 28.9026C19.3379 28.8236 19.2698 28.7029 19.2412 28.516C19.21 28.3118 19.1942 28.0137 19.21 27.6219V26.5219C18.8644 26.5378 18.5505 26.5219 18.2676 26.4749L18.2545 27.6109ZM17.2468 21.8746C17.2313 21.9371 17.2629 21.9841 17.31 22.0316L17.7184 22.0781C17.8908 22.0943 18.0167 22.1412 18.095 22.2198C18.1734 22.2824 18.2208 22.3926 18.2363 22.5651C18.2522 22.7377 18.2676 22.9895 18.2676 23.3187V25.6426C18.5817 25.6584 18.8956 25.6584 19.21 25.6426V22.4394C19.1942 22.314 19.21 22.2198 19.2412 22.1412C19.2568 22.0943 19.3197 22.0465 19.3981 22.0316C19.4924 22.0158 19.6497 22.0158 19.8537 22.0158C20.4501 22.0316 20.9056 22.1883 21.2353 22.5181C21.5494 22.8475 21.7062 23.3031 21.7062 23.8688C21.7225 24.371 21.5967 24.7949 21.3297 25.14C21.0942 25.439 20.7488 25.6584 20.2775 25.7683C19.8223 25.8783 19.1786 25.9255 18.3148 25.9094C17.561 25.8946 16.7446 25.8471 15.8496 25.753C16.8391 25.957 17.5768 26.0981 18.0482 26.1451C18.8171 26.2399 19.5709 26.2236 20.2775 26.1142C20.6385 26.0666 20.9684 25.9728 21.2668 25.8629C21.5494 25.7374 21.8322 25.5646 22.1305 25.3601C22.3031 25.2348 22.4602 25.03 22.6017 24.7635C22.7118 24.5122 22.7744 24.2139 22.7898 23.8526C22.7744 23.4598 22.6801 23.1152 22.5076 22.8164C22.3347 22.5181 22.1305 22.2824 21.8634 22.1103C21.5967 21.9529 21.2668 21.8269 20.89 21.7484C20.5288 21.6858 20.1047 21.6543 19.6182 21.6543C19.1469 21.6543 18.723 21.6543 18.3463 21.6699C17.9694 21.6858 17.6239 21.7014 17.3253 21.7328C17.2785 21.7645 17.2468 21.8115 17.2468 21.8746Z" fill="#DCC29A"/>
</g>
<defs>
<linearGradient id="paint0_linear" x1="47.8409" y1="-1.72465e-07" x2="-2.59998" y2="48.8405" gradientUnits="userSpaceOnUse">
<stop stop-color="#CDB185"/>
<stop offset="1" stop-color="#EBD3AE"/>
</linearGradient>
<clipPath id="clip0">
<rect width="20" height="20" fill="white" transform="translate(15 15)"/>
</clipPath>
</defs>
</svg>
