<svg width="50" height="50" viewBox="0 0 50 50" fill="none" xmlns="http://www.w3.org/2000/svg">
<circle cx="25" cy="25" r="25" fill="url(#paint0_linear)"/>
<g clip-path="url(#clip0)">
<path d="M24.9997 33.9176C29.9248 33.9176 33.9174 29.925 33.9174 25C33.9174 20.0749 29.9248 16.0823 24.9997 16.0823C20.0746 16.0823 16.082 20.0749 16.082 25C16.082 29.925 20.0746 33.9176 24.9997 33.9176Z" fill="#DBC198"/>
<path d="M25 15C23.0222 15 21.0888 15.5865 19.4443 16.6853C17.7998 17.7841 16.5181 19.3459 15.7612 21.1732C15.0043 23.0004 14.8063 25.0111 15.1922 26.9509C15.578 28.8907 16.5304 30.6725 17.9289 32.0711C19.3275 33.4696 21.1093 34.422 23.0491 34.8079C24.9889 35.1937 26.9996 34.9957 28.8268 34.2388C30.6541 33.4819 32.2159 32.2002 33.3147 30.5557C34.4135 28.9112 35 26.9778 35 25C35.0038 23.6906 34.7497 22.3933 34.2521 21.1821C33.7546 19.9709 33.0233 18.8695 32.1001 17.941C31.1769 17.0124 30.0799 16.2747 28.8716 15.7701C27.6634 15.2655 26.3675 15.0038 25.0581 15H25ZM25.1695 25.339L24.1283 28.8499H29.6973C29.7342 28.8486 29.771 28.8546 29.8056 28.8675C29.8402 28.8804 29.8718 28.9001 29.8988 28.9252C29.9258 28.9504 29.9476 28.9807 29.9629 29.0143C29.9781 29.0479 29.9866 29.0842 29.9879 29.1211V29.2131L29.5036 30.8838C29.4823 30.9628 29.4347 31.0322 29.3687 31.0806C29.3027 31.129 29.2222 31.1535 29.1404 31.1501H20.6174L22.046 26.2833L20.4479 26.7676L20.8111 25.6538L22.4092 25.1695L24.4189 18.3414C24.441 18.2628 24.4888 18.1939 24.5546 18.1457C24.6204 18.0974 24.7005 18.0725 24.7821 18.0751H26.9371C26.9739 18.0738 27.0107 18.0798 27.0453 18.0927C27.0799 18.1056 27.1116 18.1252 27.1385 18.1504C27.1655 18.1756 27.1873 18.2059 27.2026 18.2395C27.2178 18.2731 27.2264 18.3094 27.2276 18.3462V18.4383L25.5327 24.201L27.1308 23.7167L26.7918 24.8789L25.1695 25.339Z" fill="#2B2928"/>
</g>
<defs>
<linearGradient id="paint0_linear" x1="47.8409" y1="-1.72465e-07" x2="-2.59998" y2="48.8405" gradientUnits="userSpaceOnUse">
<stop stop-color="#CDB185"/>
<stop offset="1" stop-color="#EBD3AE"/>
</linearGradient>
<clipPath id="clip0">
<rect width="20" height="20" fill="white" transform="translate(15 15)"/>
</clipPath>
</defs>
</svg>
