<svg width="50" height="50" viewBox="0 0 50 50" fill="none" xmlns="http://www.w3.org/2000/svg">
<circle cx="25" cy="25" r="25" fill="url(#paint0_linear)"/>
<path d="M25 35C30.5228 35 35 30.5228 35 25C35 19.4772 30.5228 15 25 15C19.4772 15 15 19.4772 15 25C15 30.5228 19.4772 35 25 35Z" fill="#2B2928"/>
<path d="M28.25 21.5625C27.75 20.3125 26.5625 20.25 25.125 20.5L24.625 18.75L23.5625 19.0625L24.0625 20.75C23.8125 20.8125 23.5 20.9375 23.1875 21L22.6875 19.25L21.625 19.5625L22.125 21.3125C21.875 21.375 21.6875 21.4375 21.4375 21.5L20 22L20.3125 23.125C20.3125 23.125 21.125 22.875 21.0625 22.875C21.5 22.75 21.6875 22.9375 21.8125 23.1875L22.375 25.1875C22.375 25.1875 22.4375 25.1875 22.5 25.1875L22.375 25.25L23.1875 28.0625C23.1875 28.1875 23.1875 28.4375 22.875 28.5625L22.125 28.8125L22.25 30.125L23.625 29.75C23.875 29.6875 24.125 29.625 24.375 29.5625L24.875 31.3125L25.9375 31L25.4375 29.25C25.75 29.1875 26 29.125 26.3125 29L26.8125 30.75L27.875 30.4375L27.375 28.6875C29.125 28.0625 30.25 27.25 29.9375 25.5C29.6875 24.125 28.875 23.6875 27.75 23.75C28.375 23.125 28.625 22.5 28.25 21.5625ZM27.875 25.8125C28.25 27.125 25.9375 27.625 25.1875 27.875L24.5 25.5C25.25 25.3125 27.4375 24.4375 27.875 25.8125ZM26.375 22.625C26.75 23.8125 24.8125 24.25 24.1875 24.4375L23.5625 22.3125C24.1875 22.125 26.0625 21.375 26.375 22.625Z" fill="#DCC299"/>
<defs>
<linearGradient id="paint0_linear" x1="47.8409" y1="-1.72465e-07" x2="-2.59998" y2="48.8405" gradientUnits="userSpaceOnUse">
<stop stop-color="#CDB185"/>
<stop offset="1" stop-color="#EBD3AE"/>
</linearGradient>
</defs>
</svg>
