<svg width="50" height="50" viewBox="0 0 50 50" fill="none" xmlns="http://www.w3.org/2000/svg">
<circle cx="25" cy="25" r="25" fill="url(#paint0_linear)"/>
<path d="M21.1158 23.4042L25 19.52L28.8859 23.4058L31.1459 21.1458L25 15L18.856 21.144L21.1159 23.404L21.1158 23.4042ZM15 25L17.2601 22.7396L19.52 24.9995L17.2599 27.2596L15 25ZM21.1158 26.5961L25 30.48L28.8859 26.5942L31.1471 28.853L31.1459 28.8542L25 35L18.856 28.856L18.8528 28.8528L21.1161 26.5958L21.1158 26.5961ZM30.4799 25.001L32.74 22.7409L34.9999 25.0008L32.7399 27.2609L30.4799 25.001Z" fill="#2B2928"/>
<path d="M27.2917 24.9988H27.2927L24.9995 22.7056L23.3046 24.4L23.1099 24.5948L22.7083 24.9965L22.7051 24.9996L22.7083 25.0029L24.9995 27.2945L27.2928 25.0012L27.2939 25L27.2919 24.9988" fill="#2B2928"/>
<defs>
<linearGradient id="paint0_linear" x1="47.8409" y1="-1.72465e-07" x2="-2.59998" y2="48.8405" gradientUnits="userSpaceOnUse">
<stop stop-color="#CDB185"/>
<stop offset="1" stop-color="#EBD3AE"/>
</linearGradient>
</defs>
</svg>
