<svg width="50" height="50" viewBox="0 0 50 50" fill="none" xmlns="http://www.w3.org/2000/svg">
<circle cx="25" cy="25" r="25" fill="url(#paint0_linear)"/>
<g clip-path="url(#clip0)">
<path d="M32.1772 18.223L29.769 19.4555L18.1401 25.4055C18.1008 25.1042 18.081 24.8007 18.0809 24.4969C18.0825 23.2845 18.3993 22.0936 19.0001 21.0421C19.6009 19.9906 20.4647 19.115 21.5059 18.502C22.5472 17.8891 23.7298 17.56 24.9367 17.5475C26.1435 17.5349 27.3327 17.8393 28.3864 18.4304L29.7648 17.7249L29.9704 17.6195C28.7077 16.6989 27.2162 16.1469 25.6607 16.0245C24.1052 15.9021 22.5463 16.2141 21.1563 16.9261C19.7663 17.6381 18.5993 18.7222 17.7844 20.0587C16.9694 21.3952 16.5382 22.9321 16.5383 24.4994C16.5383 24.7159 16.5465 24.9315 16.5629 25.1463C16.5858 25.4504 16.5186 25.7546 16.3699 26.0204C16.2211 26.2863 15.9974 26.5021 15.7269 26.6406L15 27.0129V28.7494L17.14 27.6538L17.833 27.2985L18.5158 26.9491L30.7751 20.6744L32.1526 19.9698L35 18.512V16.7763L32.1772 18.223Z" fill="#2B2928"/>
<path d="M35 20.25L19.2122 28.325L17.8347 29.0314L15 30.4823V32.2172L17.8152 30.7764L20.2234 29.5439L31.8641 23.5854C31.9035 23.8887 31.9232 24.1942 31.9233 24.5C31.9226 25.7138 31.6058 26.9062 31.0045 27.959C30.4031 29.0118 29.5381 29.8882 28.4954 30.5014C27.4526 31.1146 26.2683 31.4431 25.06 31.4543C23.8518 31.4656 22.6616 31.1592 21.6077 30.5656L21.5231 30.6107L20.0288 31.3757C21.2912 32.2963 22.7824 32.8485 24.3377 32.9712C25.8929 33.0938 27.4516 32.7822 28.8416 32.0707C30.2316 31.3593 31.3988 30.2757 32.2141 28.9396C33.0294 27.6036 33.4612 26.0671 33.4617 24.5C33.4617 24.2816 33.4532 24.0631 33.4371 23.8472C33.4143 23.5432 33.4813 23.2391 33.6299 22.9733C33.7785 22.7074 34.002 22.4916 34.2723 22.3529L35 21.9806V20.25Z" fill="#2B2928"/>
</g>
<defs>
<linearGradient id="paint0_linear" x1="47.8409" y1="-1.72465e-07" x2="-2.59998" y2="48.8405" gradientUnits="userSpaceOnUse">
<stop stop-color="#CDB185"/>
<stop offset="1" stop-color="#EBD3AE"/>
</linearGradient>
<clipPath id="clip0">
<rect width="20" height="17" fill="white" transform="translate(15 16)"/>
</clipPath>
</defs>
</svg>
