<svg width="50" height="50" viewBox="0 0 50 50" fill="none" xmlns="http://www.w3.org/2000/svg">
<circle cx="25" cy="25" r="25" fill="url(#paint0_linear)"/>
<path d="M25 35C30.5417 35 35 30.5417 35 25C35 19.4583 30.5417 15 25 15C19.4583 15 15 19.4583 15 25C15 30.5417 19.4583 35 25 35Z" fill="#2B2928"/>
<path d="M27.7493 26.5835C27.7493 25.1252 26.8743 24.6252 25.1243 24.4169C23.8743 24.2502 23.6243 23.9169 23.6243 23.3335C23.6243 22.7501 24.041 22.3752 24.8743 22.3752C25.6243 22.3752 26.041 22.6252 26.2493 23.2502C26.291 23.3752 26.416 23.4585 26.541 23.4585H27.2076C27.3743 23.4585 27.4993 23.3335 27.4993 23.1669V23.1252C27.3326 22.2085 26.5826 21.5002 25.6243 21.4169V20.4169C25.6243 20.2502 25.4993 20.1252 25.291 20.0835H24.666C24.4993 20.0835 24.3743 20.2085 24.3326 20.4169V21.3752C23.0826 21.5419 22.291 22.3752 22.291 23.4169C22.291 24.7919 23.1243 25.3335 24.8743 25.5419C26.041 25.7502 26.416 26.0002 26.416 26.6669C26.416 27.3336 25.8326 27.7919 25.041 27.7919C23.9576 27.7919 23.5826 27.3335 23.4576 26.7085C23.416 26.5419 23.291 26.4585 23.166 26.4585H22.4576C22.291 26.4585 22.166 26.5835 22.166 26.7502V26.7919C22.3326 27.8335 22.9993 28.5835 24.3743 28.7919V29.7919C24.3743 29.9585 24.4993 30.0835 24.7076 30.1252H25.3326C25.4993 30.1252 25.6243 30.0002 25.666 29.7919V28.7919C26.916 28.5835 27.7493 27.7085 27.7493 26.5835Z" fill="#D8BE94"/>
<path d="M22.8758 30.9583C19.6258 29.7917 17.9591 26.1667 19.1675 22.9583C19.7925 21.2083 21.1675 19.875 22.8758 19.25C23.0425 19.1667 23.1258 19.0417 23.1258 18.8333V18.25C23.1258 18.0833 23.0425 17.9583 22.8758 17.9167C22.8341 17.9167 22.7508 17.9167 22.7091 17.9583C18.7508 19.2083 16.5841 23.4167 17.8341 27.375C18.5841 29.7083 20.3758 31.5 22.7091 32.25C22.8758 32.3333 23.0425 32.25 23.0841 32.0833C23.1258 32.0417 23.1258 32 23.1258 31.9167V31.3333C23.1258 31.2083 23.0008 31.0417 22.8758 30.9583ZM27.2925 17.9583C27.1258 17.875 26.9591 17.9583 26.9175 18.125C26.8758 18.1667 26.8758 18.2083 26.8758 18.2917V18.875C26.8758 19.0417 27.0008 19.2083 27.1258 19.2917C30.3758 20.4583 32.0425 24.0833 30.8341 27.2917C30.2091 29.0417 28.8341 30.375 27.1258 31C26.9591 31.0833 26.8758 31.2083 26.8758 31.4167V32C26.8758 32.1667 26.9591 32.2917 27.1258 32.3333C27.1675 32.3333 27.2508 32.3333 27.2925 32.2917C31.2508 31.0417 33.4175 26.8333 32.1675 22.875C31.4175 20.5 29.5841 18.7083 27.2925 17.9583Z" fill="#D8BE94"/>
<defs>
<linearGradient id="paint0_linear" x1="47.8409" y1="-1.72465e-07" x2="-2.59998" y2="48.8405" gradientUnits="userSpaceOnUse">
<stop stop-color="#CDB185"/>
<stop offset="1" stop-color="#EBD3AE"/>
</linearGradient>
</defs>
</svg>
