<svg width="50" height="50" viewBox="0 0 50 50" fill="none" xmlns="http://www.w3.org/2000/svg">
<circle cx="25" cy="25" r="25" fill="url(#paint0_linear)"/>
<g clip-path="url(#clip0)">
<path d="M22.8426 18.2337C22.593 18.198 22.5812 18.1862 22.7 18.1743C22.9258 18.1387 23.4487 18.1862 23.8171 18.2693C24.6727 18.471 25.4451 18.9932 26.2651 19.907L26.479 20.1563L26.7879 20.1088C28.107 19.8952 29.4617 20.0613 30.5907 20.5835C30.8996 20.7259 31.3869 21.0107 31.4463 21.0819C31.4701 21.1057 31.5057 21.26 31.5295 21.4143C31.6127 21.972 31.577 22.3874 31.3988 22.7079C31.3037 22.8859 31.3037 22.9333 31.3631 23.0876C31.4106 23.2063 31.5532 23.2894 31.684 23.2894C31.9692 23.2894 32.2663 22.8384 32.4089 22.2094L32.4683 21.9602L32.5752 22.0789C33.1813 22.7553 33.6566 23.6929 33.7279 24.3575L33.7517 24.5355L33.6447 24.3812C33.4665 24.1083 33.3001 23.9302 33.0743 23.776C32.6703 23.503 32.2425 23.4199 31.1136 23.3606C30.0916 23.3012 29.5093 23.2182 28.9389 23.0283C27.9644 22.7079 27.4653 22.2925 26.3126 20.7615C25.8016 20.085 25.4807 19.7171 25.1599 19.4086C24.4588 18.7321 23.7576 18.3761 22.8426 18.2337Z" fill="#2B2928"/>
<path d="M31.6968 19.7409C31.7205 19.29 31.78 18.9933 31.9107 18.7203C31.9582 18.6135 32.0057 18.5186 32.0176 18.5186C32.0295 18.5186 32.0057 18.6016 31.9701 18.6966C31.875 18.9577 31.8631 19.3256 31.9226 19.7409C32.0057 20.275 32.0414 20.3462 32.6118 20.9277C32.8732 21.2007 33.1822 21.5449 33.301 21.6873L33.5031 21.9484L33.301 21.7585C33.0515 21.5211 32.4811 21.0702 32.3504 21.0108C32.2672 20.9633 32.2553 20.9633 32.1959 21.0227C32.1483 21.0702 32.1365 21.1414 32.1365 21.4855C32.1246 22.0196 32.0533 22.3519 31.875 22.6961C31.78 22.8741 31.7681 22.8385 31.8513 22.6367C31.9107 22.4824 31.9226 22.4112 31.9226 21.9009C31.9226 20.8684 31.8037 20.6192 31.0788 20.2038C30.9006 20.097 30.5916 19.9427 30.4133 19.8596C30.2232 19.7766 30.0806 19.7053 30.0925 19.7053C30.1163 19.6816 30.8174 19.8834 31.0907 20.002C31.5066 20.1682 31.5779 20.1801 31.6255 20.1682C31.6611 20.1326 31.6849 20.0376 31.6968 19.7409Z" fill="#2B2928"/>
<path d="M23.3308 21.5093C22.8317 20.821 22.5109 19.7529 22.5822 18.9577L22.6059 18.7085L22.7248 18.7322C22.9387 18.7678 23.3071 18.9103 23.4853 19.0171C23.9606 19.3019 24.1745 19.6935 24.3766 20.6667C24.436 20.9515 24.5192 21.2838 24.5548 21.3906C24.6142 21.5687 24.84 21.984 25.0302 22.2451C25.1609 22.435 25.0777 22.53 24.7806 22.5062C24.329 22.4588 23.723 22.0434 23.3308 21.5093Z" fill="#2B2928"/>
<path d="M31.091 26.672C28.7381 25.7226 27.9062 24.9037 27.9062 23.5151C27.9062 23.3134 27.9181 23.1472 27.9181 23.1472C27.93 23.1472 28.0132 23.2184 28.1202 23.3015C28.5955 23.6813 29.1303 23.8474 30.6157 24.061C31.4832 24.1916 31.9823 24.2865 32.4339 24.4408C33.8718 24.9155 34.7631 25.8887 34.977 27.206C35.0364 27.5858 35.0007 28.3098 34.9057 28.6895C34.8225 28.9862 34.5848 29.5321 34.5254 29.544C34.5135 29.544 34.4897 29.4847 34.4897 29.3897C34.466 28.8913 34.2164 28.4166 33.8005 28.0487C33.3014 27.6214 32.6597 27.301 31.091 26.672Z" fill="#2B2928"/>
<path d="M29.4266 27.0634C29.4028 26.8854 29.3434 26.6599 29.3078 26.565L29.2483 26.387L29.3553 26.5175C29.5098 26.6955 29.6286 26.9092 29.7356 27.2058C29.8188 27.4313 29.8188 27.5025 29.8188 27.8705C29.8188 28.2265 29.8069 28.3096 29.7356 28.5113C29.6167 28.8318 29.4741 29.0572 29.2365 29.3065C28.8087 29.7456 28.2501 29.9829 27.4539 30.0897C27.3113 30.1016 26.9073 30.1372 26.5508 30.161C25.6595 30.2084 25.0653 30.3034 24.5306 30.4933C24.4593 30.517 24.388 30.5407 24.3761 30.5289C24.3523 30.5051 24.7207 30.2915 25.0178 30.1491C25.4337 29.9473 25.8615 29.8405 26.8003 29.6744C27.2638 29.6032 27.7391 29.5082 27.858 29.4608C29.0344 29.0928 29.6167 28.179 29.4266 27.0634Z" fill="#2B2928"/>
<path d="M30.5083 28.9741C30.1993 28.2977 30.128 27.6568 30.2944 27.0515C30.3181 26.9922 30.3419 26.9329 30.3657 26.9329C30.3894 26.9329 30.4607 26.9685 30.532 27.0159C30.6746 27.1109 30.9717 27.277 31.7323 27.6924C32.6949 28.2146 33.2415 28.6181 33.6218 29.081C33.9545 29.4845 34.1565 29.9473 34.2516 30.517C34.311 30.8374 34.2754 31.6088 34.1922 31.9292C33.9307 32.938 33.3366 33.745 32.4691 34.2079C32.3383 34.2791 32.2314 34.3266 32.2195 34.3266C32.2076 34.3266 32.2552 34.2079 32.3265 34.0655C32.6117 33.4602 32.6473 32.8787 32.4334 32.2259C32.3027 31.8224 32.0294 31.3359 31.4827 30.517C30.8291 29.5675 30.6746 29.3183 30.5083 28.9741Z" fill="#2B2928"/>
<path d="M21.6539 32.606C22.5332 31.8702 23.6146 31.348 24.6129 31.1818C25.0407 31.1106 25.7537 31.1343 26.1458 31.2412C26.7757 31.4073 27.3461 31.7633 27.6432 32.2025C27.9284 32.6297 28.0591 32.9976 28.1898 33.8165C28.2373 34.1369 28.2968 34.4692 28.3086 34.5404C28.4037 34.9677 28.5938 35.3 28.8315 35.478C29.1999 35.751 29.8416 35.7628 30.4714 35.5255C30.5784 35.4899 30.6735 35.4543 30.6735 35.4661C30.6972 35.4899 30.3764 35.7035 30.1625 35.8103C29.8654 35.9646 29.6277 36.0121 29.3069 36.0121C28.7364 36.0121 28.2492 35.7154 27.8571 35.122C27.7739 35.0033 27.6075 34.6591 27.4649 34.3387C27.049 33.3774 26.8351 33.0925 26.3479 32.7721C25.92 32.4992 25.3734 32.4398 24.9575 32.6416C24.4108 32.9027 24.2682 33.6029 24.6485 34.0301C24.803 34.2081 25.0882 34.3505 25.3259 34.3861C25.7656 34.4455 26.1458 34.1013 26.1458 33.6622C26.1458 33.3774 26.0389 33.2112 25.7537 33.0807C25.3734 32.9145 24.9575 33.1044 24.9694 33.4723C24.9694 33.6266 25.0407 33.7215 25.1951 33.7928C25.2902 33.8402 25.2902 33.8402 25.2189 33.8284C24.8743 33.7572 24.7911 33.3299 25.0644 33.0569C25.3972 32.7246 26.0983 32.8671 26.336 33.3299C26.431 33.5198 26.4429 33.8996 26.3597 34.1369C26.1577 34.6591 25.5873 34.9321 25.005 34.7778C24.6129 34.671 24.4465 34.5642 23.9711 34.0776C23.1393 33.2231 22.8184 33.0569 21.6301 32.8789L21.4043 32.8433L21.6539 32.606Z" fill="#2B2928"/>
<path fill-rule="evenodd" clip-rule="evenodd" d="M15.4026 13.5103C18.1715 16.8689 22.4377 22.0908 22.6516 22.3756C22.8298 22.613 22.7585 22.8385 22.4614 23.0046C22.2951 23.0996 21.9504 23.1945 21.7841 23.1945C21.5939 23.1945 21.3682 23.0996 21.2137 22.9453C21.1067 22.8385 20.6433 22.162 19.5975 20.5361C18.8013 19.29 18.1239 18.2575 18.1121 18.2456C18.0645 18.2219 18.0645 18.2219 19.5143 20.8091C20.4294 22.435 20.7264 23.0165 20.7264 23.0877C20.7264 23.242 20.6789 23.3251 20.4888 23.5387C20.1679 23.8947 20.0253 24.2982 19.9184 25.1409C19.7995 26.0784 19.4787 26.743 18.5636 27.8705C18.0289 28.5351 17.9457 28.6538 17.815 28.9267C17.6486 29.259 17.6011 29.4489 17.5773 29.8762C17.5535 30.3271 17.6011 30.612 17.7318 31.0392C17.8506 31.419 17.9813 31.6682 18.3022 32.1548C18.5755 32.582 18.7419 32.9025 18.7419 33.0212C18.7419 33.1161 18.7657 33.1161 19.1935 33.0212C20.2154 32.7838 21.0592 32.3803 21.5226 31.8818C21.8078 31.5733 21.8791 31.4071 21.8791 30.9799C21.8791 30.7069 21.8673 30.6476 21.796 30.4814C21.6771 30.2203 21.4513 30.0067 20.9641 29.6744C20.3224 29.2353 20.0491 28.8793 19.9778 28.4045C19.9184 28.001 19.9897 27.7281 20.3462 26.9804C20.7146 26.209 20.8096 25.8885 20.869 25.1053C20.9047 24.6068 20.9641 24.4051 21.1067 24.2508C21.2612 24.0846 21.3919 24.0253 21.7603 23.9778C22.3664 23.8947 22.7585 23.7405 23.0675 23.4438C23.3408 23.1945 23.4597 22.9453 23.4715 22.5774L23.4834 22.3044L23.3289 22.1383C22.7704 21.4974 15.0342 13 14.9986 13C14.9867 13 15.1768 13.2255 15.4026 13.5103ZM19.0509 30.3865C19.1816 30.161 19.1103 29.8762 18.8964 29.7337C18.6944 29.6032 18.3854 29.6625 18.3854 29.8406C18.3854 29.888 18.4092 29.9355 18.4805 29.9592C18.5874 30.0186 18.5993 30.0779 18.5161 30.2085C18.4329 30.339 18.4329 30.4577 18.5399 30.5408C18.7062 30.6713 18.932 30.6001 19.0509 30.3865Z" fill="#2B2928"/>
<path fill-rule="evenodd" clip-rule="evenodd" d="M23.8652 24.144C23.58 24.2271 23.3066 24.5356 23.2234 24.8442C23.1759 25.0341 23.1997 25.3783 23.2829 25.4851C23.4136 25.6512 23.5324 25.6987 23.8652 25.6987C24.5188 25.6987 25.0773 25.4139 25.1367 25.0697C25.1961 24.7849 24.9466 24.3932 24.6019 24.2152C24.4237 24.1203 24.0553 24.0847 23.8652 24.144ZM24.6257 24.7374C24.7208 24.595 24.6851 24.4407 24.5069 24.3339C24.186 24.1321 23.6988 24.2983 23.6988 24.6068C23.6988 24.7611 23.9483 24.9273 24.186 24.9273C24.3405 24.9273 24.5544 24.8323 24.6257 24.7374Z" fill="#2B2928"/>
</g>
<defs>
<linearGradient id="paint0_linear" x1="47.8409" y1="-1.72465e-07" x2="-2.59998" y2="48.8405" gradientUnits="userSpaceOnUse">
<stop stop-color="#CDB185"/>
<stop offset="1" stop-color="#EBD3AE"/>
</linearGradient>
<clipPath id="clip0">
<rect width="20" height="23" fill="white" transform="translate(15 13)"/>
</clipPath>
</defs>
</svg>
