<svg width="50" height="50" viewBox="0 0 50 50" fill="none" xmlns="http://www.w3.org/2000/svg">
<circle cx="25" cy="25" r="25" fill="url(#paint0_linear)"/>
<g clip-path="url(#clip0)">
<path d="M34.6868 27.4322C33.3513 32.7894 27.9253 36.0497 22.5675 34.7138C17.2119 33.3782 13.9516 27.9519 15.2878 22.5952C16.6228 17.2374 22.0487 13.9768 27.4049 15.3124C32.7623 16.648 36.0224 22.0749 34.6867 27.4323L34.6868 27.4322H34.6868Z" fill="#2B2928"/>
<path d="M29.4099 23.5731C29.6089 22.2423 28.5957 21.527 27.2103 21.0497L27.6597 19.2471L26.5624 18.9737L26.1249 20.7289C25.8364 20.6569 25.5401 20.5891 25.2457 20.5219L25.6864 18.7551L24.5897 18.4817L24.1401 20.2838C23.9013 20.2294 23.6669 20.1757 23.4394 20.1191L23.4406 20.1134L21.9274 19.7355L21.6355 20.9076C21.6355 20.9076 22.4496 21.0942 22.4325 21.1057C22.8768 21.2166 22.9572 21.5107 22.9438 21.7439L22.4319 23.7975C22.4625 23.8053 22.5022 23.8165 22.546 23.8341C22.5093 23.8251 22.4704 23.8151 22.43 23.8055L21.7124 26.6823C21.6581 26.8173 21.5202 27.0199 21.2096 26.943C21.2206 26.9589 20.412 26.744 20.412 26.744L19.8672 28.0001L21.2952 28.356C21.5608 28.4227 21.8212 28.4924 22.0775 28.5579L21.6235 30.3813L22.7195 30.6547L23.1692 28.8507C23.4686 28.932 23.7592 29.007 24.0437 29.0776L23.5955 30.8731L24.6929 31.1466L25.147 29.3266C27.0181 29.6808 28.4251 29.538 29.0174 27.8455C29.4946 26.4829 28.9936 25.6969 28.0092 25.1843C28.7262 25.019 29.2662 24.5474 29.4102 23.5732L29.4099 23.573L29.4099 23.5731ZM26.9027 27.0888C26.5636 28.4514 24.2693 27.7148 23.5254 27.5301L24.128 25.1145C24.8718 25.3002 27.2571 25.6676 26.9027 27.0888H26.9027ZM27.2421 23.5533C26.9327 24.7928 25.0231 24.1631 24.4037 24.0087L24.95 21.8179C25.5695 21.9723 27.5643 22.2605 27.2422 23.5533H27.2421Z" fill="#D9BE95"/>
</g>
<defs>
<linearGradient id="paint0_linear" x1="47.8409" y1="-1.72465e-07" x2="-2.59998" y2="48.8405" gradientUnits="userSpaceOnUse">
<stop stop-color="#CDB185"/>
<stop offset="1" stop-color="#EBD3AE"/>
</linearGradient>
<clipPath id="clip0">
<rect width="20" height="20" fill="white" transform="translate(15 15)"/>
</clipPath>
</defs>
</svg>
