<svg width="50" height="50" viewBox="0 0 50 50" fill="none" xmlns="http://www.w3.org/2000/svg">
<circle cx="25" cy="25" r="25" fill="url(#paint0_linear)"/>
<g clip-path="url(#clip0)">
<path fill-rule="evenodd" clip-rule="evenodd" d="M18.6636 16.0835L15.0169 23.5682C15.0031 23.596 14.9987 23.6275 15.0044 23.6579C15.0101 23.6884 15.0257 23.7162 15.0488 23.7374L24.8976 32.9591C24.9256 32.9853 24.9629 33 25.0016 33C25.0404 33 25.0776 32.9853 25.1056 32.9591L34.9545 23.738C34.9776 23.7168 34.9931 23.6889 34.9989 23.6585C35.0046 23.628 35.0002 23.5966 34.9863 23.5687L31.3396 16.0841C31.3278 16.0589 31.3089 16.0376 31.2851 16.0227C31.2613 16.0078 31.2335 15.9999 31.2053 16H18.7992C18.7707 15.9997 18.7428 16.0074 18.7188 16.0222C18.6947 16.037 18.6756 16.0583 18.6636 16.0835Z" fill="#2B2928"/>
<path fill-rule="evenodd" clip-rule="evenodd" d="M26.2652 24.3367C26.1945 24.3419 25.8292 24.3632 25.0143 24.3632C24.3661 24.3632 23.9059 24.3442 23.7445 24.3367C21.2397 24.2291 19.3701 23.803 19.3701 23.2929C19.3701 22.7828 21.2397 22.3573 23.7445 22.2479V23.9124C23.9083 23.9239 24.3773 23.951 25.0255 23.951C25.8032 23.951 26.1927 23.9193 26.2628 23.913V22.2491C28.7623 22.3579 30.6278 22.7839 30.6278 23.2929C30.6278 23.8019 28.7629 24.2279 26.2628 24.3361L26.2652 24.3367ZM26.2652 22.0769V20.5875H29.7534V18.3162H20.2563V20.5875H23.7439V22.0763C20.9092 22.2036 18.7773 22.7523 18.7773 23.4098C18.7773 24.0673 20.9092 24.6154 23.7439 24.7432V29.5161H26.2646V24.7415C29.0929 24.6142 31.2211 24.0661 31.2211 23.4092C31.2211 22.7523 29.0946 22.2042 26.2646 22.0763L26.2652 22.0769Z" fill="#D8BD94"/>
</g>
<defs>
<linearGradient id="paint0_linear" x1="47.8409" y1="-1.72465e-07" x2="-2.59998" y2="48.8405" gradientUnits="userSpaceOnUse">
<stop stop-color="#CDB185"/>
<stop offset="1" stop-color="#EBD3AE"/>
</linearGradient>
<clipPath id="clip0">
<rect width="20" height="17" fill="white" transform="translate(15 16)"/>
</clipPath>
</defs>
</svg>
