<svg width="50" height="50" viewBox="0 0 50 50" fill="none" xmlns="http://www.w3.org/2000/svg">
<circle cx="25" cy="25" r="25" fill="url(#paint0_linear)"/>
<path d="M32.0707 16H34.9613L28.9457 22.1136C26.7672 24.3264 23.2352 24.3264 21.0551 22.1136L15.0371 16H17.9301L22.5004 20.6441C23.1663 21.3178 24.0637 21.6954 24.9986 21.6954C25.9336 21.6954 26.831 21.3178 27.4969 20.6441L32.0707 16Z" fill="#2B2928"/>
<path d="M17.8926 33.0001H15L21.0547 26.8488C23.2332 24.636 26.7652 24.636 28.9453 26.8488L35 33.0001H32.1094L27.5 28.3183C26.8341 27.6446 25.9367 27.267 25.0018 27.267C24.0668 27.267 23.1694 27.6446 22.5035 28.3183L17.8926 33.0001Z" fill="#2B2928"/>
<defs>
<linearGradient id="paint0_linear" x1="47.8409" y1="-1.72465e-07" x2="-2.59998" y2="48.8405" gradientUnits="userSpaceOnUse">
<stop stop-color="#CDB185"/>
<stop offset="1" stop-color="#EBD3AE"/>
</linearGradient>
</defs>
</svg>
