<svg width="50" height="50" viewBox="0 0 50 50" fill="none" xmlns="http://www.w3.org/2000/svg">
<circle cx="25" cy="25" r="25" fill="url(#paint0_linear)"/>
<path d="M25.1341 11C19.5466 11.0227 15.0224 15.5888 15 21.2283C15 22.3577 15.1806 23.4795 15.5344 24.5507C15.7984 25.2799 16.5818 25.6726 17.3171 25.4471C18.0278 25.172 18.4051 24.3878 18.1785 23.6543C17.8782 22.8194 17.7446 21.9338 17.7842 21.0471C17.906 16.9739 21.2759 13.7712 25.3115 13.8942C29.3472 14.0171 32.5204 17.4183 32.3986 21.4915C32.2842 25.3047 29.3088 28.4017 25.5349 28.6336C25.5349 28.6336 24.1124 28.721 23.4049 28.8084C23.1441 28.8461 22.8854 28.8979 22.63 28.9637C22.5937 29.0014 22.5349 29.0014 22.4975 28.9648L22.4964 28.9637C22.4707 28.9302 22.4707 28.8828 22.4964 28.8493L22.7166 27.6369L24.0525 21.5724C24.2128 20.8151 23.7351 20.0698 22.9848 19.908C22.2345 19.7461 21.496 20.2283 21.3357 20.9856C21.3357 20.9856 18.1582 35.8296 18.1582 35.9645C17.9765 36.6861 18.4083 37.4197 19.1233 37.603C19.1308 37.6052 19.1394 37.6074 19.1468 37.6084H19.2206C19.9345 37.795 20.6634 37.3614 20.8473 36.6408C20.8505 36.629 20.8537 36.6171 20.8558 36.6042C20.8537 36.5815 20.8537 36.5588 20.8558 36.5373C20.8954 36.3625 21.2962 34.3874 21.2962 34.3874C21.5997 32.8966 22.7903 31.7543 24.2802 31.5235C24.5869 31.476 25.8759 31.3886 25.8759 31.3886C31.442 30.8288 35.5045 25.8203 34.9487 20.2024C34.4421 15.0786 30.2365 11.1338 25.1341 11Z" fill="#2B2928"/>
<path d="M25.7488 34.5837C24.835 34.3917 23.9415 34.9839 23.7513 35.9052C23.7492 35.9138 23.7481 35.9224 23.746 35.9311C23.5482 36.8469 24.1232 37.7519 25.0317 37.9515C25.0328 37.9515 25.0338 37.9515 25.0349 37.9525H25.0819C25.9711 38.1694 26.8657 37.6171 27.0795 36.7207C27.0816 36.7142 27.0827 36.7066 27.0848 36.7002V36.6063C27.2419 35.6808 26.6562 34.793 25.7488 34.5837Z" fill="#2B2928"/>
<defs>
<linearGradient id="paint0_linear" x1="47.8409" y1="-1.72465e-07" x2="-2.59998" y2="48.8405" gradientUnits="userSpaceOnUse">
<stop stop-color="#CDB185"/>
<stop offset="1" stop-color="#EBD3AE"/>
</linearGradient>
</defs>
</svg>
