<svg width="50" height="50" viewBox="0 0 50 50" fill="none" xmlns="http://www.w3.org/2000/svg">
<circle cx="25" cy="25" r="25" fill="url(#paint0_linear)"/>
<g clip-path="url(#clip0)">
<path d="M20.4827 24.9352C20.44 25.6573 21.0107 26.2755 21.752 26.317C21.7787 26.317 21.8054 26.317 21.832 26.317C22.5787 26.317 23.1814 25.73 23.1761 25.0027C23.1761 24.2755 22.5734 23.6884 21.8267 23.6936C21.112 23.6936 20.52 24.2391 20.4827 24.9352Z" fill="#2B2928"/>
<path d="M15.4591 24.5976C15.2191 24.582 15.0111 24.7638 15.0004 24.9976C14.9898 25.2314 15.1711 25.434 15.4111 25.4444C15.6511 25.4599 15.8538 25.2781 15.8698 25.0444C15.8858 24.8106 15.6991 24.6132 15.4591 24.5976Z" fill="#2B2928"/>
<path d="M20.3982 17.3195C20.6115 17.2156 20.6969 16.9559 20.5902 16.7481C20.4835 16.5403 20.2169 16.4572 20.0035 16.5611C19.7902 16.665 19.7049 16.9195 19.8115 17.1273C19.9182 17.3403 20.1795 17.4286 20.3982 17.3195C20.3929 17.3195 20.3982 17.3195 20.3982 17.3195Z" fill="#2B2928"/>
<path d="M21.7633 19.6415C22.094 19.4805 22.2273 19.0857 22.062 18.7636C21.8966 18.4415 21.4913 18.3116 21.1606 18.4727C20.83 18.6337 20.6966 19.0285 20.862 19.3506C21.0273 19.6727 21.4326 19.8026 21.7633 19.6415Z" fill="#2B2928"/>
<path d="M17.166 21.2365C17.422 21.3976 17.7633 21.33 17.934 21.0807C18.0993 20.8313 18.03 20.4989 17.774 20.3326C17.518 20.1716 17.1767 20.2391 17.006 20.4885C16.8353 20.7378 16.91 21.0755 17.166 21.2365Z" fill="#2B2928"/>
<path d="M17.982 24.3639C17.6086 24.3431 17.2939 24.6184 17.2726 24.9821C17.2513 25.3457 17.5339 25.6522 17.9073 25.673C18.2806 25.6938 18.5953 25.4184 18.6166 25.0548C18.638 24.6964 18.3553 24.3847 17.982 24.3639Z" fill="#2B2928"/>
<path d="M17.2405 28.7639C16.9685 28.8989 16.8565 29.221 16.9952 29.4911C17.1338 29.7561 17.4645 29.8652 17.7418 29.7301C18.0138 29.595 18.1258 29.273 17.9872 29.0028C17.8485 28.7379 17.5125 28.6288 17.2405 28.7639Z" fill="#2B2928"/>
<path d="M19.8535 23.008C20.2215 23.2417 20.7122 23.143 20.9468 22.7846C21.1868 22.4261 21.0855 21.9482 20.7175 21.7197C20.3495 21.4859 19.8588 21.5846 19.6242 21.943C19.3842 22.2963 19.4855 22.7742 19.8535 23.008Z" fill="#2B2928"/>
<path d="M28.1474 19.5897C28.4568 19.7871 28.8781 19.7039 29.0808 19.4026C29.2834 19.1013 29.1981 18.6909 28.8888 18.4935C28.5794 18.2961 28.1581 18.3793 27.9554 18.6806C27.7474 18.9871 27.8328 19.3922 28.1474 19.5897Z" fill="#2B2928"/>
<path d="M29.524 17.278C29.7267 17.4079 29.9934 17.3507 30.1267 17.1533C30.26 16.9559 30.2014 16.6962 29.9987 16.5663C29.796 16.4365 29.5294 16.4936 29.396 16.6858C29.268 16.8832 29.3267 17.1481 29.524 17.278Z" fill="#2B2928"/>
<path d="M28.249 23.6831C27.5077 23.6415 26.8677 24.1974 26.8304 24.9195C26.7877 25.6415 27.3584 26.2649 28.0997 26.3013C28.1264 26.3013 28.153 26.3013 28.1744 26.3013C28.9157 26.3013 29.5184 25.7143 29.5184 24.987C29.5237 24.2961 28.9637 23.7195 28.249 23.6831Z" fill="#2B2928"/>
<path d="M22.2058 22.9143C22.4351 23.3558 22.8991 23.6364 23.4111 23.6364C24.1524 23.6364 24.7551 23.0493 24.7551 22.3221C24.7551 22.1195 24.7071 21.9169 24.6111 21.7299C24.2751 21.0805 23.4644 20.8208 22.8031 21.148C22.1364 21.4805 21.8698 22.2701 22.2058 22.9143Z" fill="#2B2928"/>
<path d="M32.7604 21.2365C33.0324 21.1014 33.1391 20.7742 33.0004 20.5092C32.8618 20.2443 32.5258 20.1404 32.2538 20.2755C31.9818 20.4105 31.8751 20.7326 32.0084 20.9975C32.1524 21.2625 32.4831 21.3716 32.7604 21.2365Z" fill="#2B2928"/>
<path d="M29.3468 21.6522C28.9575 21.8444 28.7975 22.3067 28.9948 22.686C29.1921 23.0652 29.6668 23.221 30.0561 23.0288C30.4455 22.8366 30.6055 22.3743 30.4081 21.995C30.2108 21.6158 29.7361 21.4652 29.3468 21.6522Z" fill="#2B2928"/>
<path d="M24.9473 17.0806C25.2513 17.0961 25.5126 16.8676 25.5339 16.5715C25.5553 16.2754 25.3153 16.0208 25.0113 16C24.7073 15.9845 24.4459 16.2078 24.4246 16.5039C24.4086 16.8052 24.6433 17.0598 24.9473 17.0806Z" fill="#2B2928"/>
<path d="M24.941 20.4729C25.3783 20.4989 25.7517 20.1716 25.773 19.7457C25.7997 19.3197 25.4637 18.9561 25.0263 18.9353C24.589 18.9093 24.2157 19.2366 24.1943 19.6626C24.173 20.0885 24.5037 20.4522 24.941 20.4729Z" fill="#2B2928"/>
<path d="M20.6538 28.348C21.0431 28.1558 21.2031 27.6934 21.0058 27.3142C20.8085 26.935 20.3338 26.7792 19.9445 26.9714C19.5551 27.1636 19.3951 27.6259 19.5925 28.0051C19.7898 28.3843 20.2645 28.5402 20.6538 28.348Z" fill="#2B2928"/>
<path d="M25.454 21.6C25.0486 22.2078 25.2193 23.0182 25.8433 23.413C26.4673 23.8078 27.2993 23.6416 27.7046 23.0338C28.11 22.426 27.9393 21.6156 27.3153 21.2208C27.0966 21.0805 26.8406 21.0078 26.5793 21.0078C26.126 21.0078 25.7046 21.2312 25.454 21.6Z" fill="#2B2928"/>
<path d="M27.7947 27.0858C27.4587 26.4365 26.648 26.1767 25.9867 26.504C25.32 26.8313 25.0534 27.6209 25.3894 28.265C25.7254 28.9144 26.536 29.1741 27.1974 28.8469C27.8587 28.5248 28.1307 27.7456 27.8 27.0962C27.8 27.091 27.8 27.091 27.7947 27.0858Z" fill="#2B2928"/>
<path d="M30.1472 26.9924C29.7792 26.7586 29.2885 26.8573 29.0538 27.2157C28.8138 27.5742 28.9152 28.0521 29.2832 28.2807C29.6512 28.5144 30.1418 28.4157 30.3765 28.0573C30.6165 27.704 30.5152 27.2261 30.1472 26.9924Z" fill="#2B2928"/>
<path d="M32.7279 25.0236C32.7493 24.6599 32.4666 24.3534 32.0933 24.3326C31.7199 24.3119 31.4053 24.5872 31.3839 24.9508C31.3626 25.3145 31.6453 25.621 32.0186 25.6417C32.3866 25.6625 32.7066 25.382 32.7279 25.0236Z" fill="#2B2928"/>
<path d="M34.59 24.5559C34.35 24.5403 34.142 24.7221 34.1313 24.9559C34.1206 25.1896 34.302 25.3922 34.542 25.4026C34.782 25.4182 34.9846 25.2364 35.0006 25.0026C35.0113 24.7689 34.83 24.5714 34.59 24.5559Z" fill="#2B2928"/>
<path d="M32.8361 28.7638C32.5801 28.6027 32.2388 28.6703 32.0681 28.9196C31.9028 29.169 31.9721 29.5014 32.2281 29.6677C32.4841 29.8287 32.8254 29.7612 32.9961 29.5118C33.1668 29.2625 33.0921 28.9248 32.8361 28.7638Z" fill="#2B2928"/>
<path d="M20.4734 32.7221C20.2707 32.5922 20.004 32.6494 19.8707 32.8416C19.7374 33.039 19.796 33.2987 19.9934 33.4286C20.196 33.5585 20.4627 33.5013 20.596 33.3091C20.7347 33.1169 20.676 32.852 20.4734 32.7221Z" fill="#2B2928"/>
<path d="M29.6032 32.6807C29.3898 32.7846 29.3045 33.0443 29.4112 33.2521C29.5178 33.4599 29.7845 33.543 29.9978 33.4391C30.2112 33.3352 30.2965 33.0807 30.1898 32.8729C30.0832 32.6599 29.8218 32.5716 29.6032 32.6807C29.6085 32.6807 29.6032 32.6807 29.6032 32.6807Z" fill="#2B2928"/>
<path d="M24.5463 28.4C24.9516 27.7922 24.781 26.9818 24.157 26.5818C23.533 26.187 22.701 26.3532 22.2903 26.961C21.8796 27.5688 22.0556 28.3792 22.6796 28.7792C22.8983 28.9195 23.1543 28.9922 23.4156 28.9922C23.8743 28.9974 24.2956 28.774 24.5463 28.4Z" fill="#2B2928"/>
<path d="M21.8538 30.4105C21.5445 30.2131 21.1231 30.2963 20.9205 30.5976C20.7178 30.8989 20.8031 31.3092 21.1125 31.5066C21.4218 31.704 21.8431 31.6209 22.0458 31.3196C22.2538 31.0183 22.1685 30.6079 21.8538 30.4105Z" fill="#2B2928"/>
<path d="M24.9942 32.9195C24.6902 32.9039 24.4289 33.1324 24.4076 33.4285C24.3862 33.7246 24.6262 33.9792 24.9302 34C25.2342 34.0156 25.4956 33.7922 25.5169 33.4961C25.5329 33.1948 25.2982 32.9402 24.9942 32.9195Z" fill="#2B2928"/>
<path d="M24.9995 29.5273C24.5622 29.5014 24.1888 29.8286 24.1675 30.2546C24.1408 30.6806 24.4768 31.0442 24.9142 31.065C25.3515 31.0858 25.7248 30.7637 25.7462 30.3377C25.7728 29.9169 25.4368 29.5481 24.9995 29.5273Z" fill="#2B2928"/>
<path d="M28.2369 30.3585C27.9062 30.5247 27.7729 30.9195 27.9436 31.2416C28.1142 31.5637 28.5196 31.6936 28.8502 31.5273C29.1809 31.3663 29.3142 30.9715 29.1489 30.6494C28.9782 30.3273 28.5729 30.1923 28.2369 30.3585Z" fill="#2B2928"/>
</g>
<defs>
<linearGradient id="paint0_linear" x1="47.8409" y1="-1.72465e-07" x2="-2.59998" y2="48.8405" gradientUnits="userSpaceOnUse">
<stop stop-color="#CDB185"/>
<stop offset="1" stop-color="#EBD3AE"/>
</linearGradient>
<clipPath id="clip0">
<rect width="20" height="18" fill="white" transform="translate(15 16)"/>
</clipPath>
</defs>
</svg>
