<svg width="43" height="31" viewBox="0 0 43 31" fill="none" xmlns="http://www.w3.org/2000/svg">
<path d="M42.114 5.38285C41.6185 3.54683 40.1661 2.09951 38.3242 1.60512C34.9594 0.6875 21.4995 0.6875 21.4995 0.6875C21.4995 0.6875 8.04021 0.6875 4.67531 1.57033C2.86886 2.06419 1.38102 3.54709 0.885512 5.38285C0 8.7363 0 15.6909 0 15.6909C0 15.6909 0 22.6806 0.885512 25.999C1.38155 27.8347 2.83343 29.2821 4.67558 29.7765C8.07564 30.6943 21.5 30.6943 21.5 30.6943C21.5 30.6943 34.9594 30.6943 38.3242 29.8115C40.1664 29.3174 41.6185 27.8701 42.1146 26.0343C42.9998 22.6806 42.9998 15.7262 42.9998 15.7262C42.9998 15.7262 43.0353 8.7363 42.114 5.38285ZM17.2142 22.1158V9.266L28.4067 15.6909L17.2142 22.1158Z" fill="url(#paint0_linear)"/>
<defs>
<linearGradient id="paint0_linear" x1="41.1432" y1="0.6875" x2="12.411" y2="40.5546" gradientUnits="userSpaceOnUse">
<stop stop-color="#CDB185"/>
<stop offset="1" stop-color="#EBD3AE"/>
</linearGradient>
</defs>
</svg>
