<svg width="38" height="23" viewBox="0 0 38 23" fill="none" xmlns="http://www.w3.org/2000/svg">
<path d="M31.5332 13.3068C30.9188 12.5367 31.0946 12.194 31.5332 11.5056C31.5411 11.4977 36.6127 4.54095 37.1352 2.18168L37.1384 2.18011C37.398 1.32034 37.1384 0.688477 35.8827 0.688477H31.7279C30.6702 0.688477 30.1825 1.23075 29.9213 1.83746C29.9213 1.83746 27.8059 6.86406 24.8133 10.1224C23.8474 11.0639 23.4009 11.3657 22.8736 11.3657C22.614 11.3657 22.2102 11.0639 22.2102 10.2041V2.18011C22.2102 1.14901 21.9141 0.688477 21.0385 0.688477H14.5054C13.842 0.688477 13.4477 1.16945 13.4477 1.61741C13.4477 2.59506 14.944 2.81983 15.0992 5.57047V11.5386C15.0992 12.8463 14.8601 13.0868 14.3297 13.0868C12.9173 13.0868 9.48925 8.03976 7.45776 2.26341C7.04766 1.14273 6.64706 0.690048 5.58144 0.690048H1.42505C0.239092 0.690048 0 1.23232 0 1.83903C0 2.91099 1.41238 8.24095 6.56789 15.2826C10.0038 20.0891 14.8427 22.6936 19.2445 22.6936C21.8903 22.6936 22.2134 22.1152 22.2134 21.1202C22.2134 16.5275 21.9743 16.0936 23.2996 16.0936C23.9139 16.0936 24.9716 16.3954 27.4417 18.7138C30.2649 21.4629 30.7288 22.6936 32.309 22.6936H36.4638C37.6482 22.6936 38.2483 22.1152 37.9031 20.9741C37.113 18.5739 31.7739 13.6369 31.5332 13.3068Z" fill="url(#paint0_linear)"/>
<defs>
<linearGradient id="paint0_linear" x1="36.3591" y1="0.688476" x2="16.7914" y2="33.4073" gradientUnits="userSpaceOnUse">
<stop stop-color="#CDB185"/>
<stop offset="1" stop-color="#EBD3AE"/>
</linearGradient>
</defs>
</svg>
