<svg width="17" height="31" viewBox="0 0 17 31" fill="none" xmlns="http://www.w3.org/2000/svg">
<path d="M15.6087 0.693743L11.7184 0.6875C7.34775 0.6875 4.52325 3.58601 4.52325 8.07222V11.4771H0.611715C0.273711 11.4771 0 11.7512 0 12.0892V17.0225C0 17.3606 0.274023 17.6343 0.611715 17.6343H4.52325V30.0825C4.52325 30.4206 4.79696 30.6943 5.13497 30.6943H10.2384C10.5764 30.6943 10.8501 30.4202 10.8501 30.0825V17.6343H15.4236C15.7616 17.6343 16.0353 17.3606 16.0353 17.0225L16.0372 12.0892C16.0372 11.9269 15.9726 11.7715 15.8581 11.6566C15.7435 11.5417 15.5875 11.4771 15.4252 11.4771H10.8501V8.59074C10.8501 7.20345 11.1806 6.49919 12.9874 6.49919L15.6081 6.49826C15.9458 6.49826 16.2195 6.22417 16.2195 5.8864V1.3056C16.2195 0.968142 15.9461 0.694368 15.6087 0.693743Z" fill="url(#paint0_linear)"/>
<defs>
<linearGradient id="paint0_linear" x1="15.5191" y1="0.6875" x2="-9.36717" y2="13.7124" gradientUnits="userSpaceOnUse">
<stop stop-color="#CDB185"/>
<stop offset="1" stop-color="#EBD3AE"/>
</linearGradient>
</defs>
</svg>
