<svg width="30" height="25" viewBox="0 0 30 25" fill="none" xmlns="http://www.w3.org/2000/svg">
<path d="M30 3.5294C28.8844 4.01135 27.6956 4.33081 26.4562 4.48593C27.7312 3.73621 28.7044 2.55809 29.1619 1.13807C27.9731 1.83608 26.6606 2.32911 25.2619 2.60426C24.1331 1.42059 22.5244 0.6875 20.7694 0.6875C17.3644 0.6875 14.6231 3.40937 14.6231 6.74615C14.6231 7.22626 14.6644 7.68791 14.7656 8.12739C9.6525 7.8818 5.12813 5.46831 2.08875 1.79176C1.55812 2.69843 1.24688 3.73621 1.24688 4.8534C1.24688 6.95112 2.34375 8.81063 3.97875 9.88719C2.99062 9.86872 2.02125 9.5862 1.2 9.14117C1.2 9.15964 1.2 9.18364 1.2 9.20765C1.2 12.1511 3.33187 14.596 6.1275 15.1592C5.62687 15.294 5.08125 15.3586 4.515 15.3586C4.12125 15.3586 3.72375 15.3365 3.35062 15.2552C4.1475 17.6539 6.40875 19.4174 9.0975 19.4747C7.005 21.0867 4.34812 22.058 1.47188 22.058C0.9675 22.058 0.48375 22.0359 0 21.9749C2.72438 23.7052 5.95312 24.6931 9.435 24.6931C20.7525 24.6931 26.94 15.4602 26.94 7.45708C26.94 7.18933 26.9306 6.93081 26.9175 6.67413C28.1381 5.82101 29.1637 4.75553 30 3.5294Z" fill="url(#paint0_linear)"/>
<defs>
<linearGradient id="paint0_linear" x1="28.7045" y1="0.6875" x2="4.90852" y2="29.482" gradientUnits="userSpaceOnUse">
<stop stop-color="#CDB185"/>
<stop offset="1" stop-color="#EBD3AE"/>
</linearGradient>
</defs>
</svg>
