<svg width="30" height="30" viewBox="0 0 30 30" fill="none" xmlns="http://www.w3.org/2000/svg">
<g clip-path="url(#clip0)">
<path d="M5.90122 16.1016C5.13497 17.6079 6.00497 18.3279 7.98997 19.5579C9.67747 20.6004 12.0087 20.9816 13.5062 21.1341C12.8925 21.7241 15.705 19.0191 7.60497 26.8104C5.88747 28.4566 8.65247 31.0979 10.3687 29.4866L15.015 25.0054C16.7937 26.7166 18.4987 28.3566 19.6612 29.4928C21.3787 31.1103 24.1425 28.4916 22.4437 26.8166C22.3162 26.6953 16.1475 20.7779 16.5237 21.1404C18.04 20.9879 20.3362 20.5841 22.0037 19.5641L22.0025 19.5629C23.9875 18.3266 24.8575 17.6079 24.1025 16.1016C23.6462 15.2466 22.4162 14.5316 20.7787 15.7679C20.7787 15.7679 18.5675 17.4616 15.0012 17.4616C11.4337 17.4616 9.22372 15.7679 9.22372 15.7679C7.58747 14.5254 6.35247 15.2466 5.90122 16.1016Z" fill="url(#paint0_linear)"/>
<path d="M14.9984 15.1775C19.3459 15.1775 22.8959 11.78 22.8959 7.5975C22.8959 3.3975 19.3459 0 14.9984 0C10.6496 0 7.09961 3.3975 7.09961 7.5975C7.09961 11.78 10.6496 15.1775 14.9984 15.1775ZM14.9984 3.84875C17.1346 3.84875 18.8771 5.525 18.8771 7.5975C18.8771 9.6525 17.1346 11.3288 14.9984 11.3288C12.8621 11.3288 11.1196 9.6525 11.1196 7.5975C11.1184 5.52375 12.8609 3.84875 14.9984 3.84875Z" fill="url(#paint1_linear)"/>
</g>
<defs>
<linearGradient id="paint0_linear" x1="23.5628" y1="15.1016" x2="8.81336" y2="33.072" gradientUnits="userSpaceOnUse">
<stop stop-color="#CDB185"/>
<stop offset="1" stop-color="#EBD3AE"/>
</linearGradient>
<linearGradient id="paint1_linear" x1="22.2137" y1="-5.23519e-08" x2="6.89491" y2="15.4375" gradientUnits="userSpaceOnUse">
<stop stop-color="#CDB185"/>
<stop offset="1" stop-color="#EBD3AE"/>
</linearGradient>
<clipPath id="clip0">
<rect width="30" height="30" fill="white"/>
</clipPath>
</defs>
</svg>
