<svg width="30" height="30" viewBox="0 0 30 30" fill="none" xmlns="http://www.w3.org/2000/svg">
<g clip-path="url(#clip0)">
<path d="M29.1363 18.1828C31.3088 8.42025 22.7563 -0.448497 12.7125 1.254C7.26 -2.12975 0 1.694 0 8.1815C0 9.69025 0.41625 11.1028 1.14 12.3203C-0.87875 22.1053 7.74375 30.8465 17.7788 29.0278C24.8725 32.779 32.7113 25.2978 29.1363 18.1828ZM19.5888 24.0703C16.9538 25.154 12.6175 25.1603 9.99375 23.7865C6.2525 21.7915 5.5875 17.3003 8.815 17.3003C11.2475 17.3003 10.4775 20.1365 12.9338 21.2928C14.0613 21.814 16.485 21.8678 17.8938 20.9178C19.285 19.9865 19.1575 18.5215 18.4013 17.8215C16.3975 15.9715 10.6638 16.7065 8.0425 13.4678C6.90375 12.0628 6.68875 9.584 8.08875 7.7865C10.5288 4.6465 17.6888 4.45525 20.7675 6.8265C23.61 9.0265 22.8425 11.9465 20.5488 11.9465C17.79 11.9465 19.24 8.3365 14.7863 8.3365C11.5575 8.3365 10.2875 10.6328 12.5613 11.7503C15.6438 13.2815 23.4988 12.7703 23.4988 18.754C23.4925 21.244 21.9663 23.1003 19.5888 24.0703Z" fill="url(#paint0_linear)"/>
</g>
<defs>
<linearGradient id="paint0_linear" x1="28.7331" y1="-0.00390635" x2="-1.56536" y2="29.3294" gradientUnits="userSpaceOnUse">
<stop stop-color="#CDB185"/>
<stop offset="1" stop-color="#EBD3AE"/>
</linearGradient>
<clipPath id="clip0">
<rect width="30" height="30" fill="white"/>
</clipPath>
</defs>
</svg>
