<svg width="31" height="32" viewBox="0 0 31 32" fill="none" xmlns="http://www.w3.org/2000/svg">
<path d="M26.1112 13.7095C26.1484 9.33787 22.4259 5.3302 17.8132 4.77602C17.7215 4.76513 17.6215 4.74857 17.5157 4.73104C17.2874 4.6932 17.0512 4.6543 16.8129 4.6543C15.8675 4.6543 15.6148 5.31855 15.5483 5.71471C15.4836 6.0999 15.5453 6.42336 15.7314 6.67652C16.0445 7.10235 16.5954 7.17794 17.0378 7.23851C17.1675 7.25642 17.2899 7.27308 17.3923 7.2961C21.5367 8.22237 22.9321 9.67866 23.6141 13.7888C23.6308 13.8892 23.6383 14.013 23.6463 14.1442C23.676 14.6355 23.738 15.6577 24.8367 15.6577H24.8368C24.9283 15.6577 25.0266 15.6498 25.1289 15.6342C26.152 15.4787 26.1199 14.5443 26.1045 14.0954C26.1002 13.969 26.0961 13.8494 26.1067 13.7698C26.1096 13.7498 26.1111 13.7297 26.1112 13.7095Z" fill="url(#paint0_linear)"/>
<path d="M16.5446 3.17285C16.6673 3.18171 16.7835 3.19018 16.8803 3.20501C23.6857 4.25184 26.8155 7.47696 27.6828 14.3372C27.6975 14.4538 27.6999 14.5961 27.7023 14.7467C27.7109 15.2826 27.7287 16.3976 28.9259 16.4208L28.9631 16.4211C29.3385 16.4211 29.6372 16.3079 29.8508 16.0843C30.2235 15.6944 30.1975 15.1152 30.1765 14.6497C30.1714 14.5355 30.1665 14.4279 30.1677 14.3338C30.2543 7.31749 24.1823 0.955171 17.1739 0.718574C17.1448 0.717611 17.1171 0.719152 17.0891 0.7231C17.0753 0.725122 17.0498 0.727626 17.0061 0.727626C16.9362 0.727626 16.8502 0.721559 16.759 0.715396C16.6488 0.707885 16.5239 0.699219 16.3972 0.699219C15.2811 0.699219 15.0689 1.49269 15.0417 1.96569C14.9791 3.05884 16.0364 3.13578 16.5446 3.17285Z" fill="url(#paint1_linear)"/>
<path d="M27.3551 23.2034C27.2104 23.0929 27.0608 22.9785 26.9207 22.8656C26.1777 22.2675 25.3872 21.7162 24.6227 21.1831C24.464 21.0725 24.3054 20.9619 24.1473 20.8509C23.168 20.1629 22.2876 19.8286 21.4558 19.8286C20.3355 19.8286 19.3587 20.4477 18.5525 21.6687C18.1953 22.2099 17.762 22.4731 17.228 22.4731C16.9122 22.4731 16.5534 22.383 16.1616 22.2051C13.0007 20.7714 10.7436 18.5732 9.45286 15.6715C8.82891 14.2691 9.03118 13.3524 10.1293 12.6063C10.7528 12.183 11.9135 11.3949 11.8313 9.88575C11.7382 8.17199 7.95774 3.0155 6.3649 2.42983C5.69051 2.18178 4.98194 2.17946 4.25508 2.42405C2.42397 3.03976 1.10994 4.12106 0.45471 5.55084C-0.178477 6.93238 -0.149884 8.55457 0.537408 10.242C2.52429 15.1209 5.31774 19.3746 8.84047 22.8849C12.2886 26.3211 16.5266 29.1358 21.4367 31.2505C21.8793 31.441 22.3435 31.5449 22.6825 31.6206C22.798 31.6466 22.8978 31.6688 22.9704 31.6887C23.0104 31.6996 23.0516 31.7055 23.0929 31.7059L23.1317 31.7061C23.1318 31.7061 23.1317 31.7061 23.1319 31.7061C25.4413 31.7061 28.2142 29.5953 29.0659 27.1889C29.812 25.0817 28.4497 24.0402 27.3551 23.2034Z" fill="url(#paint2_linear)"/>
<path d="M17.5662 8.74596C17.1708 8.75597 16.348 8.77639 16.0593 9.6146C15.9242 10.0063 15.9404 10.3464 16.1074 10.6255C16.3525 11.0349 16.8221 11.1604 17.2493 11.2292C18.7984 11.4778 19.594 12.3346 19.7532 13.9254C19.8271 14.6671 20.3265 15.1851 20.9677 15.1851H20.9678C21.0151 15.1851 21.0636 15.1823 21.1118 15.1764C21.883 15.0846 22.2568 14.518 22.223 13.4923C22.2353 12.4218 21.6752 11.2065 20.7226 10.2385C19.7667 9.26747 18.6144 8.72063 17.5662 8.74596Z" fill="url(#paint3_linear)"/>
<defs>
<linearGradient id="paint0_linear" x1="25.6542" y1="4.6543" x2="14.5757" y2="14.9763" gradientUnits="userSpaceOnUse">
<stop stop-color="#CDB185"/>
<stop offset="1" stop-color="#EBD3AE"/>
</linearGradient>
<linearGradient id="paint1_linear" x1="29.5328" y1="0.699219" x2="13.7022" y2="15.4678" gradientUnits="userSpaceOnUse">
<stop stop-color="#CDB185"/>
<stop offset="1" stop-color="#EBD3AE"/>
</linearGradient>
<linearGradient id="paint2_linear" x1="28.0152" y1="2.24219" x2="-1.70188" y2="30.8364" gradientUnits="userSpaceOnUse">
<stop stop-color="#CDB185"/>
<stop offset="1" stop-color="#EBD3AE"/>
</linearGradient>
<linearGradient id="paint3_linear" x1="21.9549" y1="8.74512" x2="15.467" y2="14.8481" gradientUnits="userSpaceOnUse">
<stop stop-color="#CDB185"/>
<stop offset="1" stop-color="#EBD3AE"/>
</linearGradient>
</defs>
</svg>
