<svg width="40" height="40" viewBox="0 0 40 40" fill="none" xmlns="http://www.w3.org/2000/svg">
<g clip-path="url(#clip0)">
<path d="M2.9957 33.1032H13.3334V6.89636H2.9957C1.34117 6.89636 0 8.23753 0 9.89207V30.1076C0 31.7621 1.34117 33.1032 2.9957 33.1032Z" fill="#464655"/>
<path d="M26.6671 6.89661H13.3335V33.1036H26.6671V6.89661Z" fill="#FF4B55"/>
<path d="M37.0046 33.1032C38.659 33.1032 40.0003 31.7621 40.0003 30.1075V9.89207C40.0003 8.23761 38.6591 6.89636 37.0046 6.89636H26.667V33.1032H37.0046Z" fill="#73AF00"/>
<path d="M18.9998 19.3521H18.3999V19.552H18.9998V19.3521Z" fill="#F5F5F5"/>
<path d="M21.7995 21.3519H18.1998L18.3998 20.952H21.5995L21.7995 21.3519Z" fill="#F5F5F5"/>
<path d="M21.7995 18.1522H18.1998L18.3998 18.5522H21.5995L21.7995 18.1522Z" fill="#F5F5F5"/>
<path d="M20.9997 18.3523H18.9999L19.3999 17.9523H20.5998L20.9997 18.3523Z" fill="#F5F5F5"/>
<path d="M18.9998 20.3522H18.3999V20.7522H18.9998V20.3522Z" fill="#F5F5F5"/>
<path d="M18.9998 19.7521H18.3999V20.1521H18.9998V19.7521Z" fill="#F5F5F5"/>
<path d="M18.9998 18.7521H18.3999V19.1521H18.9998V18.7521Z" fill="#F5F5F5"/>
<path d="M21.5997 20.3522H20.9998V20.7522H21.5997V20.3522Z" fill="#F5F5F5"/>
<path d="M21.5997 19.7521H20.9998V20.1521H21.5997V19.7521Z" fill="#F5F5F5"/>
<path d="M21.5997 18.7521H20.9998V19.1521H21.5997V18.7521Z" fill="#F5F5F5"/>
<path d="M21.5997 19.3521H20.9998V19.552H21.5997V19.3521Z" fill="#F5F5F5"/>
<path d="M18.9995 17.1521H18.5995V17.952H18.9995V17.1521Z" fill="#F5F5F5"/>
<path d="M18.9999 16.9522H18.5999V16.7522C18.5999 16.6418 18.6894 16.5522 18.7999 16.5522C18.9103 16.5522 18.9999 16.6418 18.9999 16.7522V16.9522Z" fill="#F5F5F5"/>
<path d="M21.3998 17.1521H20.9998V17.952H21.3998V17.1521Z" fill="#F5F5F5"/>
<path d="M21.4 16.9522H21V16.7522C21 16.6418 21.0895 16.5522 21.2 16.5522C21.3105 16.5522 21.4 16.6418 21.4 16.7522V16.9522Z" fill="#F5F5F5"/>
<path d="M19.9996 18.7521C19.5578 18.7521 19.1997 19.1102 19.1997 19.552V20.7519H20.7995V19.552C20.7995 19.1103 20.4414 18.7521 19.9996 18.7521Z" fill="#F5F5F5"/>
<path d="M18.6755 20.0121L17.5867 18.7418C17.5937 18.7213 17.5998 18.7002 17.5998 18.6773C17.5998 18.5668 17.5102 18.4773 17.3998 18.4773C17.2893 18.4773 17.1998 18.5668 17.1998 18.6773C17.1998 18.7878 17.2893 18.8773 17.3998 18.8773C17.4118 18.8773 17.4223 18.8725 17.4337 18.8705L17.5463 19.002L16.9998 20.2772L17.5997 20.8771L18.1177 19.6685L18.5237 20.1422L18.6755 20.0121ZM17.7027 20.4299L17.2241 19.9512L17.44 19.4472L17.9187 19.9259L17.7027 20.4299Z" fill="#F5F5F5"/>
<path d="M21.4804 20.1421L21.8864 19.6684L22.4045 20.877L23.0044 20.2771L22.4578 19.0019L22.5705 18.8704C22.582 18.8723 22.5924 18.8772 22.6044 18.8772C22.7149 18.8772 22.8044 18.7876 22.8044 18.6772C22.8044 18.5667 22.7149 18.4772 22.6044 18.4772C22.4939 18.4772 22.4044 18.5667 22.4044 18.6772C22.4044 18.7001 22.4103 18.7212 22.4174 18.7417L21.3286 20.0119L21.4804 20.1421ZM22.0855 19.9258L22.5642 19.4472L22.7801 19.9512L22.3014 20.4298L22.0855 19.9258Z" fill="#F5F5F5"/>
<path d="M20.2258 16.7873C20.163 16.7687 20.1069 16.7344 20.0715 16.6794C20.0478 16.6426 20.0236 16.6008 19.9995 16.5525C19.9754 16.6008 19.9512 16.6426 19.9276 16.6794C19.892 16.7345 19.836 16.7688 19.7732 16.7873C19.4419 16.8848 19.1996 17.1894 19.1996 17.5523C19.1996 17.6218 19.2112 17.688 19.2279 17.7523H20.7711C20.7878 17.688 20.7994 17.6218 20.7994 17.5523C20.7993 17.1894 20.5571 16.8848 20.2258 16.7873Z" fill="#F5F5F5"/>
<path d="M15.4169 19.7286C15.4068 19.6043 15.4002 19.479 15.4002 19.3521C15.4002 19.0952 15.4235 18.8426 15.4647 18.5947C15.5224 18.6346 15.5828 18.6785 15.6455 18.7278C15.6162 18.9329 15.6 19.1412 15.6 19.3521C15.6 19.4999 15.6076 19.6461 15.6219 19.7902L16.0447 19.9172C16.0182 19.732 16 19.5444 16 19.3521C16 19.2565 16.0057 19.162 16.0132 19.0679C16.234 19.3127 16.4082 19.6085 16.4082 19.9354C16.4082 19.9437 17.0499 18.9854 15.8833 17.9272L15.875 18.3772L15.2031 18.3701C15.1425 18.3695 15.0893 18.4125 15.0787 18.4721C15.0276 18.7595 15.0001 19.0534 15.0001 19.3521C15.0001 19.437 15.0024 19.5214 15.0065 19.6053L15.4169 19.7286Z" fill="#F5F5F5"/>
<path d="M17.1913 15.7107C17.2787 15.6432 17.2948 15.5177 17.2273 15.4302C17.1597 15.3427 17.0342 15.3269 16.9468 15.3942C16.0417 16.0932 15.4206 17.0535 15.1516 18.1292L15.5638 18.1346C15.8232 17.1825 16.3845 16.3338 17.1913 15.7107Z" fill="#F5F5F5"/>
<path d="M16.9234 16.2095C16.4885 16.6354 16.1593 17.1367 15.9353 17.6813C16.059 17.7829 16.1603 17.8856 16.2444 17.9877C16.446 17.4324 16.767 16.9227 17.2034 16.4954C17.2823 16.4181 17.2836 16.2915 17.2063 16.2127C17.1288 16.1334 17.0023 16.1321 16.9234 16.2095Z" fill="#F5F5F5"/>
<path d="M16.2283 21.974C15.9318 21.5485 15.7051 21.0713 15.5644 20.5587L15.7969 20.6442C15.9422 21.1119 16.1626 21.5469 16.4447 21.9345L16.8862 21.8537C16.6369 21.544 16.4321 21.1972 16.2825 20.8226L16.5434 20.9185C16.6923 21.2454 16.8829 21.5461 17.1102 21.8128L17.5695 21.7287C17.3889 21.5443 17.2309 21.3367 17.0948 21.1128L16.8287 20.5806C16.7465 20.4162 16.6002 20.2931 16.4242 20.2404L15.7947 20.0511L15.6491 20.0075L15.4396 19.9444L15.0228 19.8192L14.8003 19.7523L14.9379 20.1654C14.9682 20.2561 15.0294 20.3319 15.1089 20.3815C15.2362 20.9858 15.4722 21.5504 15.7964 22.0534L16.2283 21.974Z" fill="#F5F5F5"/>
<path d="M24.1241 18.3772L24.1158 17.9272C22.9492 18.9854 23.5909 19.9437 23.5909 19.9354C23.5909 19.6085 23.7651 19.3127 23.9859 19.0679C23.9934 19.162 23.9991 19.2565 23.9991 19.3521C23.9991 19.5444 23.9809 19.7321 23.9544 19.9172L24.3772 19.7902C24.3915 19.6461 24.3991 19.5 24.3991 19.3521C24.3991 19.1411 24.383 18.9328 24.3536 18.7278C24.4163 18.6786 24.4768 18.6346 24.5344 18.5947C24.5757 18.8425 24.5989 19.0953 24.5989 19.3521C24.5989 19.479 24.5923 19.6043 24.5822 19.7286L24.9924 19.6053C24.9966 19.5214 24.9988 19.437 24.9988 19.3521C24.9988 19.0534 24.9712 18.7595 24.9202 18.4721C24.9096 18.4124 24.8563 18.3695 24.7959 18.3701L24.1241 18.3772Z" fill="#F5F5F5"/>
<path d="M24.4355 18.1347L24.8477 18.1294C24.5786 17.0537 23.9576 16.0934 23.0525 15.3944C22.9651 15.327 22.8397 15.3428 22.7719 15.4303C22.7044 15.5178 22.7205 15.6435 22.808 15.7108C23.6147 16.3339 24.176 17.1826 24.4355 18.1347Z" fill="#F5F5F5"/>
<path d="M24.0642 17.6812C23.8401 17.1367 23.511 16.6354 23.0761 16.2094C22.9972 16.1321 22.8707 16.1335 22.7933 16.2126C22.716 16.2915 22.7174 16.418 22.7963 16.4953C23.2326 16.9226 23.5536 17.4323 23.7552 17.9876C23.8392 17.8855 23.9405 17.7828 24.0642 17.6812Z" fill="#F5F5F5"/>
<path d="M24.9765 19.8189L24.5597 19.9441L24.3502 20.0072L24.2046 20.0508L23.575 20.2401C23.399 20.2929 23.2526 20.416 23.1705 20.5803L22.9044 21.1125C22.7684 21.3364 22.6103 21.544 22.4297 21.7284L22.889 21.8125C23.1162 21.5458 23.307 21.2452 23.4558 20.9182L23.7167 20.8223C23.567 21.1969 23.3622 21.5437 23.113 21.8534L23.5545 21.9342C23.8368 21.5466 24.057 21.1116 24.2023 20.6439L24.4348 20.5584C24.2941 21.071 24.0674 21.5483 23.7709 21.9737L24.2028 22.0528C24.527 21.5498 24.763 20.9852 24.8903 20.3809C24.9698 20.3312 25.031 20.2555 25.0613 20.1648L25.1989 19.7517L24.9765 19.8189Z" fill="#F5F5F5"/>
<path d="M22.084 22.03L22.0737 22.0392C21.4919 22.4882 20.7693 22.7518 19.9998 22.7518C19.2305 22.7518 18.5079 22.4882 17.926 22.0392L17.9157 22.03C17.8401 21.947 17.7266 21.9098 17.6166 21.932L15.6002 22.3519L16.0476 22.7441C16.1673 22.849 16.3211 22.8979 16.474 22.8889C16.834 23.2475 17.2476 23.5523 17.7023 23.7891L17.5713 24.0309C18.2937 24.4237 19.1212 24.6471 19.9997 24.6471C20.8783 24.6471 21.7057 24.4237 22.4282 24.0309L22.2972 23.7891C22.7519 23.5523 23.1655 23.2474 23.5255 22.8889C23.6785 22.8979 23.8322 22.8489 23.9519 22.7441L24.3994 22.3519L22.383 21.932C22.273 21.9098 22.1594 21.9469 22.084 22.03ZM17.8936 23.436C17.5311 23.2474 17.1992 23.0092 16.9005 22.7353L17.0947 22.6427C17.3658 22.8827 17.6641 23.0928 17.9883 23.261L17.8936 23.436ZM23.099 22.7353C22.8004 23.0092 22.4684 23.2474 22.1059 23.436L22.0112 23.2611C22.3353 23.0929 22.6335 22.8828 22.9047 22.6428L23.099 22.7353ZM19.9997 23.3517C19.0472 23.3517 18.1745 23.0138 17.4873 22.4554L17.6869 22.3603C18.3357 22.86 19.1419 23.1517 19.9996 23.1517C20.8572 23.1517 21.6636 22.86 22.3123 22.3603L22.5119 22.4554C21.8251 23.0139 20.9522 23.3517 19.9997 23.3517Z" fill="#F5F5F5"/>
<path d="M17.8054 21.7465C17.8913 21.8192 17.9803 21.8879 18.0732 21.9518H21.9264C22.0192 21.8879 22.1083 21.8192 22.1942 21.7465L21.9996 21.552H18.0001L17.8054 21.7465Z" fill="#F5F5F5"/>
</g>
<defs>
<clipPath id="clip0">
<rect width="40" height="40" fill="white"/>
</clipPath>
</defs>
</svg>
